<svg width="1200" height="780" viewBox="0 0 1200 780" fill="none" xmlns="http://www.w3.org/2000/svg">
  <defs>
    <linearGradient id="sky" x1="600" y1="0" x2="600" y2="780" gradientUnits="userSpaceOnUse">
      <stop stop-color="#18120F"/>
      <stop offset="1" stop-color="#30241F"/>
    </linearGradient>
    <linearGradient id="ground" x1="600" y1="460" x2="600" y2="780" gradientUnits="userSpaceOnUse">
      <stop stop-color="#1B1512"/>
      <stop offset="1" stop-color="#0B0908"/>
    </linearGradient>
  </defs>
  <rect width="1200" height="780" fill="url(#sky)"/>
  <circle cx="527" cy="142" r="48" fill="#D2BC91" fill-opacity="0.08"/>
  <rect y="460" width="1200" height="320" fill="url(#ground)"/>
  <rect x="183" y="303" width="690" height="175" fill="#171210"/>
  <rect x="155" y="283" width="746" height="24" fill="#44302A"/>
  <rect x="217" y="331" width="105" height="51" fill="#332721" opacity="0.9"/><rect x="341" y="331" width="105" height="51" fill="#332721" opacity="0.9"/><rect x="465" y="331" width="105" height="51" fill="#332721" opacity="0.9"/><rect x="589" y="331" width="105" height="51" fill="#332721" opacity="0.9"/><rect x="217" y="397" width="105" height="51" fill="#332721" opacity="0.9"/><rect x="341" y="397" width="105" height="51" fill="#332721" opacity="0.9"/><rect x="465" y="397" width="105" height="51" fill="#332721" opacity="0.9"/><rect x="589" y="397" width="105" height="51" fill="#332721" opacity="0.9"/>
  <rect x="355" y="226" width="216" height="50" fill="#BCA173"/>
  <text x="463" y="260" text-anchor="middle" font-size="38" font-family="serif" fill="#17120F">きさらぎ駅</text>
  <rect x="0" y="512" width="1200" height="7" fill="#6F5D4F" fill-opacity="0.56"/>
  <rect x="0" y="562" width="1200" height="5" fill="#8A7562" fill-opacity="0.35"/>
  <rect x="223" y="525" width="14" height="155" fill="#151110" opacity="0.38"/><rect x="362" y="525" width="17" height="151" fill="#151110" opacity="0.38"/><rect x="517" y="525" width="14" height="171" fill="#151110" opacity="0.38"/><rect x="686" y="525" width="15" height="152" fill="#151110" opacity="0.38"/><rect x="832" y="525" width="16" height="177" fill="#151110" opacity="0.38"/><rect x="1007" y="525" width="15" height="173" fill="#151110" opacity="0.38"/>
  <ellipse cx="863" cy="393" rx="28" ry="66" fill="#0F0C0B" opacity="0.62"/>
  <ellipse cx="861" cy="357" rx="18" ry="18" fill="#0F0C0B" opacity="0.62"/>
</svg>