<svg width="1200" height="780" viewBox="0 0 1200 780" fill="none" xmlns="http://www.w3.org/2000/svg">
  <defs>
    <linearGradient id="sky" x1="600" y1="0" x2="600" y2="780" gradientUnits="userSpaceOnUse">
      <stop stop-color="#18120F"/>
      <stop offset="1" stop-color="#2B201B"/>
    </linearGradient>
    <linearGradient id="ground" x1="600" y1="460" x2="600" y2="780" gradientUnits="userSpaceOnUse">
      <stop stop-color="#221A16"/>
      <stop offset="1" stop-color="#080707"/>
    </linearGradient>
  </defs>
  <rect width="1200" height="780" fill="url(#sky)"/>
  <circle cx="577" cy="133" r="63" fill="#D2BC91" fill-opacity="0.08"/>
  <rect y="460" width="1200" height="320" fill="url(#ground)"/>
  <rect x="263" y="313" width="600" height="171" fill="#171210"/>
  <rect x="235" y="293" width="656" height="24" fill="#44302A"/>
  <rect x="297" y="341" width="114" height="60" fill="#332721" opacity="0.9"/><rect x="439" y="341" width="114" height="60" fill="#332721" opacity="0.9"/><rect x="581" y="341" width="114" height="60" fill="#332721" opacity="0.9"/><rect x="723" y="341" width="114" height="60" fill="#332721" opacity="0.9"/><rect x="297" y="422" width="114" height="60" fill="#332721" opacity="0.9"/><rect x="439" y="422" width="114" height="60" fill="#332721" opacity="0.9"/><rect x="581" y="422" width="114" height="60" fill="#332721" opacity="0.9"/><rect x="723" y="422" width="114" height="60" fill="#332721" opacity="0.9"/>
  <rect x="439" y="248" width="194" height="50" fill="#BCA173"/>
  <text x="536" y="282" text-anchor="middle" font-size="38" font-family="serif" fill="#17120F">きさらぎ駅</text>
  <rect x="0" y="512" width="1200" height="7" fill="#6F5D4F" fill-opacity="0.56"/>
  <rect x="0" y="562" width="1200" height="5" fill="#8A7562" fill-opacity="0.35"/>
  <rect x="198" y="525" width="12" height="157" fill="#151110" opacity="0.38"/><rect x="334" y="525" width="18" height="176" fill="#151110" opacity="0.38"/><rect x="458" y="525" width="15" height="176" fill="#151110" opacity="0.38"/><rect x="630" y="525" width="12" height="178" fill="#151110" opacity="0.38"/><rect x="783" y="525" width="12" height="163" fill="#151110" opacity="0.38"/><rect x="910" y="525" width="16" height="178" fill="#151110" opacity="0.38"/>
  <ellipse cx="386" cy="422" rx="28" ry="66" fill="#0F0C0B" opacity="0.62"/>
  <ellipse cx="384" cy="386" rx="18" ry="18" fill="#0F0C0B" opacity="0.62"/>
</svg>