<svg width="1200" height="780" viewBox="0 0 1200 780" fill="none" xmlns="http://www.w3.org/2000/svg">
  <defs>
    <linearGradient id="sky" x1="600" y1="0" x2="600" y2="780" gradientUnits="userSpaceOnUse">
      <stop stop-color="#140F0D"/>
      <stop offset="1" stop-color="#30241F"/>
    </linearGradient>
    <linearGradient id="ground" x1="600" y1="460" x2="600" y2="780" gradientUnits="userSpaceOnUse">
      <stop stop-color="#1E1713"/>
      <stop offset="1" stop-color="#080707"/>
    </linearGradient>
  </defs>
  <rect width="1200" height="780" fill="url(#sky)"/>
  <circle cx="911" cy="106" r="51" fill="#D2BC91" fill-opacity="0.08"/>
  <rect y="460" width="1200" height="320" fill="url(#ground)"/>
  <rect x="298" y="289" width="659" height="194" fill="#171210"/>
  <rect x="270" y="269" width="715" height="24" fill="#44302A"/>
  <rect x="332" y="317" width="104" height="44" fill="#332721" opacity="0.9"/><rect x="456" y="317" width="104" height="44" fill="#332721" opacity="0.9"/><rect x="580" y="317" width="104" height="44" fill="#332721" opacity="0.9"/><rect x="704" y="317" width="104" height="44" fill="#332721" opacity="0.9"/><rect x="332" y="378" width="104" height="44" fill="#332721" opacity="0.9"/><rect x="456" y="378" width="104" height="44" fill="#332721" opacity="0.9"/><rect x="580" y="378" width="104" height="44" fill="#332721" opacity="0.9"/><rect x="704" y="378" width="104" height="44" fill="#332721" opacity="0.9"/>
  <rect x="548" y="212" width="224" height="50" fill="#BCA173"/>
  <text x="660" y="246" text-anchor="middle" font-size="38" font-family="serif" fill="#17120F">きさらぎ駅</text>
  <rect x="0" y="512" width="1200" height="7" fill="#6F5D4F" fill-opacity="0.56"/>
  <rect x="0" y="562" width="1200" height="5" fill="#8A7562" fill-opacity="0.35"/>
  <rect x="204" y="525" width="15" height="188" fill="#151110" opacity="0.38"/><rect x="384" y="525" width="14" height="163" fill="#151110" opacity="0.38"/><rect x="534" y="525" width="13" height="182" fill="#151110" opacity="0.38"/><rect x="673" y="525" width="14" height="162" fill="#151110" opacity="0.38"/><rect x="826" y="525" width="12" height="158" fill="#151110" opacity="0.38"/><rect x="948" y="525" width="17" height="166" fill="#151110" opacity="0.38"/>
  <ellipse cx="446" cy="417" rx="28" ry="66" fill="#0F0C0B" opacity="0.62"/>
  <ellipse cx="444" cy="381" rx="18" ry="18" fill="#0F0C0B" opacity="0.62"/>
</svg>