<svg width="1200" height="780" viewBox="0 0 1200 780" fill="none" xmlns="http://www.w3.org/2000/svg">
  <defs>
    <linearGradient id="sky" x1="600" y1="0" x2="600" y2="780" gradientUnits="userSpaceOnUse">
      <stop stop-color="#100D0C"/>
      <stop offset="1" stop-color="#2C201B"/>
    </linearGradient>
    <linearGradient id="ground" x1="600" y1="460" x2="600" y2="780" gradientUnits="userSpaceOnUse">
      <stop stop-color="#1E1713"/>
      <stop offset="1" stop-color="#080707"/>
    </linearGradient>
  </defs>
  <rect width="1200" height="780" fill="url(#sky)"/>
  <circle cx="655" cy="130" r="71" fill="#D2BC91" fill-opacity="0.08"/>
  <rect y="460" width="1200" height="320" fill="url(#ground)"/>
  <rect x="181" y="309" width="679" height="208" fill="#171210"/>
  <rect x="153" y="289" width="735" height="24" fill="#44302A"/>
  <rect x="215" y="337" width="116" height="54" fill="#332721" opacity="0.9"/><rect x="357" y="337" width="116" height="54" fill="#332721" opacity="0.9"/><rect x="499" y="337" width="116" height="54" fill="#332721" opacity="0.9"/><rect x="641" y="337" width="116" height="54" fill="#332721" opacity="0.9"/><rect x="215" y="410" width="116" height="54" fill="#332721" opacity="0.9"/><rect x="357" y="410" width="116" height="54" fill="#332721" opacity="0.9"/><rect x="499" y="410" width="116" height="54" fill="#332721" opacity="0.9"/><rect x="641" y="410" width="116" height="54" fill="#332721" opacity="0.9"/>
  <rect x="352" y="232" width="198" height="50" fill="#BCA173"/>
  <text x="451" y="266" text-anchor="middle" font-size="38" font-family="serif" fill="#17120F">きさらぎ駅</text>
  <rect x="0" y="512" width="1200" height="7" fill="#6F5D4F" fill-opacity="0.56"/>
  <rect x="0" y="562" width="1200" height="5" fill="#8A7562" fill-opacity="0.35"/>
  <rect x="217" y="525" width="12" height="152" fill="#151110" opacity="0.38"/><rect x="350" y="525" width="14" height="169" fill="#151110" opacity="0.38"/><rect x="483" y="525" width="18" height="161" fill="#151110" opacity="0.38"/><rect x="663" y="525" width="17" height="183" fill="#151110" opacity="0.38"/><rect x="811" y="525" width="15" height="184" fill="#151110" opacity="0.38"/><rect x="948" y="525" width="13" height="170" fill="#151110" opacity="0.38"/>
  <ellipse cx="724" cy="414" rx="28" ry="66" fill="#0F0C0B" opacity="0.62"/>
  <ellipse cx="722" cy="378" rx="18" ry="18" fill="#0F0C0B" opacity="0.62"/>
</svg>