<svg width="1200" height="780" viewBox="0 0 1200 780" fill="none" xmlns="http://www.w3.org/2000/svg">
  <defs>
    <linearGradient id="sky" x1="600" y1="0" x2="600" y2="780" gradientUnits="userSpaceOnUse">
      <stop stop-color="#100D0C"/>
      <stop offset="1" stop-color="#30241F"/>
    </linearGradient>
    <linearGradient id="ground" x1="600" y1="460" x2="600" y2="780" gradientUnits="userSpaceOnUse">
      <stop stop-color="#221A16"/>
      <stop offset="1" stop-color="#080707"/>
    </linearGradient>
  </defs>
  <rect width="1200" height="780" fill="url(#sky)"/>
  <circle cx="492" cy="141" r="70" fill="#D2BC91" fill-opacity="0.08"/>
  <rect y="460" width="1200" height="320" fill="url(#ground)"/>
  <rect x="224" y="309" width="661" height="176" fill="#171210"/>
  <rect x="196" y="289" width="717" height="24" fill="#44302A"/>
  <rect x="258" y="337" width="95" height="58" fill="#332721" opacity="0.9"/><rect x="376" y="337" width="95" height="58" fill="#332721" opacity="0.9"/><rect x="494" y="337" width="95" height="58" fill="#332721" opacity="0.9"/><rect x="612" y="337" width="95" height="58" fill="#332721" opacity="0.9"/><rect x="258" y="417" width="95" height="58" fill="#332721" opacity="0.9"/><rect x="376" y="417" width="95" height="58" fill="#332721" opacity="0.9"/><rect x="494" y="417" width="95" height="58" fill="#332721" opacity="0.9"/><rect x="612" y="417" width="95" height="58" fill="#332721" opacity="0.9"/>
  <rect x="428" y="239" width="246" height="50" fill="#BCA173"/>
  <text x="551" y="273" text-anchor="middle" font-size="38" font-family="serif" fill="#17120F">きさらぎ駅</text>
  <rect x="0" y="512" width="1200" height="7" fill="#6F5D4F" fill-opacity="0.56"/>
  <rect x="0" y="562" width="1200" height="5" fill="#8A7562" fill-opacity="0.35"/>
  <rect x="202" y="525" width="13" height="159" fill="#151110" opacity="0.38"/><rect x="342" y="525" width="13" height="151" fill="#151110" opacity="0.38"/><rect x="480" y="525" width="12" height="155" fill="#151110" opacity="0.38"/><rect x="625" y="525" width="15" height="185" fill="#151110" opacity="0.38"/><rect x="776" y="525" width="13" height="172" fill="#151110" opacity="0.38"/><rect x="949" y="525" width="17" height="179" fill="#151110" opacity="0.38"/>
  <ellipse cx="479" cy="421" rx="28" ry="66" fill="#0F0C0B" opacity="0.62"/>
  <ellipse cx="477" cy="385" rx="18" ry="18" fill="#0F0C0B" opacity="0.62"/>
</svg>