<svg width="1200" height="780" viewBox="0 0 1200 780" fill="none" xmlns="http://www.w3.org/2000/svg">
  <defs>
    <linearGradient id="sky" x1="600" y1="0" x2="600" y2="780" gradientUnits="userSpaceOnUse">
      <stop stop-color="#140F0D"/>
      <stop offset="1" stop-color="#352722"/>
    </linearGradient>
    <linearGradient id="ground" x1="600" y1="460" x2="600" y2="780" gradientUnits="userSpaceOnUse">
      <stop stop-color="#1E1713"/>
      <stop offset="1" stop-color="#0B0908"/>
    </linearGradient>
  </defs>
  <rect width="1200" height="780" fill="url(#sky)"/>
  <circle cx="905" cy="163" r="57" fill="#D2BC91" fill-opacity="0.08"/>
  <rect y="460" width="1200" height="320" fill="url(#ground)"/>
  <rect x="205" y="305" width="614" height="198" fill="#171210"/>
  <rect x="177" y="285" width="670" height="24" fill="#44302A"/>
  <rect x="239" y="333" width="100" height="60" fill="#332721" opacity="0.9"/><rect x="366" y="333" width="100" height="60" fill="#332721" opacity="0.9"/><rect x="493" y="333" width="100" height="60" fill="#332721" opacity="0.9"/><rect x="620" y="333" width="100" height="60" fill="#332721" opacity="0.9"/><rect x="239" y="415" width="100" height="60" fill="#332721" opacity="0.9"/><rect x="366" y="415" width="100" height="60" fill="#332721" opacity="0.9"/><rect x="493" y="415" width="100" height="60" fill="#332721" opacity="0.9"/><rect x="620" y="415" width="100" height="60" fill="#332721" opacity="0.9"/>
  <rect x="439" y="231" width="191" height="50" fill="#BCA173"/>
  <text x="534" y="265" text-anchor="middle" font-size="38" font-family="serif" fill="#17120F">きさらぎ駅</text>
  <rect x="0" y="512" width="1200" height="7" fill="#6F5D4F" fill-opacity="0.56"/>
  <rect x="0" y="562" width="1200" height="5" fill="#8A7562" fill-opacity="0.35"/>
  <rect x="244" y="525" width="12" height="174" fill="#151110" opacity="0.38"/><rect x="412" y="525" width="14" height="178" fill="#151110" opacity="0.38"/><rect x="581" y="525" width="15" height="157" fill="#151110" opacity="0.38"/><rect x="724" y="525" width="12" height="156" fill="#151110" opacity="0.38"/><rect x="866" y="525" width="14" height="189" fill="#151110" opacity="0.38"/><rect x="986" y="525" width="12" height="165" fill="#151110" opacity="0.38"/>
  <ellipse cx="544" cy="391" rx="28" ry="66" fill="#0F0C0B" opacity="0.62"/>
  <ellipse cx="542" cy="355" rx="18" ry="18" fill="#0F0C0B" opacity="0.62"/>
</svg>