<svg width="1200" height="780" viewBox="0 0 1200 780" fill="none" xmlns="http://www.w3.org/2000/svg">
  <defs>
    <linearGradient id="sky" x1="600" y1="0" x2="600" y2="780" gradientUnits="userSpaceOnUse">
      <stop stop-color="#120E0C"/>
      <stop offset="1" stop-color="#30241F"/>
    </linearGradient>
    <linearGradient id="ground" x1="600" y1="460" x2="600" y2="780" gradientUnits="userSpaceOnUse">
      <stop stop-color="#221A16"/>
      <stop offset="1" stop-color="#080707"/>
    </linearGradient>
  </defs>
  <rect width="1200" height="780" fill="url(#sky)"/>
  <circle cx="776" cy="95" r="67" fill="#D2BC91" fill-opacity="0.08"/>
  <rect y="460" width="1200" height="320" fill="url(#ground)"/>
  <rect x="207" y="299" width="625" height="206" fill="#171210"/>
  <rect x="179" y="279" width="681" height="24" fill="#44302A"/>
  <rect x="241" y="327" width="88" height="57" fill="#332721" opacity="0.9"/><rect x="348" y="327" width="88" height="57" fill="#332721" opacity="0.9"/><rect x="455" y="327" width="88" height="57" fill="#332721" opacity="0.9"/><rect x="562" y="327" width="88" height="57" fill="#332721" opacity="0.9"/><rect x="241" y="403" width="88" height="57" fill="#332721" opacity="0.9"/><rect x="348" y="403" width="88" height="57" fill="#332721" opacity="0.9"/><rect x="455" y="403" width="88" height="57" fill="#332721" opacity="0.9"/><rect x="562" y="403" width="88" height="57" fill="#332721" opacity="0.9"/>
  <rect x="442" y="225" width="209" height="50" fill="#BCA173"/>
  <text x="546" y="259" text-anchor="middle" font-size="38" font-family="serif" fill="#17120F">きさらぎ駅</text>
  <rect x="0" y="512" width="1200" height="7" fill="#6F5D4F" fill-opacity="0.56"/>
  <rect x="0" y="562" width="1200" height="5" fill="#8A7562" fill-opacity="0.35"/>
  <rect x="250" y="525" width="14" height="177" fill="#151110" opacity="0.38"/><rect x="425" y="525" width="17" height="160" fill="#151110" opacity="0.38"/><rect x="555" y="525" width="17" height="167" fill="#151110" opacity="0.38"/><rect x="688" y="525" width="17" height="167" fill="#151110" opacity="0.38"/><rect x="828" y="525" width="16" height="182" fill="#151110" opacity="0.38"/><rect x="986" y="525" width="13" height="167" fill="#151110" opacity="0.38"/>
  <ellipse cx="684" cy="410" rx="28" ry="66" fill="#0F0C0B" opacity="0.62"/>
  <ellipse cx="682" cy="374" rx="18" ry="18" fill="#0F0C0B" opacity="0.62"/>
</svg>