<svg width="1200" height="780" viewBox="0 0 1200 780" fill="none" xmlns="http://www.w3.org/2000/svg">
  <defs>
    <linearGradient id="sky" x1="600" y1="0" x2="600" y2="780" gradientUnits="userSpaceOnUse">
      <stop stop-color="#100D0C"/>
      <stop offset="1" stop-color="#2B201B"/>
    </linearGradient>
    <linearGradient id="ground" x1="600" y1="460" x2="600" y2="780" gradientUnits="userSpaceOnUse">
      <stop stop-color="#221A16"/>
      <stop offset="1" stop-color="#0B0908"/>
    </linearGradient>
  </defs>
  <rect width="1200" height="780" fill="url(#sky)"/>
  <circle cx="289" cy="138" r="76" fill="#D2BC91" fill-opacity="0.08"/>
  <rect y="460" width="1200" height="320" fill="url(#ground)"/>
  <rect x="283" y="295" width="657" height="205" fill="#171210"/>
  <rect x="255" y="275" width="713" height="24" fill="#44302A"/>
  <rect x="317" y="323" width="114" height="52" fill="#332721" opacity="0.9"/><rect x="456" y="323" width="114" height="52" fill="#332721" opacity="0.9"/><rect x="595" y="323" width="114" height="52" fill="#332721" opacity="0.9"/><rect x="734" y="323" width="114" height="52" fill="#332721" opacity="0.9"/><rect x="317" y="393" width="114" height="52" fill="#332721" opacity="0.9"/><rect x="456" y="393" width="114" height="52" fill="#332721" opacity="0.9"/><rect x="595" y="393" width="114" height="52" fill="#332721" opacity="0.9"/><rect x="734" y="393" width="114" height="52" fill="#332721" opacity="0.9"/>
  <rect x="462" y="230" width="203" height="50" fill="#BCA173"/>
  <text x="563" y="264" text-anchor="middle" font-size="38" font-family="serif" fill="#17120F">きさらぎ駅</text>
  <rect x="0" y="512" width="1200" height="7" fill="#6F5D4F" fill-opacity="0.56"/>
  <rect x="0" y="562" width="1200" height="5" fill="#8A7562" fill-opacity="0.35"/>
  <rect x="198" y="525" width="15" height="186" fill="#151110" opacity="0.38"/><rect x="362" y="525" width="14" height="163" fill="#151110" opacity="0.38"/><rect x="508" y="525" width="14" height="177" fill="#151110" opacity="0.38"/><rect x="658" y="525" width="14" height="161" fill="#151110" opacity="0.38"/><rect x="833" y="525" width="13" height="166" fill="#151110" opacity="0.38"/><rect x="999" y="525" width="16" height="174" fill="#151110" opacity="0.38"/>
  <ellipse cx="967" cy="429" rx="28" ry="66" fill="#0F0C0B" opacity="0.62"/>
  <ellipse cx="965" cy="393" rx="18" ry="18" fill="#0F0C0B" opacity="0.62"/>
</svg>