<svg width="1200" height="780" viewBox="0 0 1200 780" fill="none" xmlns="http://www.w3.org/2000/svg">
  <defs>
    <linearGradient id="sky" x1="600" y1="0" x2="600" y2="780" gradientUnits="userSpaceOnUse">
      <stop stop-color="#120E0C"/>
      <stop offset="1" stop-color="#352722"/>
    </linearGradient>
    <linearGradient id="ground" x1="600" y1="460" x2="600" y2="780" gradientUnits="userSpaceOnUse">
      <stop stop-color="#221A16"/>
      <stop offset="1" stop-color="#0B0908"/>
    </linearGradient>
  </defs>
  <rect width="1200" height="780" fill="url(#sky)"/>
  <circle cx="830" cy="148" r="52" fill="#D2BC91" fill-opacity="0.08"/>
  <rect y="460" width="1200" height="320" fill="url(#ground)"/>
  <rect x="263" y="297" width="601" height="179" fill="#171210"/>
  <rect x="235" y="277" width="657" height="24" fill="#44302A"/>
  <rect x="297" y="325" width="96" height="58" fill="#332721" opacity="0.9"/><rect x="419" y="325" width="96" height="58" fill="#332721" opacity="0.9"/><rect x="541" y="325" width="96" height="58" fill="#332721" opacity="0.9"/><rect x="663" y="325" width="96" height="58" fill="#332721" opacity="0.9"/><rect x="297" y="405" width="96" height="58" fill="#332721" opacity="0.9"/><rect x="419" y="405" width="96" height="58" fill="#332721" opacity="0.9"/><rect x="541" y="405" width="96" height="58" fill="#332721" opacity="0.9"/><rect x="663" y="405" width="96" height="58" fill="#332721" opacity="0.9"/>
  <rect x="471" y="227" width="192" height="50" fill="#BCA173"/>
  <text x="567" y="261" text-anchor="middle" font-size="38" font-family="serif" fill="#17120F">きさらぎ駅</text>
  <rect x="0" y="512" width="1200" height="7" fill="#6F5D4F" fill-opacity="0.56"/>
  <rect x="0" y="562" width="1200" height="5" fill="#8A7562" fill-opacity="0.35"/>
  <rect x="234" y="525" width="12" height="157" fill="#151110" opacity="0.38"/><rect x="358" y="525" width="12" height="167" fill="#151110" opacity="0.38"/><rect x="513" y="525" width="14" height="169" fill="#151110" opacity="0.38"/><rect x="672" y="525" width="13" height="162" fill="#151110" opacity="0.38"/><rect x="841" y="525" width="13" height="150" fill="#151110" opacity="0.38"/><rect x="977" y="525" width="16" height="158" fill="#151110" opacity="0.38"/>
  <ellipse cx="893" cy="420" rx="28" ry="66" fill="#0F0C0B" opacity="0.62"/>
  <ellipse cx="891" cy="384" rx="18" ry="18" fill="#0F0C0B" opacity="0.62"/>
</svg>