<svg width="1200" height="780" viewBox="0 0 1200 780" fill="none" xmlns="http://www.w3.org/2000/svg">
  <defs>
    <linearGradient id="sky" x1="600" y1="0" x2="600" y2="780" gradientUnits="userSpaceOnUse">
      <stop stop-color="#140F0D"/>
      <stop offset="1" stop-color="#30241F"/>
    </linearGradient>
    <linearGradient id="ground" x1="600" y1="460" x2="600" y2="780" gradientUnits="userSpaceOnUse">
      <stop stop-color="#1B1512"/>
      <stop offset="1" stop-color="#0B0908"/>
    </linearGradient>
  </defs>
  <rect width="1200" height="780" fill="url(#sky)"/>
  <circle cx="534" cy="137" r="67" fill="#D2BC91" fill-opacity="0.08"/>
  <rect y="460" width="1200" height="320" fill="url(#ground)"/>
  <rect x="183" y="311" width="711" height="173" fill="#171210"/>
  <rect x="155" y="291" width="767" height="24" fill="#44302A"/>
  <rect x="217" y="339" width="122" height="59" fill="#332721" opacity="0.9"/><rect x="364" y="339" width="122" height="59" fill="#332721" opacity="0.9"/><rect x="511" y="339" width="122" height="59" fill="#332721" opacity="0.9"/><rect x="658" y="339" width="122" height="59" fill="#332721" opacity="0.9"/><rect x="217" y="415" width="122" height="59" fill="#332721" opacity="0.9"/><rect x="364" y="415" width="122" height="59" fill="#332721" opacity="0.9"/><rect x="511" y="415" width="122" height="59" fill="#332721" opacity="0.9"/><rect x="658" y="415" width="122" height="59" fill="#332721" opacity="0.9"/>
  <rect x="414" y="235" width="220" height="50" fill="#BCA173"/>
  <text x="524" y="269" text-anchor="middle" font-size="38" font-family="serif" fill="#17120F">きさらぎ駅</text>
  <rect x="0" y="512" width="1200" height="7" fill="#6F5D4F" fill-opacity="0.56"/>
  <rect x="0" y="562" width="1200" height="5" fill="#8A7562" fill-opacity="0.35"/>
  <rect x="200" y="525" width="12" height="158" fill="#151110" opacity="0.38"/><rect x="338" y="525" width="12" height="184" fill="#151110" opacity="0.38"/><rect x="469" y="525" width="13" height="166" fill="#151110" opacity="0.38"/><rect x="597" y="525" width="13" height="182" fill="#151110" opacity="0.38"/><rect x="749" y="525" width="12" height="188" fill="#151110" opacity="0.38"/><rect x="929" y="525" width="16" height="178" fill="#151110" opacity="0.38"/>
  <ellipse cx="433" cy="401" rx="28" ry="66" fill="#0F0C0B" opacity="0.62"/>
  <ellipse cx="431" cy="365" rx="18" ry="18" fill="#0F0C0B" opacity="0.62"/>
</svg>