<svg width="1200" height="780" viewBox="0 0 1200 780" fill="none" xmlns="http://www.w3.org/2000/svg">
  <defs>
    <linearGradient id="sky" x1="600" y1="0" x2="600" y2="780" gradientUnits="userSpaceOnUse">
      <stop stop-color="#100D0C"/>
      <stop offset="1" stop-color="#30241F"/>
    </linearGradient>
    <linearGradient id="ground" x1="600" y1="460" x2="600" y2="780" gradientUnits="userSpaceOnUse">
      <stop stop-color="#1E1713"/>
      <stop offset="1" stop-color="#080707"/>
    </linearGradient>
  </defs>
  <rect width="1200" height="780" fill="url(#sky)"/>
  <circle cx="355" cy="126" r="58" fill="#D2BC91" fill-opacity="0.08"/>
  <rect y="460" width="1200" height="320" fill="url(#ground)"/>
  <rect x="266" y="290" width="702" height="171" fill="#171210"/>
  <rect x="238" y="270" width="758" height="24" fill="#44302A"/>
  <rect x="300" y="318" width="114" height="52" fill="#332721" opacity="0.9"/><rect x="436" y="318" width="114" height="52" fill="#332721" opacity="0.9"/><rect x="572" y="318" width="114" height="52" fill="#332721" opacity="0.9"/><rect x="708" y="318" width="114" height="52" fill="#332721" opacity="0.9"/><rect x="300" y="384" width="114" height="52" fill="#332721" opacity="0.9"/><rect x="436" y="384" width="114" height="52" fill="#332721" opacity="0.9"/><rect x="572" y="384" width="114" height="52" fill="#332721" opacity="0.9"/><rect x="708" y="384" width="114" height="52" fill="#332721" opacity="0.9"/>
  <rect x="462" y="222" width="229" height="50" fill="#BCA173"/>
  <text x="576" y="256" text-anchor="middle" font-size="38" font-family="serif" fill="#17120F">きさらぎ駅</text>
  <rect x="0" y="512" width="1200" height="7" fill="#6F5D4F" fill-opacity="0.56"/>
  <rect x="0" y="562" width="1200" height="5" fill="#8A7562" fill-opacity="0.35"/>
  <rect x="196" y="525" width="16" height="182" fill="#151110" opacity="0.38"/><rect x="320" y="525" width="17" height="162" fill="#151110" opacity="0.38"/><rect x="479" y="525" width="14" height="190" fill="#151110" opacity="0.38"/><rect x="622" y="525" width="13" height="159" fill="#151110" opacity="0.38"/><rect x="770" y="525" width="14" height="183" fill="#151110" opacity="0.38"/><rect x="894" y="525" width="16" height="167" fill="#151110" opacity="0.38"/>
  <ellipse cx="817" cy="421" rx="28" ry="66" fill="#0F0C0B" opacity="0.62"/>
  <ellipse cx="815" cy="385" rx="18" ry="18" fill="#0F0C0B" opacity="0.62"/>
</svg>