<svg width="1200" height="780" viewBox="0 0 1200 780" fill="none" xmlns="http://www.w3.org/2000/svg">
  <defs>
    <linearGradient id="sky" x1="600" y1="0" x2="600" y2="780" gradientUnits="userSpaceOnUse">
      <stop stop-color="#140F0D"/>
      <stop offset="1" stop-color="#30241F"/>
    </linearGradient>
    <linearGradient id="ground" x1="600" y1="460" x2="600" y2="780" gradientUnits="userSpaceOnUse">
      <stop stop-color="#1E1713"/>
      <stop offset="1" stop-color="#0B0908"/>
    </linearGradient>
  </defs>
  <rect width="1200" height="780" fill="url(#sky)"/>
  <circle cx="759" cy="130" r="68" fill="#D2BC91" fill-opacity="0.08"/>
  <rect y="460" width="1200" height="320" fill="url(#ground)"/>
  <rect x="218" y="316" width="654" height="188" fill="#171210"/>
  <rect x="190" y="296" width="710" height="24" fill="#44302A"/>
  <rect x="252" y="344" width="94" height="59" fill="#332721" opacity="0.9"/><rect x="374" y="344" width="94" height="59" fill="#332721" opacity="0.9"/><rect x="496" y="344" width="94" height="59" fill="#332721" opacity="0.9"/><rect x="618" y="344" width="94" height="59" fill="#332721" opacity="0.9"/><rect x="252" y="422" width="94" height="59" fill="#332721" opacity="0.9"/><rect x="374" y="422" width="94" height="59" fill="#332721" opacity="0.9"/><rect x="496" y="422" width="94" height="59" fill="#332721" opacity="0.9"/><rect x="618" y="422" width="94" height="59" fill="#332721" opacity="0.9"/>
  <rect x="454" y="239" width="208" height="50" fill="#BCA173"/>
  <text x="558" y="273" text-anchor="middle" font-size="38" font-family="serif" fill="#17120F">きさらぎ駅</text>
  <rect x="0" y="512" width="1200" height="7" fill="#6F5D4F" fill-opacity="0.56"/>
  <rect x="0" y="562" width="1200" height="5" fill="#8A7562" fill-opacity="0.35"/>
  <rect x="199" y="525" width="18" height="155" fill="#151110" opacity="0.38"/><rect x="376" y="525" width="18" height="150" fill="#151110" opacity="0.38"/><rect x="513" y="525" width="14" height="172" fill="#151110" opacity="0.38"/><rect x="664" y="525" width="14" height="166" fill="#151110" opacity="0.38"/><rect x="796" y="525" width="14" height="154" fill="#151110" opacity="0.38"/><rect x="918" y="525" width="13" height="179" fill="#151110" opacity="0.38"/>
  <ellipse cx="625" cy="394" rx="28" ry="66" fill="#0F0C0B" opacity="0.62"/>
  <ellipse cx="623" cy="358" rx="18" ry="18" fill="#0F0C0B" opacity="0.62"/>
</svg>