<svg width="1200" height="780" viewBox="0 0 1200 780" fill="none" xmlns="http://www.w3.org/2000/svg">
  <defs>
    <linearGradient id="sky" x1="600" y1="0" x2="600" y2="780" gradientUnits="userSpaceOnUse">
      <stop stop-color="#100D0C"/>
      <stop offset="1" stop-color="#352722"/>
    </linearGradient>
    <linearGradient id="ground" x1="600" y1="460" x2="600" y2="780" gradientUnits="userSpaceOnUse">
      <stop stop-color="#1E1713"/>
      <stop offset="1" stop-color="#080707"/>
    </linearGradient>
  </defs>
  <rect width="1200" height="780" fill="url(#sky)"/>
  <circle cx="750" cy="106" r="62" fill="#D2BC91" fill-opacity="0.08"/>
  <rect y="460" width="1200" height="320" fill="url(#ground)"/>
  <rect x="285" y="312" width="724" height="209" fill="#171210"/>
  <rect x="257" y="292" width="780" height="24" fill="#44302A"/>
  <rect x="319" y="340" width="113" height="55" fill="#332721" opacity="0.9"/><rect x="455" y="340" width="113" height="55" fill="#332721" opacity="0.9"/><rect x="591" y="340" width="113" height="55" fill="#332721" opacity="0.9"/><rect x="727" y="340" width="113" height="55" fill="#332721" opacity="0.9"/><rect x="319" y="415" width="113" height="55" fill="#332721" opacity="0.9"/><rect x="455" y="415" width="113" height="55" fill="#332721" opacity="0.9"/><rect x="591" y="415" width="113" height="55" fill="#332721" opacity="0.9"/><rect x="727" y="415" width="113" height="55" fill="#332721" opacity="0.9"/>
  <rect x="475" y="247" width="203" height="50" fill="#BCA173"/>
  <text x="576" y="281" text-anchor="middle" font-size="38" font-family="serif" fill="#17120F">きさらぎ駅</text>
  <rect x="0" y="512" width="1200" height="7" fill="#6F5D4F" fill-opacity="0.56"/>
  <rect x="0" y="562" width="1200" height="5" fill="#8A7562" fill-opacity="0.35"/>
  <rect x="214" y="525" width="14" height="166" fill="#151110" opacity="0.38"/><rect x="390" y="525" width="12" height="160" fill="#151110" opacity="0.38"/><rect x="564" y="525" width="18" height="175" fill="#151110" opacity="0.38"/><rect x="712" y="525" width="15" height="167" fill="#151110" opacity="0.38"/><rect x="882" y="525" width="12" height="180" fill="#151110" opacity="0.38"/><rect x="1059" y="525" width="12" height="186" fill="#151110" opacity="0.38"/>
  <ellipse cx="662" cy="412" rx="28" ry="66" fill="#0F0C0B" opacity="0.62"/>
  <ellipse cx="660" cy="376" rx="18" ry="18" fill="#0F0C0B" opacity="0.62"/>
</svg>