<svg width="1200" height="780" viewBox="0 0 1200 780" fill="none" xmlns="http://www.w3.org/2000/svg">
  <defs>
    <linearGradient id="sky" x1="600" y1="0" x2="600" y2="780" gradientUnits="userSpaceOnUse">
      <stop stop-color="#120E0C"/>
      <stop offset="1" stop-color="#2B201B"/>
    </linearGradient>
    <linearGradient id="ground" x1="600" y1="460" x2="600" y2="780" gradientUnits="userSpaceOnUse">
      <stop stop-color="#1B1512"/>
      <stop offset="1" stop-color="#080707"/>
    </linearGradient>
  </defs>
  <rect width="1200" height="780" fill="url(#sky)"/>
  <circle cx="329" cy="163" r="75" fill="#D2BC91" fill-opacity="0.08"/>
  <rect y="460" width="1200" height="320" fill="url(#ground)"/>
  <rect x="256" y="289" width="685" height="205" fill="#171210"/>
  <rect x="228" y="269" width="741" height="24" fill="#44302A"/>
  <rect x="290" y="317" width="104" height="53" fill="#332721" opacity="0.9"/><rect x="420" y="317" width="104" height="53" fill="#332721" opacity="0.9"/><rect x="550" y="317" width="104" height="53" fill="#332721" opacity="0.9"/><rect x="680" y="317" width="104" height="53" fill="#332721" opacity="0.9"/><rect x="290" y="390" width="104" height="53" fill="#332721" opacity="0.9"/><rect x="420" y="390" width="104" height="53" fill="#332721" opacity="0.9"/><rect x="550" y="390" width="104" height="53" fill="#332721" opacity="0.9"/><rect x="680" y="390" width="104" height="53" fill="#332721" opacity="0.9"/>
  <rect x="454" y="219" width="222" height="50" fill="#BCA173"/>
  <text x="565" y="253" text-anchor="middle" font-size="38" font-family="serif" fill="#17120F">きさらぎ駅</text>
  <rect x="0" y="512" width="1200" height="7" fill="#6F5D4F" fill-opacity="0.56"/>
  <rect x="0" y="562" width="1200" height="5" fill="#8A7562" fill-opacity="0.35"/>
  <rect x="216" y="525" width="13" height="158" fill="#151110" opacity="0.38"/><rect x="372" y="525" width="13" height="162" fill="#151110" opacity="0.38"/><rect x="521" y="525" width="13" height="175" fill="#151110" opacity="0.38"/><rect x="687" y="525" width="15" height="175" fill="#151110" opacity="0.38"/><rect x="857" y="525" width="13" height="178" fill="#151110" opacity="0.38"/><rect x="1030" y="525" width="16" height="153" fill="#151110" opacity="0.38"/>
  <ellipse cx="970" cy="416" rx="28" ry="66" fill="#0F0C0B" opacity="0.62"/>
  <ellipse cx="968" cy="380" rx="18" ry="18" fill="#0F0C0B" opacity="0.62"/>
</svg>