<svg width="1200" height="780" viewBox="0 0 1200 780" fill="none" xmlns="http://www.w3.org/2000/svg">
  <defs>
    <linearGradient id="sky" x1="600" y1="0" x2="600" y2="780" gradientUnits="userSpaceOnUse">
      <stop stop-color="#140F0D"/>
      <stop offset="1" stop-color="#2B201B"/>
    </linearGradient>
    <linearGradient id="ground" x1="600" y1="460" x2="600" y2="780" gradientUnits="userSpaceOnUse">
      <stop stop-color="#1B1512"/>
      <stop offset="1" stop-color="#0B0908"/>
    </linearGradient>
  </defs>
  <rect width="1200" height="780" fill="url(#sky)"/>
  <circle cx="398" cy="122" r="54" fill="#D2BC91" fill-opacity="0.08"/>
  <rect y="460" width="1200" height="320" fill="url(#ground)"/>
  <rect x="225" y="292" width="752" height="210" fill="#171210"/>
  <rect x="197" y="272" width="808" height="24" fill="#44302A"/>
  <rect x="259" y="320" width="106" height="53" fill="#332721" opacity="0.9"/><rect x="389" y="320" width="106" height="53" fill="#332721" opacity="0.9"/><rect x="519" y="320" width="106" height="53" fill="#332721" opacity="0.9"/><rect x="649" y="320" width="106" height="53" fill="#332721" opacity="0.9"/><rect x="259" y="391" width="106" height="53" fill="#332721" opacity="0.9"/><rect x="389" y="391" width="106" height="53" fill="#332721" opacity="0.9"/><rect x="519" y="391" width="106" height="53" fill="#332721" opacity="0.9"/><rect x="649" y="391" width="106" height="53" fill="#332721" opacity="0.9"/>
  <rect x="448" y="218" width="202" height="50" fill="#BCA173"/>
  <text x="549" y="252" text-anchor="middle" font-size="38" font-family="serif" fill="#17120F">きさらぎ駅</text>
  <rect x="0" y="512" width="1200" height="7" fill="#6F5D4F" fill-opacity="0.56"/>
  <rect x="0" y="562" width="1200" height="5" fill="#8A7562" fill-opacity="0.35"/>
  <rect x="194" y="525" width="16" height="182" fill="#151110" opacity="0.38"/><rect x="316" y="525" width="15" height="154" fill="#151110" opacity="0.38"/><rect x="468" y="525" width="16" height="159" fill="#151110" opacity="0.38"/><rect x="594" y="525" width="18" height="156" fill="#151110" opacity="0.38"/><rect x="743" y="525" width="13" height="158" fill="#151110" opacity="0.38"/><rect x="875" y="525" width="16" height="167" fill="#151110" opacity="0.38"/>
  <ellipse cx="771" cy="401" rx="28" ry="66" fill="#0F0C0B" opacity="0.62"/>
  <ellipse cx="769" cy="365" rx="18" ry="18" fill="#0F0C0B" opacity="0.62"/>
</svg>