<svg width="1200" height="780" viewBox="0 0 1200 780" fill="none" xmlns="http://www.w3.org/2000/svg">
  <defs>
    <linearGradient id="sky" x1="600" y1="0" x2="600" y2="780" gradientUnits="userSpaceOnUse">
      <stop stop-color="#100D0C"/>
      <stop offset="1" stop-color="#2B201B"/>
    </linearGradient>
    <linearGradient id="ground" x1="600" y1="460" x2="600" y2="780" gradientUnits="userSpaceOnUse">
      <stop stop-color="#1B1512"/>
      <stop offset="1" stop-color="#080707"/>
    </linearGradient>
  </defs>
  <rect width="1200" height="780" fill="url(#sky)"/>
  <circle cx="999" cy="98" r="56" fill="#D2BC91" fill-opacity="0.08"/>
  <rect y="460" width="1200" height="320" fill="url(#ground)"/>
  <rect x="299" y="313" width="645" height="173" fill="#171210"/>
  <rect x="271" y="293" width="701" height="24" fill="#44302A"/>
  <rect x="333" y="341" width="100" height="49" fill="#332721" opacity="0.9"/><rect x="460" y="341" width="100" height="49" fill="#332721" opacity="0.9"/><rect x="587" y="341" width="100" height="49" fill="#332721" opacity="0.9"/><rect x="714" y="341" width="100" height="49" fill="#332721" opacity="0.9"/><rect x="333" y="411" width="100" height="49" fill="#332721" opacity="0.9"/><rect x="460" y="411" width="100" height="49" fill="#332721" opacity="0.9"/><rect x="587" y="411" width="100" height="49" fill="#332721" opacity="0.9"/><rect x="714" y="411" width="100" height="49" fill="#332721" opacity="0.9"/>
  <rect x="471" y="249" width="205" height="50" fill="#BCA173"/>
  <text x="573" y="283" text-anchor="middle" font-size="38" font-family="serif" fill="#17120F">きさらぎ駅</text>
  <rect x="0" y="512" width="1200" height="7" fill="#6F5D4F" fill-opacity="0.56"/>
  <rect x="0" y="562" width="1200" height="5" fill="#8A7562" fill-opacity="0.35"/>
  <rect x="225" y="525" width="15" height="161" fill="#151110" opacity="0.38"/><rect x="390" y="525" width="17" height="152" fill="#151110" opacity="0.38"/><rect x="568" y="525" width="14" height="175" fill="#151110" opacity="0.38"/><rect x="741" y="525" width="14" height="189" fill="#151110" opacity="0.38"/><rect x="908" y="525" width="15" height="155" fill="#151110" opacity="0.38"/><rect x="1050" y="525" width="18" height="156" fill="#151110" opacity="0.38"/>
  <ellipse cx="415" cy="415" rx="28" ry="66" fill="#0F0C0B" opacity="0.62"/>
  <ellipse cx="413" cy="379" rx="18" ry="18" fill="#0F0C0B" opacity="0.62"/>
</svg>