<svg width="1200" height="780" viewBox="0 0 1200 780" fill="none" xmlns="http://www.w3.org/2000/svg">
  <defs>
    <linearGradient id="sky" x1="600" y1="0" x2="600" y2="780" gradientUnits="userSpaceOnUse">
      <stop stop-color="#18120F"/>
      <stop offset="1" stop-color="#2B201B"/>
    </linearGradient>
    <linearGradient id="ground" x1="600" y1="460" x2="600" y2="780" gradientUnits="userSpaceOnUse">
      <stop stop-color="#1E1713"/>
      <stop offset="1" stop-color="#090807"/>
    </linearGradient>
  </defs>
  <rect width="1200" height="780" fill="url(#sky)"/>
  <circle cx="530" cy="128" r="60" fill="#D2BC91" fill-opacity="0.08"/>
  <rect y="460" width="1200" height="320" fill="url(#ground)"/>
  <rect x="217" y="305" width="703" height="185" fill="#171210"/>
  <rect x="189" y="285" width="759" height="24" fill="#44302A"/>
  <rect x="251" y="333" width="101" height="51" fill="#332721" opacity="0.9"/><rect x="374" y="333" width="101" height="51" fill="#332721" opacity="0.9"/><rect x="497" y="333" width="101" height="51" fill="#332721" opacity="0.9"/><rect x="620" y="333" width="101" height="51" fill="#332721" opacity="0.9"/><rect x="251" y="399" width="101" height="51" fill="#332721" opacity="0.9"/><rect x="374" y="399" width="101" height="51" fill="#332721" opacity="0.9"/><rect x="497" y="399" width="101" height="51" fill="#332721" opacity="0.9"/><rect x="620" y="399" width="101" height="51" fill="#332721" opacity="0.9"/>
  <rect x="398" y="233" width="243" height="50" fill="#BCA173"/>
  <text x="519" y="267" text-anchor="middle" font-size="38" font-family="serif" fill="#17120F">きさらぎ駅</text>
  <rect x="0" y="512" width="1200" height="7" fill="#6F5D4F" fill-opacity="0.56"/>
  <rect x="0" y="562" width="1200" height="5" fill="#8A7562" fill-opacity="0.35"/>
  <rect x="207" y="525" width="18" height="176" fill="#151110" opacity="0.38"/><rect x="369" y="525" width="18" height="190" fill="#151110" opacity="0.38"/><rect x="508" y="525" width="16" height="155" fill="#151110" opacity="0.38"/><rect x="634" y="525" width="18" height="174" fill="#151110" opacity="0.38"/><rect x="777" y="525" width="16" height="189" fill="#151110" opacity="0.38"/><rect x="921" y="525" width="13" height="178" fill="#151110" opacity="0.38"/>
  <ellipse cx="331" cy="392" rx="28" ry="66" fill="#0F0C0B" opacity="0.62"/>
  <ellipse cx="329" cy="356" rx="18" ry="18" fill="#0F0C0B" opacity="0.62"/>
</svg>