<svg width="1200" height="780" viewBox="0 0 1200 780" fill="none" xmlns="http://www.w3.org/2000/svg">
  <defs>
    <linearGradient id="sky" x1="600" y1="0" x2="600" y2="780" gradientUnits="userSpaceOnUse">
      <stop stop-color="#120E0C"/>
      <stop offset="1" stop-color="#352722"/>
    </linearGradient>
    <linearGradient id="ground" x1="600" y1="460" x2="600" y2="780" gradientUnits="userSpaceOnUse">
      <stop stop-color="#1E1713"/>
      <stop offset="1" stop-color="#0B0908"/>
    </linearGradient>
  </defs>
  <rect width="1200" height="780" fill="url(#sky)"/>
  <circle cx="901" cy="138" r="75" fill="#D2BC91" fill-opacity="0.08"/>
  <rect y="460" width="1200" height="320" fill="url(#ground)"/>
  <rect x="293" y="304" width="634" height="195" fill="#171210"/>
  <rect x="265" y="284" width="690" height="24" fill="#44302A"/>
  <rect x="327" y="332" width="98" height="52" fill="#332721" opacity="0.9"/><rect x="447" y="332" width="98" height="52" fill="#332721" opacity="0.9"/><rect x="567" y="332" width="98" height="52" fill="#332721" opacity="0.9"/><rect x="687" y="332" width="98" height="52" fill="#332721" opacity="0.9"/><rect x="327" y="406" width="98" height="52" fill="#332721" opacity="0.9"/><rect x="447" y="406" width="98" height="52" fill="#332721" opacity="0.9"/><rect x="567" y="406" width="98" height="52" fill="#332721" opacity="0.9"/><rect x="687" y="406" width="98" height="52" fill="#332721" opacity="0.9"/>
  <rect x="487" y="228" width="238" height="50" fill="#BCA173"/>
  <text x="606" y="262" text-anchor="middle" font-size="38" font-family="serif" fill="#17120F">きさらぎ駅</text>
  <rect x="0" y="512" width="1200" height="7" fill="#6F5D4F" fill-opacity="0.56"/>
  <rect x="0" y="562" width="1200" height="5" fill="#8A7562" fill-opacity="0.35"/>
  <rect x="205" y="525" width="13" height="156" fill="#151110" opacity="0.38"/><rect x="366" y="525" width="15" height="174" fill="#151110" opacity="0.38"/><rect x="508" y="525" width="14" height="190" fill="#151110" opacity="0.38"/><rect x="650" y="525" width="18" height="153" fill="#151110" opacity="0.38"/><rect x="798" y="525" width="14" height="174" fill="#151110" opacity="0.38"/><rect x="942" y="525" width="14" height="178" fill="#151110" opacity="0.38"/>
  <ellipse cx="330" cy="391" rx="28" ry="66" fill="#0F0C0B" opacity="0.62"/>
  <ellipse cx="328" cy="355" rx="18" ry="18" fill="#0F0C0B" opacity="0.62"/>
</svg>