<svg width="1200" height="780" viewBox="0 0 1200 780" fill="none" xmlns="http://www.w3.org/2000/svg">
  <defs>
    <linearGradient id="sky" x1="600" y1="0" x2="600" y2="780" gradientUnits="userSpaceOnUse">
      <stop stop-color="#100D0C"/>
      <stop offset="1" stop-color="#30241F"/>
    </linearGradient>
    <linearGradient id="ground" x1="600" y1="460" x2="600" y2="780" gradientUnits="userSpaceOnUse">
      <stop stop-color="#1E1713"/>
      <stop offset="1" stop-color="#0B0908"/>
    </linearGradient>
  </defs>
  <rect width="1200" height="780" fill="url(#sky)"/>
  <circle cx="316" cy="113" r="54" fill="#D2BC91" fill-opacity="0.08"/>
  <rect y="460" width="1200" height="320" fill="url(#ground)"/>
  <rect x="289" y="316" width="613" height="181" fill="#171210"/>
  <rect x="261" y="296" width="669" height="24" fill="#44302A"/>
  <rect x="323" y="344" width="121" height="59" fill="#332721" opacity="0.9"/><rect x="470" y="344" width="121" height="59" fill="#332721" opacity="0.9"/><rect x="617" y="344" width="121" height="59" fill="#332721" opacity="0.9"/><rect x="764" y="344" width="121" height="59" fill="#332721" opacity="0.9"/><rect x="323" y="424" width="121" height="59" fill="#332721" opacity="0.9"/><rect x="470" y="424" width="121" height="59" fill="#332721" opacity="0.9"/><rect x="617" y="424" width="121" height="59" fill="#332721" opacity="0.9"/><rect x="764" y="424" width="121" height="59" fill="#332721" opacity="0.9"/>
  <rect x="481" y="240" width="202" height="50" fill="#BCA173"/>
  <text x="582" y="274" text-anchor="middle" font-size="38" font-family="serif" fill="#17120F">きさらぎ駅</text>
  <rect x="0" y="512" width="1200" height="7" fill="#6F5D4F" fill-opacity="0.56"/>
  <rect x="0" y="562" width="1200" height="5" fill="#8A7562" fill-opacity="0.35"/>
  <rect x="192" y="525" width="16" height="151" fill="#151110" opacity="0.38"/><rect x="340" y="525" width="16" height="168" fill="#151110" opacity="0.38"/><rect x="499" y="525" width="16" height="170" fill="#151110" opacity="0.38"/><rect x="662" y="525" width="15" height="173" fill="#151110" opacity="0.38"/><rect x="815" y="525" width="18" height="188" fill="#151110" opacity="0.38"/><rect x="944" y="525" width="18" height="173" fill="#151110" opacity="0.38"/>
  <ellipse cx="792" cy="394" rx="28" ry="66" fill="#0F0C0B" opacity="0.62"/>
  <ellipse cx="790" cy="358" rx="18" ry="18" fill="#0F0C0B" opacity="0.62"/>
</svg>