<svg width="1200" height="780" viewBox="0 0 1200 780" fill="none" xmlns="http://www.w3.org/2000/svg">
  <defs>
    <linearGradient id="sky" x1="600" y1="0" x2="600" y2="780" gradientUnits="userSpaceOnUse">
      <stop stop-color="#120E0C"/>
      <stop offset="1" stop-color="#2C201B"/>
    </linearGradient>
    <linearGradient id="ground" x1="600" y1="460" x2="600" y2="780" gradientUnits="userSpaceOnUse">
      <stop stop-color="#1E1713"/>
      <stop offset="1" stop-color="#0B0908"/>
    </linearGradient>
  </defs>
  <rect width="1200" height="780" fill="url(#sky)"/>
  <circle cx="908" cy="135" r="54" fill="#D2BC91" fill-opacity="0.08"/>
  <rect y="460" width="1200" height="320" fill="url(#ground)"/>
  <rect x="191" y="313" width="636" height="196" fill="#171210"/>
  <rect x="163" y="293" width="692" height="24" fill="#44302A"/>
  <rect x="225" y="341" width="102" height="60" fill="#332721" opacity="0.9"/><rect x="345" y="341" width="102" height="60" fill="#332721" opacity="0.9"/><rect x="465" y="341" width="102" height="60" fill="#332721" opacity="0.9"/><rect x="585" y="341" width="102" height="60" fill="#332721" opacity="0.9"/><rect x="225" y="416" width="102" height="60" fill="#332721" opacity="0.9"/><rect x="345" y="416" width="102" height="60" fill="#332721" opacity="0.9"/><rect x="465" y="416" width="102" height="60" fill="#332721" opacity="0.9"/><rect x="585" y="416" width="102" height="60" fill="#332721" opacity="0.9"/>
  <rect x="433" y="237" width="208" height="50" fill="#BCA173"/>
  <text x="537" y="271" text-anchor="middle" font-size="38" font-family="serif" fill="#17120F">きさらぎ駅</text>
  <rect x="0" y="512" width="1200" height="7" fill="#6F5D4F" fill-opacity="0.56"/>
  <rect x="0" y="562" width="1200" height="5" fill="#8A7562" fill-opacity="0.35"/>
  <rect x="224" y="525" width="14" height="160" fill="#151110" opacity="0.38"/><rect x="398" y="525" width="14" height="171" fill="#151110" opacity="0.38"/><rect x="557" y="525" width="17" height="170" fill="#151110" opacity="0.38"/><rect x="729" y="525" width="16" height="179" fill="#151110" opacity="0.38"/><rect x="877" y="525" width="13" height="153" fill="#151110" opacity="0.38"/><rect x="998" y="525" width="18" height="186" fill="#151110" opacity="0.38"/>
  <ellipse cx="495" cy="424" rx="28" ry="66" fill="#0F0C0B" opacity="0.62"/>
  <ellipse cx="493" cy="388" rx="18" ry="18" fill="#0F0C0B" opacity="0.62"/>
</svg>