<svg width="1200" height="780" viewBox="0 0 1200 780" fill="none" xmlns="http://www.w3.org/2000/svg">
  <defs>
    <linearGradient id="sky" x1="600" y1="0" x2="600" y2="780" gradientUnits="userSpaceOnUse">
      <stop stop-color="#120E0C"/>
      <stop offset="1" stop-color="#2B201B"/>
    </linearGradient>
    <linearGradient id="ground" x1="600" y1="460" x2="600" y2="780" gradientUnits="userSpaceOnUse">
      <stop stop-color="#1E1713"/>
      <stop offset="1" stop-color="#0B0908"/>
    </linearGradient>
  </defs>
  <rect width="1200" height="780" fill="url(#sky)"/>
  <circle cx="319" cy="125" r="65" fill="#D2BC91" fill-opacity="0.08"/>
  <rect y="460" width="1200" height="320" fill="url(#ground)"/>
  <rect x="202" y="299" width="601" height="180" fill="#171210"/>
  <rect x="174" y="279" width="657" height="24" fill="#44302A"/>
  <rect x="236" y="327" width="108" height="52" fill="#332721" opacity="0.9"/><rect x="367" y="327" width="108" height="52" fill="#332721" opacity="0.9"/><rect x="498" y="327" width="108" height="52" fill="#332721" opacity="0.9"/><rect x="629" y="327" width="108" height="52" fill="#332721" opacity="0.9"/><rect x="236" y="398" width="108" height="52" fill="#332721" opacity="0.9"/><rect x="367" y="398" width="108" height="52" fill="#332721" opacity="0.9"/><rect x="498" y="398" width="108" height="52" fill="#332721" opacity="0.9"/><rect x="629" y="398" width="108" height="52" fill="#332721" opacity="0.9"/>
  <rect x="452" y="231" width="237" height="50" fill="#BCA173"/>
  <text x="570" y="265" text-anchor="middle" font-size="38" font-family="serif" fill="#17120F">きさらぎ駅</text>
  <rect x="0" y="512" width="1200" height="7" fill="#6F5D4F" fill-opacity="0.56"/>
  <rect x="0" y="562" width="1200" height="5" fill="#8A7562" fill-opacity="0.35"/>
  <rect x="224" y="525" width="15" height="188" fill="#151110" opacity="0.38"/><rect x="376" y="525" width="12" height="173" fill="#151110" opacity="0.38"/><rect x="514" y="525" width="13" height="165" fill="#151110" opacity="0.38"/><rect x="637" y="525" width="18" height="154" fill="#151110" opacity="0.38"/><rect x="781" y="525" width="15" height="175" fill="#151110" opacity="0.38"/><rect x="924" y="525" width="15" height="188" fill="#151110" opacity="0.38"/>
  <ellipse cx="750" cy="405" rx="28" ry="66" fill="#0F0C0B" opacity="0.62"/>
  <ellipse cx="748" cy="369" rx="18" ry="18" fill="#0F0C0B" opacity="0.62"/>
</svg>