<svg width="1200" height="780" viewBox="0 0 1200 780" fill="none" xmlns="http://www.w3.org/2000/svg">
  <defs>
    <linearGradient id="sky" x1="600" y1="0" x2="600" y2="780" gradientUnits="userSpaceOnUse">
      <stop stop-color="#140F0D"/>
      <stop offset="1" stop-color="#2C201B"/>
    </linearGradient>
    <linearGradient id="ground" x1="600" y1="460" x2="600" y2="780" gradientUnits="userSpaceOnUse">
      <stop stop-color="#1B1512"/>
      <stop offset="1" stop-color="#080707"/>
    </linearGradient>
  </defs>
  <rect width="1200" height="780" fill="url(#sky)"/>
  <circle cx="545" cy="150" r="52" fill="#D2BC91" fill-opacity="0.08"/>
  <rect y="460" width="1200" height="320" fill="url(#ground)"/>
  <rect x="181" y="306" width="725" height="200" fill="#171210"/>
  <rect x="153" y="286" width="781" height="24" fill="#44302A"/>
  <rect x="215" y="334" width="98" height="53" fill="#332721" opacity="0.9"/><rect x="339" y="334" width="98" height="53" fill="#332721" opacity="0.9"/><rect x="463" y="334" width="98" height="53" fill="#332721" opacity="0.9"/><rect x="587" y="334" width="98" height="53" fill="#332721" opacity="0.9"/><rect x="215" y="403" width="98" height="53" fill="#332721" opacity="0.9"/><rect x="339" y="403" width="98" height="53" fill="#332721" opacity="0.9"/><rect x="463" y="403" width="98" height="53" fill="#332721" opacity="0.9"/><rect x="587" y="403" width="98" height="53" fill="#332721" opacity="0.9"/>
  <rect x="365" y="241" width="217" height="50" fill="#BCA173"/>
  <text x="473" y="275" text-anchor="middle" font-size="38" font-family="serif" fill="#17120F">きさらぎ駅</text>
  <rect x="0" y="512" width="1200" height="7" fill="#6F5D4F" fill-opacity="0.56"/>
  <rect x="0" y="562" width="1200" height="5" fill="#8A7562" fill-opacity="0.35"/>
  <rect x="210" y="525" width="14" height="159" fill="#151110" opacity="0.38"/><rect x="337" y="525" width="17" height="188" fill="#151110" opacity="0.38"/><rect x="511" y="525" width="14" height="161" fill="#151110" opacity="0.38"/><rect x="685" y="525" width="16" height="184" fill="#151110" opacity="0.38"/><rect x="812" y="525" width="16" height="156" fill="#151110" opacity="0.38"/><rect x="957" y="525" width="15" height="182" fill="#151110" opacity="0.38"/>
  <ellipse cx="857" cy="413" rx="28" ry="66" fill="#0F0C0B" opacity="0.62"/>
  <ellipse cx="855" cy="377" rx="18" ry="18" fill="#0F0C0B" opacity="0.62"/>
</svg>