<svg width="1200" height="780" viewBox="0 0 1200 780" fill="none" xmlns="http://www.w3.org/2000/svg">
  <defs>
    <linearGradient id="sky" x1="600" y1="0" x2="600" y2="780" gradientUnits="userSpaceOnUse">
      <stop stop-color="#18120F"/>
      <stop offset="1" stop-color="#2B201B"/>
    </linearGradient>
    <linearGradient id="ground" x1="600" y1="460" x2="600" y2="780" gradientUnits="userSpaceOnUse">
      <stop stop-color="#1B1512"/>
      <stop offset="1" stop-color="#090807"/>
    </linearGradient>
  </defs>
  <rect width="1200" height="780" fill="url(#sky)"/>
  <circle cx="906" cy="168" r="45" fill="#D2BC91" fill-opacity="0.08"/>
  <rect y="460" width="1200" height="320" fill="url(#ground)"/>
  <rect x="233" y="290" width="696" height="179" fill="#171210"/>
  <rect x="205" y="270" width="752" height="24" fill="#44302A"/>
  <rect x="267" y="318" width="100" height="52" fill="#332721" opacity="0.9"/><rect x="390" y="318" width="100" height="52" fill="#332721" opacity="0.9"/><rect x="513" y="318" width="100" height="52" fill="#332721" opacity="0.9"/><rect x="636" y="318" width="100" height="52" fill="#332721" opacity="0.9"/><rect x="267" y="390" width="100" height="52" fill="#332721" opacity="0.9"/><rect x="390" y="390" width="100" height="52" fill="#332721" opacity="0.9"/><rect x="513" y="390" width="100" height="52" fill="#332721" opacity="0.9"/><rect x="636" y="390" width="100" height="52" fill="#332721" opacity="0.9"/>
  <rect x="462" y="224" width="196" height="50" fill="#BCA173"/>
  <text x="560" y="258" text-anchor="middle" font-size="38" font-family="serif" fill="#17120F">きさらぎ駅</text>
  <rect x="0" y="512" width="1200" height="7" fill="#6F5D4F" fill-opacity="0.56"/>
  <rect x="0" y="562" width="1200" height="5" fill="#8A7562" fill-opacity="0.35"/>
  <rect x="242" y="525" width="13" height="163" fill="#151110" opacity="0.38"/><rect x="390" y="525" width="14" height="151" fill="#151110" opacity="0.38"/><rect x="537" y="525" width="14" height="175" fill="#151110" opacity="0.38"/><rect x="696" y="525" width="17" height="151" fill="#151110" opacity="0.38"/><rect x="847" y="525" width="12" height="153" fill="#151110" opacity="0.38"/><rect x="986" y="525" width="17" height="164" fill="#151110" opacity="0.38"/>
  <ellipse cx="747" cy="425" rx="28" ry="66" fill="#0F0C0B" opacity="0.62"/>
  <ellipse cx="745" cy="389" rx="18" ry="18" fill="#0F0C0B" opacity="0.62"/>
</svg>