<svg width="1200" height="780" viewBox="0 0 1200 780" fill="none" xmlns="http://www.w3.org/2000/svg">
  <defs>
    <linearGradient id="sky" x1="600" y1="0" x2="600" y2="780" gradientUnits="userSpaceOnUse">
      <stop stop-color="#100D0C"/>
      <stop offset="1" stop-color="#352722"/>
    </linearGradient>
    <linearGradient id="ground" x1="600" y1="460" x2="600" y2="780" gradientUnits="userSpaceOnUse">
      <stop stop-color="#1B1512"/>
      <stop offset="1" stop-color="#080707"/>
    </linearGradient>
  </defs>
  <rect width="1200" height="780" fill="url(#sky)"/>
  <circle cx="291" cy="117" r="49" fill="#D2BC91" fill-opacity="0.08"/>
  <rect y="460" width="1200" height="320" fill="url(#ground)"/>
  <rect x="237" y="305" width="698" height="190" fill="#171210"/>
  <rect x="209" y="285" width="754" height="24" fill="#44302A"/>
  <rect x="271" y="333" width="114" height="52" fill="#332721" opacity="0.9"/><rect x="410" y="333" width="114" height="52" fill="#332721" opacity="0.9"/><rect x="549" y="333" width="114" height="52" fill="#332721" opacity="0.9"/><rect x="688" y="333" width="114" height="52" fill="#332721" opacity="0.9"/><rect x="271" y="407" width="114" height="52" fill="#332721" opacity="0.9"/><rect x="410" y="407" width="114" height="52" fill="#332721" opacity="0.9"/><rect x="549" y="407" width="114" height="52" fill="#332721" opacity="0.9"/><rect x="688" y="407" width="114" height="52" fill="#332721" opacity="0.9"/>
  <rect x="443" y="234" width="207" height="50" fill="#BCA173"/>
  <text x="546" y="268" text-anchor="middle" font-size="38" font-family="serif" fill="#17120F">きさらぎ駅</text>
  <rect x="0" y="512" width="1200" height="7" fill="#6F5D4F" fill-opacity="0.56"/>
  <rect x="0" y="562" width="1200" height="5" fill="#8A7562" fill-opacity="0.35"/>
  <rect x="194" y="525" width="13" height="165" fill="#151110" opacity="0.38"/><rect x="339" y="525" width="12" height="188" fill="#151110" opacity="0.38"/><rect x="500" y="525" width="18" height="150" fill="#151110" opacity="0.38"/><rect x="638" y="525" width="16" height="177" fill="#151110" opacity="0.38"/><rect x="810" y="525" width="12" height="182" fill="#151110" opacity="0.38"/><rect x="970" y="525" width="12" height="180" fill="#151110" opacity="0.38"/>
  <ellipse cx="693" cy="429" rx="28" ry="66" fill="#0F0C0B" opacity="0.62"/>
  <ellipse cx="691" cy="393" rx="18" ry="18" fill="#0F0C0B" opacity="0.62"/>
</svg>