<svg width="1200" height="780" viewBox="0 0 1200 780" fill="none" xmlns="http://www.w3.org/2000/svg">
  <defs>
    <linearGradient id="sky" x1="600" y1="0" x2="600" y2="780" gradientUnits="userSpaceOnUse">
      <stop stop-color="#140F0D"/>
      <stop offset="1" stop-color="#30241F"/>
    </linearGradient>
    <linearGradient id="ground" x1="600" y1="460" x2="600" y2="780" gradientUnits="userSpaceOnUse">
      <stop stop-color="#221A16"/>
      <stop offset="1" stop-color="#090807"/>
    </linearGradient>
  </defs>
  <rect width="1200" height="780" fill="url(#sky)"/>
  <circle cx="780" cy="147" r="64" fill="#D2BC91" fill-opacity="0.08"/>
  <rect y="460" width="1200" height="320" fill="url(#ground)"/>
  <rect x="193" y="307" width="647" height="203" fill="#171210"/>
  <rect x="165" y="287" width="703" height="24" fill="#44302A"/>
  <rect x="227" y="335" width="91" height="57" fill="#332721" opacity="0.9"/><rect x="339" y="335" width="91" height="57" fill="#332721" opacity="0.9"/><rect x="451" y="335" width="91" height="57" fill="#332721" opacity="0.9"/><rect x="563" y="335" width="91" height="57" fill="#332721" opacity="0.9"/><rect x="227" y="412" width="91" height="57" fill="#332721" opacity="0.9"/><rect x="339" y="412" width="91" height="57" fill="#332721" opacity="0.9"/><rect x="451" y="412" width="91" height="57" fill="#332721" opacity="0.9"/><rect x="563" y="412" width="91" height="57" fill="#332721" opacity="0.9"/>
  <rect x="436" y="231" width="225" height="50" fill="#BCA173"/>
  <text x="548" y="265" text-anchor="middle" font-size="38" font-family="serif" fill="#17120F">きさらぎ駅</text>
  <rect x="0" y="512" width="1200" height="7" fill="#6F5D4F" fill-opacity="0.56"/>
  <rect x="0" y="562" width="1200" height="5" fill="#8A7562" fill-opacity="0.35"/>
  <rect x="230" y="525" width="16" height="163" fill="#151110" opacity="0.38"/><rect x="350" y="525" width="18" height="153" fill="#151110" opacity="0.38"/><rect x="471" y="525" width="13" height="180" fill="#151110" opacity="0.38"/><rect x="632" y="525" width="14" height="190" fill="#151110" opacity="0.38"/><rect x="777" y="525" width="15" height="187" fill="#151110" opacity="0.38"/><rect x="936" y="525" width="12" height="188" fill="#151110" opacity="0.38"/>
  <ellipse cx="634" cy="403" rx="28" ry="66" fill="#0F0C0B" opacity="0.62"/>
  <ellipse cx="632" cy="367" rx="18" ry="18" fill="#0F0C0B" opacity="0.62"/>
</svg>