<svg width="1200" height="780" viewBox="0 0 1200 780" fill="none" xmlns="http://www.w3.org/2000/svg">
  <defs>
    <linearGradient id="sky" x1="600" y1="0" x2="600" y2="780" gradientUnits="userSpaceOnUse">
      <stop stop-color="#140F0D"/>
      <stop offset="1" stop-color="#30241F"/>
    </linearGradient>
    <linearGradient id="ground" x1="600" y1="460" x2="600" y2="780" gradientUnits="userSpaceOnUse">
      <stop stop-color="#221A16"/>
      <stop offset="1" stop-color="#080707"/>
    </linearGradient>
  </defs>
  <rect width="1200" height="780" fill="url(#sky)"/>
  <circle cx="321" cy="158" r="51" fill="#D2BC91" fill-opacity="0.08"/>
  <rect y="460" width="1200" height="320" fill="url(#ground)"/>
  <rect x="267" y="301" width="621" height="185" fill="#171210"/>
  <rect x="239" y="281" width="677" height="24" fill="#44302A"/>
  <rect x="301" y="329" width="91" height="53" fill="#332721" opacity="0.9"/><rect x="415" y="329" width="91" height="53" fill="#332721" opacity="0.9"/><rect x="529" y="329" width="91" height="53" fill="#332721" opacity="0.9"/><rect x="643" y="329" width="91" height="53" fill="#332721" opacity="0.9"/><rect x="301" y="396" width="91" height="53" fill="#332721" opacity="0.9"/><rect x="415" y="396" width="91" height="53" fill="#332721" opacity="0.9"/><rect x="529" y="396" width="91" height="53" fill="#332721" opacity="0.9"/><rect x="643" y="396" width="91" height="53" fill="#332721" opacity="0.9"/>
  <rect x="445" y="237" width="229" height="50" fill="#BCA173"/>
  <text x="559" y="271" text-anchor="middle" font-size="38" font-family="serif" fill="#17120F">きさらぎ駅</text>
  <rect x="0" y="512" width="1200" height="7" fill="#6F5D4F" fill-opacity="0.56"/>
  <rect x="0" y="562" width="1200" height="5" fill="#8A7562" fill-opacity="0.35"/>
  <rect x="211" y="525" width="15" height="162" fill="#151110" opacity="0.38"/><rect x="360" y="525" width="17" height="182" fill="#151110" opacity="0.38"/><rect x="528" y="525" width="13" height="155" fill="#151110" opacity="0.38"/><rect x="680" y="525" width="15" height="158" fill="#151110" opacity="0.38"/><rect x="828" y="525" width="15" height="190" fill="#151110" opacity="0.38"/><rect x="970" y="525" width="12" height="182" fill="#151110" opacity="0.38"/>
  <ellipse cx="665" cy="420" rx="28" ry="66" fill="#0F0C0B" opacity="0.62"/>
  <ellipse cx="663" cy="384" rx="18" ry="18" fill="#0F0C0B" opacity="0.62"/>
</svg>