<svg width="1200" height="780" viewBox="0 0 1200 780" fill="none" xmlns="http://www.w3.org/2000/svg">
  <defs>
    <linearGradient id="sky" x1="600" y1="0" x2="600" y2="780" gradientUnits="userSpaceOnUse">
      <stop stop-color="#100D0C"/>
      <stop offset="1" stop-color="#352722"/>
    </linearGradient>
    <linearGradient id="ground" x1="600" y1="460" x2="600" y2="780" gradientUnits="userSpaceOnUse">
      <stop stop-color="#1B1512"/>
      <stop offset="1" stop-color="#0B0908"/>
    </linearGradient>
  </defs>
  <rect width="1200" height="780" fill="url(#sky)"/>
  <circle cx="414" cy="155" r="69" fill="#D2BC91" fill-opacity="0.08"/>
  <rect y="460" width="1200" height="320" fill="url(#ground)"/>
  <rect x="295" y="293" width="625" height="200" fill="#171210"/>
  <rect x="267" y="273" width="681" height="24" fill="#44302A"/>
  <rect x="329" y="321" width="88" height="56" fill="#332721" opacity="0.9"/><rect x="437" y="321" width="88" height="56" fill="#332721" opacity="0.9"/><rect x="545" y="321" width="88" height="56" fill="#332721" opacity="0.9"/><rect x="653" y="321" width="88" height="56" fill="#332721" opacity="0.9"/><rect x="329" y="396" width="88" height="56" fill="#332721" opacity="0.9"/><rect x="437" y="396" width="88" height="56" fill="#332721" opacity="0.9"/><rect x="545" y="396" width="88" height="56" fill="#332721" opacity="0.9"/><rect x="653" y="396" width="88" height="56" fill="#332721" opacity="0.9"/>
  <rect x="465" y="229" width="230" height="50" fill="#BCA173"/>
  <text x="580" y="263" text-anchor="middle" font-size="38" font-family="serif" fill="#17120F">きさらぎ駅</text>
  <rect x="0" y="512" width="1200" height="7" fill="#6F5D4F" fill-opacity="0.56"/>
  <rect x="0" y="562" width="1200" height="5" fill="#8A7562" fill-opacity="0.35"/>
  <rect x="212" y="525" width="18" height="156" fill="#151110" opacity="0.38"/><rect x="363" y="525" width="18" height="188" fill="#151110" opacity="0.38"/><rect x="497" y="525" width="16" height="155" fill="#151110" opacity="0.38"/><rect x="629" y="525" width="18" height="168" fill="#151110" opacity="0.38"/><rect x="801" y="525" width="12" height="169" fill="#151110" opacity="0.38"/><rect x="928" y="525" width="15" height="151" fill="#151110" opacity="0.38"/>
  <ellipse cx="877" cy="417" rx="28" ry="66" fill="#0F0C0B" opacity="0.62"/>
  <ellipse cx="875" cy="381" rx="18" ry="18" fill="#0F0C0B" opacity="0.62"/>
</svg>