<svg width="1200" height="780" viewBox="0 0 1200 780" fill="none" xmlns="http://www.w3.org/2000/svg">
  <defs>
    <linearGradient id="sky" x1="600" y1="0" x2="600" y2="780" gradientUnits="userSpaceOnUse">
      <stop stop-color="#120E0C"/>
      <stop offset="1" stop-color="#352722"/>
    </linearGradient>
    <linearGradient id="ground" x1="600" y1="460" x2="600" y2="780" gradientUnits="userSpaceOnUse">
      <stop stop-color="#221A16"/>
      <stop offset="1" stop-color="#080707"/>
    </linearGradient>
  </defs>
  <rect width="1200" height="780" fill="url(#sky)"/>
  <circle cx="887" cy="118" r="57" fill="#D2BC91" fill-opacity="0.08"/>
  <rect y="460" width="1200" height="320" fill="url(#ground)"/>
  <rect x="216" y="289" width="644" height="181" fill="#171210"/>
  <rect x="188" y="269" width="700" height="24" fill="#44302A"/>
  <rect x="250" y="317" width="106" height="45" fill="#332721" opacity="0.9"/><rect x="381" y="317" width="106" height="45" fill="#332721" opacity="0.9"/><rect x="512" y="317" width="106" height="45" fill="#332721" opacity="0.9"/><rect x="643" y="317" width="106" height="45" fill="#332721" opacity="0.9"/><rect x="250" y="376" width="106" height="45" fill="#332721" opacity="0.9"/><rect x="381" y="376" width="106" height="45" fill="#332721" opacity="0.9"/><rect x="512" y="376" width="106" height="45" fill="#332721" opacity="0.9"/><rect x="643" y="376" width="106" height="45" fill="#332721" opacity="0.9"/>
  <rect x="451" y="212" width="190" height="50" fill="#BCA173"/>
  <text x="546" y="246" text-anchor="middle" font-size="38" font-family="serif" fill="#17120F">きさらぎ駅</text>
  <rect x="0" y="512" width="1200" height="7" fill="#6F5D4F" fill-opacity="0.56"/>
  <rect x="0" y="562" width="1200" height="5" fill="#8A7562" fill-opacity="0.35"/>
  <rect x="193" y="525" width="16" height="152" fill="#151110" opacity="0.38"/><rect x="364" y="525" width="15" height="167" fill="#151110" opacity="0.38"/><rect x="540" y="525" width="18" height="162" fill="#151110" opacity="0.38"/><rect x="701" y="525" width="16" height="156" fill="#151110" opacity="0.38"/><rect x="835" y="525" width="12" height="161" fill="#151110" opacity="0.38"/><rect x="980" y="525" width="18" height="176" fill="#151110" opacity="0.38"/>
  <ellipse cx="486" cy="416" rx="28" ry="66" fill="#0F0C0B" opacity="0.62"/>
  <ellipse cx="484" cy="380" rx="18" ry="18" fill="#0F0C0B" opacity="0.62"/>
</svg>