<svg width="1200" height="780" viewBox="0 0 1200 780" fill="none" xmlns="http://www.w3.org/2000/svg">
  <defs>
    <linearGradient id="sky" x1="600" y1="0" x2="600" y2="780" gradientUnits="userSpaceOnUse">
      <stop stop-color="#120E0C"/>
      <stop offset="1" stop-color="#2B201B"/>
    </linearGradient>
    <linearGradient id="ground" x1="600" y1="460" x2="600" y2="780" gradientUnits="userSpaceOnUse">
      <stop stop-color="#1B1512"/>
      <stop offset="1" stop-color="#090807"/>
    </linearGradient>
  </defs>
  <rect width="1200" height="780" fill="url(#sky)"/>
  <circle cx="947" cy="145" r="48" fill="#D2BC91" fill-opacity="0.08"/>
  <rect y="460" width="1200" height="320" fill="url(#ground)"/>
  <rect x="286" y="288" width="672" height="192" fill="#171210"/>
  <rect x="258" y="268" width="728" height="24" fill="#44302A"/>
  <rect x="320" y="316" width="112" height="46" fill="#332721" opacity="0.9"/><rect x="453" y="316" width="112" height="46" fill="#332721" opacity="0.9"/><rect x="586" y="316" width="112" height="46" fill="#332721" opacity="0.9"/><rect x="719" y="316" width="112" height="46" fill="#332721" opacity="0.9"/><rect x="320" y="378" width="112" height="46" fill="#332721" opacity="0.9"/><rect x="453" y="378" width="112" height="46" fill="#332721" opacity="0.9"/><rect x="586" y="378" width="112" height="46" fill="#332721" opacity="0.9"/><rect x="719" y="378" width="112" height="46" fill="#332721" opacity="0.9"/>
  <rect x="484" y="215" width="246" height="50" fill="#BCA173"/>
  <text x="607" y="249" text-anchor="middle" font-size="38" font-family="serif" fill="#17120F">きさらぎ駅</text>
  <rect x="0" y="512" width="1200" height="7" fill="#6F5D4F" fill-opacity="0.56"/>
  <rect x="0" y="562" width="1200" height="5" fill="#8A7562" fill-opacity="0.35"/>
  <rect x="235" y="525" width="18" height="151" fill="#151110" opacity="0.38"/><rect x="398" y="525" width="18" height="171" fill="#151110" opacity="0.38"/><rect x="573" y="525" width="13" height="154" fill="#151110" opacity="0.38"/><rect x="720" y="525" width="13" height="172" fill="#151110" opacity="0.38"/><rect x="860" y="525" width="18" height="177" fill="#151110" opacity="0.38"/><rect x="1026" y="525" width="17" height="150" fill="#151110" opacity="0.38"/>
  <ellipse cx="241" cy="424" rx="28" ry="66" fill="#0F0C0B" opacity="0.62"/>
  <ellipse cx="239" cy="388" rx="18" ry="18" fill="#0F0C0B" opacity="0.62"/>
</svg>