<svg width="1200" height="780" viewBox="0 0 1200 780" fill="none" xmlns="http://www.w3.org/2000/svg">
  <defs>
    <linearGradient id="sky" x1="600" y1="0" x2="600" y2="780" gradientUnits="userSpaceOnUse">
      <stop stop-color="#120E0C"/>
      <stop offset="1" stop-color="#352722"/>
    </linearGradient>
    <linearGradient id="ground" x1="600" y1="460" x2="600" y2="780" gradientUnits="userSpaceOnUse">
      <stop stop-color="#1E1713"/>
      <stop offset="1" stop-color="#0B0908"/>
    </linearGradient>
  </defs>
  <rect width="1200" height="780" fill="url(#sky)"/>
  <circle cx="863" cy="105" r="74" fill="#D2BC91" fill-opacity="0.08"/>
  <rect y="460" width="1200" height="320" fill="url(#ground)"/>
  <rect x="190" y="286" width="752" height="202" fill="#171210"/>
  <rect x="162" y="266" width="808" height="24" fill="#44302A"/>
  <rect x="224" y="314" width="111" height="45" fill="#332721" opacity="0.9"/><rect x="362" y="314" width="111" height="45" fill="#332721" opacity="0.9"/><rect x="500" y="314" width="111" height="45" fill="#332721" opacity="0.9"/><rect x="638" y="314" width="111" height="45" fill="#332721" opacity="0.9"/><rect x="224" y="380" width="111" height="45" fill="#332721" opacity="0.9"/><rect x="362" y="380" width="111" height="45" fill="#332721" opacity="0.9"/><rect x="500" y="380" width="111" height="45" fill="#332721" opacity="0.9"/><rect x="638" y="380" width="111" height="45" fill="#332721" opacity="0.9"/>
  <rect x="425" y="211" width="230" height="50" fill="#BCA173"/>
  <text x="540" y="245" text-anchor="middle" font-size="38" font-family="serif" fill="#17120F">きさらぎ駅</text>
  <rect x="0" y="512" width="1200" height="7" fill="#6F5D4F" fill-opacity="0.56"/>
  <rect x="0" y="562" width="1200" height="5" fill="#8A7562" fill-opacity="0.35"/>
  <rect x="226" y="525" width="13" height="169" fill="#151110" opacity="0.38"/><rect x="390" y="525" width="18" height="154" fill="#151110" opacity="0.38"/><rect x="549" y="525" width="17" height="165" fill="#151110" opacity="0.38"/><rect x="697" y="525" width="12" height="183" fill="#151110" opacity="0.38"/><rect x="838" y="525" width="18" height="159" fill="#151110" opacity="0.38"/><rect x="987" y="525" width="16" height="187" fill="#151110" opacity="0.38"/>
  <ellipse cx="248" cy="396" rx="28" ry="66" fill="#0F0C0B" opacity="0.62"/>
  <ellipse cx="246" cy="360" rx="18" ry="18" fill="#0F0C0B" opacity="0.62"/>
</svg>