<svg width="1200" height="780" viewBox="0 0 1200 780" fill="none" xmlns="http://www.w3.org/2000/svg">
  <defs>
    <linearGradient id="sky" x1="600" y1="0" x2="600" y2="780" gradientUnits="userSpaceOnUse">
      <stop stop-color="#140F0D"/>
      <stop offset="1" stop-color="#2C201B"/>
    </linearGradient>
    <linearGradient id="ground" x1="600" y1="460" x2="600" y2="780" gradientUnits="userSpaceOnUse">
      <stop stop-color="#1B1512"/>
      <stop offset="1" stop-color="#0B0908"/>
    </linearGradient>
  </defs>
  <rect width="1200" height="780" fill="url(#sky)"/>
  <circle cx="366" cy="142" r="59" fill="#D2BC91" fill-opacity="0.08"/>
  <rect y="460" width="1200" height="320" fill="url(#ground)"/>
  <rect x="290" y="293" width="755" height="189" fill="#171210"/>
  <rect x="262" y="273" width="811" height="24" fill="#44302A"/>
  <rect x="324" y="321" width="114" height="45" fill="#332721" opacity="0.9"/><rect x="460" y="321" width="114" height="45" fill="#332721" opacity="0.9"/><rect x="596" y="321" width="114" height="45" fill="#332721" opacity="0.9"/><rect x="732" y="321" width="114" height="45" fill="#332721" opacity="0.9"/><rect x="324" y="384" width="114" height="45" fill="#332721" opacity="0.9"/><rect x="460" y="384" width="114" height="45" fill="#332721" opacity="0.9"/><rect x="596" y="384" width="114" height="45" fill="#332721" opacity="0.9"/><rect x="732" y="384" width="114" height="45" fill="#332721" opacity="0.9"/>
  <rect x="483" y="228" width="195" height="50" fill="#BCA173"/>
  <text x="580" y="262" text-anchor="middle" font-size="38" font-family="serif" fill="#17120F">きさらぎ駅</text>
  <rect x="0" y="512" width="1200" height="7" fill="#6F5D4F" fill-opacity="0.56"/>
  <rect x="0" y="562" width="1200" height="5" fill="#8A7562" fill-opacity="0.35"/>
  <rect x="233" y="525" width="12" height="174" fill="#151110" opacity="0.38"/><rect x="368" y="525" width="16" height="189" fill="#151110" opacity="0.38"/><rect x="548" y="525" width="12" height="164" fill="#151110" opacity="0.38"/><rect x="726" y="525" width="16" height="158" fill="#151110" opacity="0.38"/><rect x="888" y="525" width="16" height="158" fill="#151110" opacity="0.38"/><rect x="1057" y="525" width="17" height="152" fill="#151110" opacity="0.38"/>
  <ellipse cx="339" cy="429" rx="28" ry="66" fill="#0F0C0B" opacity="0.62"/>
  <ellipse cx="337" cy="393" rx="18" ry="18" fill="#0F0C0B" opacity="0.62"/>
</svg>