<svg width="1200" height="780" viewBox="0 0 1200 780" fill="none" xmlns="http://www.w3.org/2000/svg">
  <defs>
    <linearGradient id="sky" x1="600" y1="0" x2="600" y2="780" gradientUnits="userSpaceOnUse">
      <stop stop-color="#18120F"/>
      <stop offset="1" stop-color="#2B201B"/>
    </linearGradient>
    <linearGradient id="ground" x1="600" y1="460" x2="600" y2="780" gradientUnits="userSpaceOnUse">
      <stop stop-color="#1E1713"/>
      <stop offset="1" stop-color="#080707"/>
    </linearGradient>
  </defs>
  <rect width="1200" height="780" fill="url(#sky)"/>
  <circle cx="788" cy="152" r="56" fill="#D2BC91" fill-opacity="0.08"/>
  <rect y="460" width="1200" height="320" fill="url(#ground)"/>
  <rect x="183" y="295" width="711" height="182" fill="#171210"/>
  <rect x="155" y="275" width="767" height="24" fill="#44302A"/>
  <rect x="217" y="323" width="104" height="57" fill="#332721" opacity="0.9"/><rect x="345" y="323" width="104" height="57" fill="#332721" opacity="0.9"/><rect x="473" y="323" width="104" height="57" fill="#332721" opacity="0.9"/><rect x="601" y="323" width="104" height="57" fill="#332721" opacity="0.9"/><rect x="217" y="398" width="104" height="57" fill="#332721" opacity="0.9"/><rect x="345" y="398" width="104" height="57" fill="#332721" opacity="0.9"/><rect x="473" y="398" width="104" height="57" fill="#332721" opacity="0.9"/><rect x="601" y="398" width="104" height="57" fill="#332721" opacity="0.9"/>
  <rect x="364" y="231" width="218" height="50" fill="#BCA173"/>
  <text x="473" y="265" text-anchor="middle" font-size="38" font-family="serif" fill="#17120F">きさらぎ駅</text>
  <rect x="0" y="512" width="1200" height="7" fill="#6F5D4F" fill-opacity="0.56"/>
  <rect x="0" y="562" width="1200" height="5" fill="#8A7562" fill-opacity="0.35"/>
  <rect x="236" y="525" width="13" height="158" fill="#151110" opacity="0.38"/><rect x="363" y="525" width="13" height="175" fill="#151110" opacity="0.38"/><rect x="525" y="525" width="13" height="159" fill="#151110" opacity="0.38"/><rect x="701" y="525" width="14" height="166" fill="#151110" opacity="0.38"/><rect x="869" y="525" width="13" height="175" fill="#151110" opacity="0.38"/><rect x="998" y="525" width="16" height="159" fill="#151110" opacity="0.38"/>
  <ellipse cx="940" cy="399" rx="28" ry="66" fill="#0F0C0B" opacity="0.62"/>
  <ellipse cx="938" cy="363" rx="18" ry="18" fill="#0F0C0B" opacity="0.62"/>
</svg>