<svg width="1200" height="780" viewBox="0 0 1200 780" fill="none" xmlns="http://www.w3.org/2000/svg">
  <defs>
    <linearGradient id="sky" x1="600" y1="0" x2="600" y2="780" gradientUnits="userSpaceOnUse">
      <stop stop-color="#100D0C"/>
      <stop offset="1" stop-color="#2C201B"/>
    </linearGradient>
    <linearGradient id="ground" x1="600" y1="460" x2="600" y2="780" gradientUnits="userSpaceOnUse">
      <stop stop-color="#1B1512"/>
      <stop offset="1" stop-color="#080707"/>
    </linearGradient>
  </defs>
  <rect width="1200" height="780" fill="url(#sky)"/>
  <circle cx="594" cy="96" r="51" fill="#D2BC91" fill-opacity="0.08"/>
  <rect y="460" width="1200" height="320" fill="url(#ground)"/>
  <rect x="201" y="294" width="677" height="181" fill="#171210"/>
  <rect x="173" y="274" width="733" height="24" fill="#44302A"/>
  <rect x="235" y="322" width="93" height="54" fill="#332721" opacity="0.9"/><rect x="348" y="322" width="93" height="54" fill="#332721" opacity="0.9"/><rect x="461" y="322" width="93" height="54" fill="#332721" opacity="0.9"/><rect x="574" y="322" width="93" height="54" fill="#332721" opacity="0.9"/><rect x="235" y="394" width="93" height="54" fill="#332721" opacity="0.9"/><rect x="348" y="394" width="93" height="54" fill="#332721" opacity="0.9"/><rect x="461" y="394" width="93" height="54" fill="#332721" opacity="0.9"/><rect x="574" y="394" width="93" height="54" fill="#332721" opacity="0.9"/>
  <rect x="447" y="216" width="211" height="50" fill="#BCA173"/>
  <text x="552" y="250" text-anchor="middle" font-size="38" font-family="serif" fill="#17120F">きさらぎ駅</text>
  <rect x="0" y="512" width="1200" height="7" fill="#6F5D4F" fill-opacity="0.56"/>
  <rect x="0" y="562" width="1200" height="5" fill="#8A7562" fill-opacity="0.35"/>
  <rect x="245" y="525" width="14" height="165" fill="#151110" opacity="0.38"/><rect x="418" y="525" width="14" height="158" fill="#151110" opacity="0.38"/><rect x="589" y="525" width="15" height="157" fill="#151110" opacity="0.38"/><rect x="762" y="525" width="13" height="178" fill="#151110" opacity="0.38"/><rect x="893" y="525" width="14" height="151" fill="#151110" opacity="0.38"/><rect x="1040" y="525" width="17" height="168" fill="#151110" opacity="0.38"/>
  <ellipse cx="487" cy="427" rx="28" ry="66" fill="#0F0C0B" opacity="0.62"/>
  <ellipse cx="485" cy="391" rx="18" ry="18" fill="#0F0C0B" opacity="0.62"/>
</svg>