<svg width="1200" height="780" viewBox="0 0 1200 780" fill="none" xmlns="http://www.w3.org/2000/svg">
  <defs>
    <linearGradient id="sky" x1="600" y1="0" x2="600" y2="780" gradientUnits="userSpaceOnUse">
      <stop stop-color="#140F0D"/>
      <stop offset="1" stop-color="#30241F"/>
    </linearGradient>
    <linearGradient id="ground" x1="600" y1="460" x2="600" y2="780" gradientUnits="userSpaceOnUse">
      <stop stop-color="#221A16"/>
      <stop offset="1" stop-color="#080707"/>
    </linearGradient>
  </defs>
  <rect width="1200" height="780" fill="url(#sky)"/>
  <circle cx="973" cy="109" r="51" fill="#D2BC91" fill-opacity="0.08"/>
  <rect y="460" width="1200" height="320" fill="url(#ground)"/>
  <rect x="256" y="294" width="745" height="176" fill="#171210"/>
  <rect x="228" y="274" width="801" height="24" fill="#44302A"/>
  <rect x="290" y="322" width="90" height="48" fill="#332721" opacity="0.9"/><rect x="399" y="322" width="90" height="48" fill="#332721" opacity="0.9"/><rect x="508" y="322" width="90" height="48" fill="#332721" opacity="0.9"/><rect x="617" y="322" width="90" height="48" fill="#332721" opacity="0.9"/><rect x="290" y="392" width="90" height="48" fill="#332721" opacity="0.9"/><rect x="399" y="392" width="90" height="48" fill="#332721" opacity="0.9"/><rect x="508" y="392" width="90" height="48" fill="#332721" opacity="0.9"/><rect x="617" y="392" width="90" height="48" fill="#332721" opacity="0.9"/>
  <rect x="464" y="222" width="199" height="50" fill="#BCA173"/>
  <text x="563" y="256" text-anchor="middle" font-size="38" font-family="serif" fill="#17120F">きさらぎ駅</text>
  <rect x="0" y="512" width="1200" height="7" fill="#6F5D4F" fill-opacity="0.56"/>
  <rect x="0" y="562" width="1200" height="5" fill="#8A7562" fill-opacity="0.35"/>
  <rect x="250" y="525" width="15" height="150" fill="#151110" opacity="0.38"/><rect x="417" y="525" width="13" height="152" fill="#151110" opacity="0.38"/><rect x="578" y="525" width="14" height="182" fill="#151110" opacity="0.38"/><rect x="705" y="525" width="13" height="190" fill="#151110" opacity="0.38"/><rect x="841" y="525" width="18" height="152" fill="#151110" opacity="0.38"/><rect x="1001" y="525" width="17" height="175" fill="#151110" opacity="0.38"/>
  <ellipse cx="393" cy="417" rx="28" ry="66" fill="#0F0C0B" opacity="0.62"/>
  <ellipse cx="391" cy="381" rx="18" ry="18" fill="#0F0C0B" opacity="0.62"/>
</svg>