<svg width="1200" height="780" viewBox="0 0 1200 780" fill="none" xmlns="http://www.w3.org/2000/svg">
  <defs>
    <linearGradient id="sky" x1="600" y1="0" x2="600" y2="780" gradientUnits="userSpaceOnUse">
      <stop stop-color="#100D0C"/>
      <stop offset="1" stop-color="#352722"/>
    </linearGradient>
    <linearGradient id="ground" x1="600" y1="460" x2="600" y2="780" gradientUnits="userSpaceOnUse">
      <stop stop-color="#221A16"/>
      <stop offset="1" stop-color="#0B0908"/>
    </linearGradient>
  </defs>
  <rect width="1200" height="780" fill="url(#sky)"/>
  <circle cx="659" cy="164" r="66" fill="#D2BC91" fill-opacity="0.08"/>
  <rect y="460" width="1200" height="320" fill="url(#ground)"/>
  <rect x="184" y="289" width="722" height="189" fill="#171210"/>
  <rect x="156" y="269" width="778" height="24" fill="#44302A"/>
  <rect x="218" y="317" width="92" height="54" fill="#332721" opacity="0.9"/><rect x="337" y="317" width="92" height="54" fill="#332721" opacity="0.9"/><rect x="456" y="317" width="92" height="54" fill="#332721" opacity="0.9"/><rect x="575" y="317" width="92" height="54" fill="#332721" opacity="0.9"/><rect x="218" y="385" width="92" height="54" fill="#332721" opacity="0.9"/><rect x="337" y="385" width="92" height="54" fill="#332721" opacity="0.9"/><rect x="456" y="385" width="92" height="54" fill="#332721" opacity="0.9"/><rect x="575" y="385" width="92" height="54" fill="#332721" opacity="0.9"/>
  <rect x="366" y="225" width="236" height="50" fill="#BCA173"/>
  <text x="484" y="259" text-anchor="middle" font-size="38" font-family="serif" fill="#17120F">きさらぎ駅</text>
  <rect x="0" y="512" width="1200" height="7" fill="#6F5D4F" fill-opacity="0.56"/>
  <rect x="0" y="562" width="1200" height="5" fill="#8A7562" fill-opacity="0.35"/>
  <rect x="242" y="525" width="15" height="161" fill="#151110" opacity="0.38"/><rect x="375" y="525" width="16" height="157" fill="#151110" opacity="0.38"/><rect x="498" y="525" width="15" height="169" fill="#151110" opacity="0.38"/><rect x="664" y="525" width="12" height="176" fill="#151110" opacity="0.38"/><rect x="829" y="525" width="15" height="168" fill="#151110" opacity="0.38"/><rect x="996" y="525" width="18" height="161" fill="#151110" opacity="0.38"/>
  <ellipse cx="338" cy="419" rx="28" ry="66" fill="#0F0C0B" opacity="0.62"/>
  <ellipse cx="336" cy="383" rx="18" ry="18" fill="#0F0C0B" opacity="0.62"/>
</svg>