<svg width="1200" height="780" viewBox="0 0 1200 780" fill="none" xmlns="http://www.w3.org/2000/svg">
  <defs>
    <linearGradient id="sky" x1="600" y1="0" x2="600" y2="780" gradientUnits="userSpaceOnUse">
      <stop stop-color="#120E0C"/>
      <stop offset="1" stop-color="#352722"/>
    </linearGradient>
    <linearGradient id="ground" x1="600" y1="460" x2="600" y2="780" gradientUnits="userSpaceOnUse">
      <stop stop-color="#221A16"/>
      <stop offset="1" stop-color="#080707"/>
    </linearGradient>
  </defs>
  <rect width="1200" height="780" fill="url(#sky)"/>
  <circle cx="406" cy="150" r="44" fill="#D2BC91" fill-opacity="0.08"/>
  <rect y="460" width="1200" height="320" fill="url(#ground)"/>
  <rect x="185" y="305" width="721" height="180" fill="#171210"/>
  <rect x="157" y="285" width="777" height="24" fill="#44302A"/>
  <rect x="219" y="333" width="110" height="55" fill="#332721" opacity="0.9"/><rect x="357" y="333" width="110" height="55" fill="#332721" opacity="0.9"/><rect x="495" y="333" width="110" height="55" fill="#332721" opacity="0.9"/><rect x="633" y="333" width="110" height="55" fill="#332721" opacity="0.9"/><rect x="219" y="410" width="110" height="55" fill="#332721" opacity="0.9"/><rect x="357" y="410" width="110" height="55" fill="#332721" opacity="0.9"/><rect x="495" y="410" width="110" height="55" fill="#332721" opacity="0.9"/><rect x="633" y="410" width="110" height="55" fill="#332721" opacity="0.9"/>
  <rect x="417" y="229" width="238" height="50" fill="#BCA173"/>
  <text x="536" y="263" text-anchor="middle" font-size="38" font-family="serif" fill="#17120F">きさらぎ駅</text>
  <rect x="0" y="512" width="1200" height="7" fill="#6F5D4F" fill-opacity="0.56"/>
  <rect x="0" y="562" width="1200" height="5" fill="#8A7562" fill-opacity="0.35"/>
  <rect x="206" y="525" width="14" height="161" fill="#151110" opacity="0.38"/><rect x="351" y="525" width="15" height="166" fill="#151110" opacity="0.38"/><rect x="504" y="525" width="16" height="176" fill="#151110" opacity="0.38"/><rect x="683" y="525" width="18" height="151" fill="#151110" opacity="0.38"/><rect x="832" y="525" width="14" height="181" fill="#151110" opacity="0.38"/><rect x="989" y="525" width="18" height="181" fill="#151110" opacity="0.38"/>
  <ellipse cx="572" cy="420" rx="28" ry="66" fill="#0F0C0B" opacity="0.62"/>
  <ellipse cx="570" cy="384" rx="18" ry="18" fill="#0F0C0B" opacity="0.62"/>
</svg>