<svg width="1200" height="780" viewBox="0 0 1200 780" fill="none" xmlns="http://www.w3.org/2000/svg">
  <defs>
    <linearGradient id="sky" x1="600" y1="0" x2="600" y2="780" gradientUnits="userSpaceOnUse">
      <stop stop-color="#18120F"/>
      <stop offset="1" stop-color="#30241F"/>
    </linearGradient>
    <linearGradient id="ground" x1="600" y1="460" x2="600" y2="780" gradientUnits="userSpaceOnUse">
      <stop stop-color="#1B1512"/>
      <stop offset="1" stop-color="#0B0908"/>
    </linearGradient>
  </defs>
  <rect width="1200" height="780" fill="url(#sky)"/>
  <circle cx="500" cy="147" r="62" fill="#D2BC91" fill-opacity="0.08"/>
  <rect y="460" width="1200" height="320" fill="url(#ground)"/>
  <rect x="213" y="297" width="725" height="195" fill="#171210"/>
  <rect x="185" y="277" width="781" height="24" fill="#44302A"/>
  <rect x="247" y="325" width="108" height="58" fill="#332721" opacity="0.9"/><rect x="380" y="325" width="108" height="58" fill="#332721" opacity="0.9"/><rect x="513" y="325" width="108" height="58" fill="#332721" opacity="0.9"/><rect x="646" y="325" width="108" height="58" fill="#332721" opacity="0.9"/><rect x="247" y="402" width="108" height="58" fill="#332721" opacity="0.9"/><rect x="380" y="402" width="108" height="58" fill="#332721" opacity="0.9"/><rect x="513" y="402" width="108" height="58" fill="#332721" opacity="0.9"/><rect x="646" y="402" width="108" height="58" fill="#332721" opacity="0.9"/>
  <rect x="436" y="222" width="239" height="50" fill="#BCA173"/>
  <text x="555" y="256" text-anchor="middle" font-size="38" font-family="serif" fill="#17120F">きさらぎ駅</text>
  <rect x="0" y="512" width="1200" height="7" fill="#6F5D4F" fill-opacity="0.56"/>
  <rect x="0" y="562" width="1200" height="5" fill="#8A7562" fill-opacity="0.35"/>
  <rect x="208" y="525" width="17" height="154" fill="#151110" opacity="0.38"/><rect x="355" y="525" width="15" height="172" fill="#151110" opacity="0.38"/><rect x="535" y="525" width="12" height="176" fill="#151110" opacity="0.38"/><rect x="694" y="525" width="15" height="161" fill="#151110" opacity="0.38"/><rect x="868" y="525" width="18" height="160" fill="#151110" opacity="0.38"/><rect x="1010" y="525" width="14" height="150" fill="#151110" opacity="0.38"/>
  <ellipse cx="785" cy="418" rx="28" ry="66" fill="#0F0C0B" opacity="0.62"/>
  <ellipse cx="783" cy="382" rx="18" ry="18" fill="#0F0C0B" opacity="0.62"/>
</svg>