<svg width="1200" height="780" viewBox="0 0 1200 780" fill="none" xmlns="http://www.w3.org/2000/svg">
  <defs>
    <linearGradient id="sky" x1="600" y1="0" x2="600" y2="780" gradientUnits="userSpaceOnUse">
      <stop stop-color="#140F0D"/>
      <stop offset="1" stop-color="#2B201B"/>
    </linearGradient>
    <linearGradient id="ground" x1="600" y1="460" x2="600" y2="780" gradientUnits="userSpaceOnUse">
      <stop stop-color="#1B1512"/>
      <stop offset="1" stop-color="#090807"/>
    </linearGradient>
  </defs>
  <rect width="1200" height="780" fill="url(#sky)"/>
  <circle cx="609" cy="163" r="45" fill="#D2BC91" fill-opacity="0.08"/>
  <rect y="460" width="1200" height="320" fill="url(#ground)"/>
  <rect x="236" y="299" width="607" height="172" fill="#171210"/>
  <rect x="208" y="279" width="663" height="24" fill="#44302A"/>
  <rect x="270" y="327" width="122" height="52" fill="#332721" opacity="0.9"/><rect x="414" y="327" width="122" height="52" fill="#332721" opacity="0.9"/><rect x="558" y="327" width="122" height="52" fill="#332721" opacity="0.9"/><rect x="702" y="327" width="122" height="52" fill="#332721" opacity="0.9"/><rect x="270" y="401" width="122" height="52" fill="#332721" opacity="0.9"/><rect x="414" y="401" width="122" height="52" fill="#332721" opacity="0.9"/><rect x="558" y="401" width="122" height="52" fill="#332721" opacity="0.9"/><rect x="702" y="401" width="122" height="52" fill="#332721" opacity="0.9"/>
  <rect x="453" y="229" width="208" height="50" fill="#BCA173"/>
  <text x="557" y="263" text-anchor="middle" font-size="38" font-family="serif" fill="#17120F">きさらぎ駅</text>
  <rect x="0" y="512" width="1200" height="7" fill="#6F5D4F" fill-opacity="0.56"/>
  <rect x="0" y="562" width="1200" height="5" fill="#8A7562" fill-opacity="0.35"/>
  <rect x="239" y="525" width="18" height="167" fill="#151110" opacity="0.38"/><rect x="368" y="525" width="15" height="184" fill="#151110" opacity="0.38"/><rect x="518" y="525" width="14" height="179" fill="#151110" opacity="0.38"/><rect x="686" y="525" width="14" height="163" fill="#151110" opacity="0.38"/><rect x="828" y="525" width="17" height="164" fill="#151110" opacity="0.38"/><rect x="956" y="525" width="14" height="150" fill="#151110" opacity="0.38"/>
  <ellipse cx="820" cy="401" rx="28" ry="66" fill="#0F0C0B" opacity="0.62"/>
  <ellipse cx="818" cy="365" rx="18" ry="18" fill="#0F0C0B" opacity="0.62"/>
</svg>