<svg width="1200" height="780" viewBox="0 0 1200 780" fill="none" xmlns="http://www.w3.org/2000/svg">
  <defs>
    <linearGradient id="sky" x1="600" y1="0" x2="600" y2="780" gradientUnits="userSpaceOnUse">
      <stop stop-color="#140F0D"/>
      <stop offset="1" stop-color="#30241F"/>
    </linearGradient>
    <linearGradient id="ground" x1="600" y1="460" x2="600" y2="780" gradientUnits="userSpaceOnUse">
      <stop stop-color="#1B1512"/>
      <stop offset="1" stop-color="#0B0908"/>
    </linearGradient>
  </defs>
  <rect width="1200" height="780" fill="url(#sky)"/>
  <circle cx="698" cy="126" r="68" fill="#D2BC91" fill-opacity="0.08"/>
  <rect y="460" width="1200" height="320" fill="url(#ground)"/>
  <rect x="261" y="311" width="730" height="206" fill="#171210"/>
  <rect x="233" y="291" width="786" height="24" fill="#44302A"/>
  <rect x="295" y="339" width="109" height="55" fill="#332721" opacity="0.9"/><rect x="422" y="339" width="109" height="55" fill="#332721" opacity="0.9"/><rect x="549" y="339" width="109" height="55" fill="#332721" opacity="0.9"/><rect x="676" y="339" width="109" height="55" fill="#332721" opacity="0.9"/><rect x="295" y="408" width="109" height="55" fill="#332721" opacity="0.9"/><rect x="422" y="408" width="109" height="55" fill="#332721" opacity="0.9"/><rect x="549" y="408" width="109" height="55" fill="#332721" opacity="0.9"/><rect x="676" y="408" width="109" height="55" fill="#332721" opacity="0.9"/>
  <rect x="459" y="245" width="233" height="50" fill="#BCA173"/>
  <text x="575" y="279" text-anchor="middle" font-size="38" font-family="serif" fill="#17120F">きさらぎ駅</text>
  <rect x="0" y="512" width="1200" height="7" fill="#6F5D4F" fill-opacity="0.56"/>
  <rect x="0" y="562" width="1200" height="5" fill="#8A7562" fill-opacity="0.35"/>
  <rect x="215" y="525" width="12" height="151" fill="#151110" opacity="0.38"/><rect x="345" y="525" width="13" height="161" fill="#151110" opacity="0.38"/><rect x="471" y="525" width="12" height="171" fill="#151110" opacity="0.38"/><rect x="634" y="525" width="15" height="179" fill="#151110" opacity="0.38"/><rect x="783" y="525" width="14" height="159" fill="#151110" opacity="0.38"/><rect x="927" y="525" width="13" height="170" fill="#151110" opacity="0.38"/>
  <ellipse cx="678" cy="394" rx="28" ry="66" fill="#0F0C0B" opacity="0.62"/>
  <ellipse cx="676" cy="358" rx="18" ry="18" fill="#0F0C0B" opacity="0.62"/>
</svg>