<svg width="1200" height="780" viewBox="0 0 1200 780" fill="none" xmlns="http://www.w3.org/2000/svg">
  <defs>
    <linearGradient id="sky" x1="600" y1="0" x2="600" y2="780" gradientUnits="userSpaceOnUse">
      <stop stop-color="#18120F"/>
      <stop offset="1" stop-color="#2B201B"/>
    </linearGradient>
    <linearGradient id="ground" x1="600" y1="460" x2="600" y2="780" gradientUnits="userSpaceOnUse">
      <stop stop-color="#1B1512"/>
      <stop offset="1" stop-color="#090807"/>
    </linearGradient>
  </defs>
  <rect width="1200" height="780" fill="url(#sky)"/>
  <circle cx="1015" cy="105" r="47" fill="#D2BC91" fill-opacity="0.08"/>
  <rect y="460" width="1200" height="320" fill="url(#ground)"/>
  <rect x="215" y="296" width="634" height="174" fill="#171210"/>
  <rect x="187" y="276" width="690" height="24" fill="#44302A"/>
  <rect x="249" y="324" width="117" height="49" fill="#332721" opacity="0.9"/><rect x="388" y="324" width="117" height="49" fill="#332721" opacity="0.9"/><rect x="527" y="324" width="117" height="49" fill="#332721" opacity="0.9"/><rect x="666" y="324" width="117" height="49" fill="#332721" opacity="0.9"/><rect x="249" y="390" width="117" height="49" fill="#332721" opacity="0.9"/><rect x="388" y="390" width="117" height="49" fill="#332721" opacity="0.9"/><rect x="527" y="390" width="117" height="49" fill="#332721" opacity="0.9"/><rect x="666" y="390" width="117" height="49" fill="#332721" opacity="0.9"/>
  <rect x="449" y="219" width="234" height="50" fill="#BCA173"/>
  <text x="566" y="253" text-anchor="middle" font-size="38" font-family="serif" fill="#17120F">きさらぎ駅</text>
  <rect x="0" y="512" width="1200" height="7" fill="#6F5D4F" fill-opacity="0.56"/>
  <rect x="0" y="562" width="1200" height="5" fill="#8A7562" fill-opacity="0.35"/>
  <rect x="248" y="525" width="14" height="190" fill="#151110" opacity="0.38"/><rect x="412" y="525" width="18" height="185" fill="#151110" opacity="0.38"/><rect x="566" y="525" width="16" height="152" fill="#151110" opacity="0.38"/><rect x="737" y="525" width="18" height="186" fill="#151110" opacity="0.38"/><rect x="874" y="525" width="18" height="168" fill="#151110" opacity="0.38"/><rect x="1042" y="525" width="17" height="174" fill="#151110" opacity="0.38"/>
  <ellipse cx="347" cy="397" rx="28" ry="66" fill="#0F0C0B" opacity="0.62"/>
  <ellipse cx="345" cy="361" rx="18" ry="18" fill="#0F0C0B" opacity="0.62"/>
</svg>