<svg width="1200" height="780" viewBox="0 0 1200 780" fill="none" xmlns="http://www.w3.org/2000/svg">
  <defs>
    <linearGradient id="sky" x1="600" y1="0" x2="600" y2="780" gradientUnits="userSpaceOnUse">
      <stop stop-color="#120E0C"/>
      <stop offset="1" stop-color="#352722"/>
    </linearGradient>
    <linearGradient id="ground" x1="600" y1="460" x2="600" y2="780" gradientUnits="userSpaceOnUse">
      <stop stop-color="#1E1713"/>
      <stop offset="1" stop-color="#0B0908"/>
    </linearGradient>
  </defs>
  <rect width="1200" height="780" fill="url(#sky)"/>
  <circle cx="551" cy="100" r="54" fill="#D2BC91" fill-opacity="0.08"/>
  <rect y="460" width="1200" height="320" fill="url(#ground)"/>
  <rect x="242" y="292" width="627" height="184" fill="#171210"/>
  <rect x="214" y="272" width="683" height="24" fill="#44302A"/>
  <rect x="276" y="320" width="100" height="53" fill="#332721" opacity="0.9"/><rect x="404" y="320" width="100" height="53" fill="#332721" opacity="0.9"/><rect x="532" y="320" width="100" height="53" fill="#332721" opacity="0.9"/><rect x="660" y="320" width="100" height="53" fill="#332721" opacity="0.9"/><rect x="276" y="387" width="100" height="53" fill="#332721" opacity="0.9"/><rect x="404" y="387" width="100" height="53" fill="#332721" opacity="0.9"/><rect x="532" y="387" width="100" height="53" fill="#332721" opacity="0.9"/><rect x="660" y="387" width="100" height="53" fill="#332721" opacity="0.9"/>
  <rect x="461" y="219" width="237" height="50" fill="#BCA173"/>
  <text x="579" y="253" text-anchor="middle" font-size="38" font-family="serif" fill="#17120F">きさらぎ駅</text>
  <rect x="0" y="512" width="1200" height="7" fill="#6F5D4F" fill-opacity="0.56"/>
  <rect x="0" y="562" width="1200" height="5" fill="#8A7562" fill-opacity="0.35"/>
  <rect x="247" y="525" width="14" height="166" fill="#151110" opacity="0.38"/><rect x="422" y="525" width="15" height="166" fill="#151110" opacity="0.38"/><rect x="601" y="525" width="13" height="187" fill="#151110" opacity="0.38"/><rect x="730" y="525" width="15" height="182" fill="#151110" opacity="0.38"/><rect x="860" y="525" width="14" height="176" fill="#151110" opacity="0.38"/><rect x="999" y="525" width="18" height="168" fill="#151110" opacity="0.38"/>
  <ellipse cx="534" cy="406" rx="28" ry="66" fill="#0F0C0B" opacity="0.62"/>
  <ellipse cx="532" cy="370" rx="18" ry="18" fill="#0F0C0B" opacity="0.62"/>
</svg>