<svg width="1200" height="780" viewBox="0 0 1200 780" fill="none" xmlns="http://www.w3.org/2000/svg">
  <defs>
    <linearGradient id="sky" x1="600" y1="0" x2="600" y2="780" gradientUnits="userSpaceOnUse">
      <stop stop-color="#100D0C"/>
      <stop offset="1" stop-color="#352722"/>
    </linearGradient>
    <linearGradient id="ground" x1="600" y1="460" x2="600" y2="780" gradientUnits="userSpaceOnUse">
      <stop stop-color="#1B1512"/>
      <stop offset="1" stop-color="#0B0908"/>
    </linearGradient>
  </defs>
  <rect width="1200" height="780" fill="url(#sky)"/>
  <circle cx="612" cy="134" r="75" fill="#D2BC91" fill-opacity="0.08"/>
  <rect y="460" width="1200" height="320" fill="url(#ground)"/>
  <rect x="222" y="307" width="629" height="170" fill="#171210"/>
  <rect x="194" y="287" width="685" height="24" fill="#44302A"/>
  <rect x="256" y="335" width="89" height="53" fill="#332721" opacity="0.9"/><rect x="369" y="335" width="89" height="53" fill="#332721" opacity="0.9"/><rect x="482" y="335" width="89" height="53" fill="#332721" opacity="0.9"/><rect x="595" y="335" width="89" height="53" fill="#332721" opacity="0.9"/><rect x="256" y="402" width="89" height="53" fill="#332721" opacity="0.9"/><rect x="369" y="402" width="89" height="53" fill="#332721" opacity="0.9"/><rect x="482" y="402" width="89" height="53" fill="#332721" opacity="0.9"/><rect x="595" y="402" width="89" height="53" fill="#332721" opacity="0.9"/>
  <rect x="447" y="236" width="224" height="50" fill="#BCA173"/>
  <text x="559" y="270" text-anchor="middle" font-size="38" font-family="serif" fill="#17120F">きさらぎ駅</text>
  <rect x="0" y="512" width="1200" height="7" fill="#6F5D4F" fill-opacity="0.56"/>
  <rect x="0" y="562" width="1200" height="5" fill="#8A7562" fill-opacity="0.35"/>
  <rect x="219" y="525" width="13" height="153" fill="#151110" opacity="0.38"/><rect x="354" y="525" width="15" height="177" fill="#151110" opacity="0.38"/><rect x="495" y="525" width="16" height="151" fill="#151110" opacity="0.38"/><rect x="631" y="525" width="18" height="186" fill="#151110" opacity="0.38"/><rect x="778" y="525" width="15" height="168" fill="#151110" opacity="0.38"/><rect x="907" y="525" width="14" height="171" fill="#151110" opacity="0.38"/>
  <ellipse cx="770" cy="393" rx="28" ry="66" fill="#0F0C0B" opacity="0.62"/>
  <ellipse cx="768" cy="357" rx="18" ry="18" fill="#0F0C0B" opacity="0.62"/>
</svg>