<svg width="1200" height="780" viewBox="0 0 1200 780" fill="none" xmlns="http://www.w3.org/2000/svg">
  <defs>
    <linearGradient id="sky" x1="600" y1="0" x2="600" y2="780" gradientUnits="userSpaceOnUse">
      <stop stop-color="#140F0D"/>
      <stop offset="1" stop-color="#30241F"/>
    </linearGradient>
    <linearGradient id="ground" x1="600" y1="460" x2="600" y2="780" gradientUnits="userSpaceOnUse">
      <stop stop-color="#221A16"/>
      <stop offset="1" stop-color="#090807"/>
    </linearGradient>
  </defs>
  <rect width="1200" height="780" fill="url(#sky)"/>
  <circle cx="359" cy="109" r="51" fill="#D2BC91" fill-opacity="0.08"/>
  <rect y="460" width="1200" height="320" fill="url(#ground)"/>
  <rect x="248" y="286" width="663" height="179" fill="#171210"/>
  <rect x="220" y="266" width="719" height="24" fill="#44302A"/>
  <rect x="282" y="314" width="113" height="60" fill="#332721" opacity="0.9"/><rect x="413" y="314" width="113" height="60" fill="#332721" opacity="0.9"/><rect x="544" y="314" width="113" height="60" fill="#332721" opacity="0.9"/><rect x="675" y="314" width="113" height="60" fill="#332721" opacity="0.9"/><rect x="282" y="390" width="113" height="60" fill="#332721" opacity="0.9"/><rect x="413" y="390" width="113" height="60" fill="#332721" opacity="0.9"/><rect x="544" y="390" width="113" height="60" fill="#332721" opacity="0.9"/><rect x="675" y="390" width="113" height="60" fill="#332721" opacity="0.9"/>
  <rect x="467" y="221" width="237" height="50" fill="#BCA173"/>
  <text x="585" y="255" text-anchor="middle" font-size="38" font-family="serif" fill="#17120F">きさらぎ駅</text>
  <rect x="0" y="512" width="1200" height="7" fill="#6F5D4F" fill-opacity="0.56"/>
  <rect x="0" y="562" width="1200" height="5" fill="#8A7562" fill-opacity="0.35"/>
  <rect x="190" y="525" width="15" height="150" fill="#151110" opacity="0.38"/><rect x="336" y="525" width="15" height="160" fill="#151110" opacity="0.38"/><rect x="488" y="525" width="17" height="181" fill="#151110" opacity="0.38"/><rect x="634" y="525" width="13" height="170" fill="#151110" opacity="0.38"/><rect x="788" y="525" width="18" height="163" fill="#151110" opacity="0.38"/><rect x="924" y="525" width="18" height="173" fill="#151110" opacity="0.38"/>
  <ellipse cx="746" cy="415" rx="28" ry="66" fill="#0F0C0B" opacity="0.62"/>
  <ellipse cx="744" cy="379" rx="18" ry="18" fill="#0F0C0B" opacity="0.62"/>
</svg>