<svg width="1200" height="780" viewBox="0 0 1200 780" fill="none" xmlns="http://www.w3.org/2000/svg">
  <defs>
    <linearGradient id="sky" x1="600" y1="0" x2="600" y2="780" gradientUnits="userSpaceOnUse">
      <stop stop-color="#120E0C"/>
      <stop offset="1" stop-color="#2B201B"/>
    </linearGradient>
    <linearGradient id="ground" x1="600" y1="460" x2="600" y2="780" gradientUnits="userSpaceOnUse">
      <stop stop-color="#1E1713"/>
      <stop offset="1" stop-color="#090807"/>
    </linearGradient>
  </defs>
  <rect width="1200" height="780" fill="url(#sky)"/>
  <circle cx="494" cy="130" r="49" fill="#D2BC91" fill-opacity="0.08"/>
  <rect y="460" width="1200" height="320" fill="url(#ground)"/>
  <rect x="288" y="299" width="744" height="182" fill="#171210"/>
  <rect x="260" y="279" width="800" height="24" fill="#44302A"/>
  <rect x="322" y="327" width="90" height="49" fill="#332721" opacity="0.9"/><rect x="430" y="327" width="90" height="49" fill="#332721" opacity="0.9"/><rect x="538" y="327" width="90" height="49" fill="#332721" opacity="0.9"/><rect x="646" y="327" width="90" height="49" fill="#332721" opacity="0.9"/><rect x="322" y="398" width="90" height="49" fill="#332721" opacity="0.9"/><rect x="430" y="398" width="90" height="49" fill="#332721" opacity="0.9"/><rect x="538" y="398" width="90" height="49" fill="#332721" opacity="0.9"/><rect x="646" y="398" width="90" height="49" fill="#332721" opacity="0.9"/>
  <rect x="480" y="234" width="238" height="50" fill="#BCA173"/>
  <text x="599" y="268" text-anchor="middle" font-size="38" font-family="serif" fill="#17120F">きさらぎ駅</text>
  <rect x="0" y="512" width="1200" height="7" fill="#6F5D4F" fill-opacity="0.56"/>
  <rect x="0" y="562" width="1200" height="5" fill="#8A7562" fill-opacity="0.35"/>
  <rect x="227" y="525" width="17" height="171" fill="#151110" opacity="0.38"/><rect x="356" y="525" width="12" height="165" fill="#151110" opacity="0.38"/><rect x="513" y="525" width="16" height="154" fill="#151110" opacity="0.38"/><rect x="641" y="525" width="18" height="188" fill="#151110" opacity="0.38"/><rect x="806" y="525" width="15" height="165" fill="#151110" opacity="0.38"/><rect x="937" y="525" width="15" height="150" fill="#151110" opacity="0.38"/>
  <ellipse cx="941" cy="410" rx="28" ry="66" fill="#0F0C0B" opacity="0.62"/>
  <ellipse cx="939" cy="374" rx="18" ry="18" fill="#0F0C0B" opacity="0.62"/>
</svg>