<svg width="1200" height="780" viewBox="0 0 1200 780" fill="none" xmlns="http://www.w3.org/2000/svg">
  <defs>
    <linearGradient id="sky" x1="600" y1="0" x2="600" y2="780" gradientUnits="userSpaceOnUse">
      <stop stop-color="#18120F"/>
      <stop offset="1" stop-color="#2B201B"/>
    </linearGradient>
    <linearGradient id="ground" x1="600" y1="460" x2="600" y2="780" gradientUnits="userSpaceOnUse">
      <stop stop-color="#1E1713"/>
      <stop offset="1" stop-color="#080707"/>
    </linearGradient>
  </defs>
  <rect width="1200" height="780" fill="url(#sky)"/>
  <circle cx="665" cy="114" r="69" fill="#D2BC91" fill-opacity="0.08"/>
  <rect y="460" width="1200" height="320" fill="url(#ground)"/>
  <rect x="245" y="308" width="623" height="173" fill="#171210"/>
  <rect x="217" y="288" width="679" height="24" fill="#44302A"/>
  <rect x="279" y="336" width="94" height="53" fill="#332721" opacity="0.9"/><rect x="391" y="336" width="94" height="53" fill="#332721" opacity="0.9"/><rect x="503" y="336" width="94" height="53" fill="#332721" opacity="0.9"/><rect x="615" y="336" width="94" height="53" fill="#332721" opacity="0.9"/><rect x="279" y="409" width="94" height="53" fill="#332721" opacity="0.9"/><rect x="391" y="409" width="94" height="53" fill="#332721" opacity="0.9"/><rect x="503" y="409" width="94" height="53" fill="#332721" opacity="0.9"/><rect x="615" y="409" width="94" height="53" fill="#332721" opacity="0.9"/>
  <rect x="462" y="237" width="194" height="50" fill="#BCA173"/>
  <text x="559" y="271" text-anchor="middle" font-size="38" font-family="serif" fill="#17120F">きさらぎ駅</text>
  <rect x="0" y="512" width="1200" height="7" fill="#6F5D4F" fill-opacity="0.56"/>
  <rect x="0" y="562" width="1200" height="5" fill="#8A7562" fill-opacity="0.35"/>
  <rect x="218" y="525" width="15" height="167" fill="#151110" opacity="0.38"/><rect x="338" y="525" width="15" height="175" fill="#151110" opacity="0.38"/><rect x="466" y="525" width="15" height="154" fill="#151110" opacity="0.38"/><rect x="587" y="525" width="12" height="174" fill="#151110" opacity="0.38"/><rect x="755" y="525" width="13" height="189" fill="#151110" opacity="0.38"/><rect x="916" y="525" width="13" height="188" fill="#151110" opacity="0.38"/>
  <ellipse cx="755" cy="412" rx="28" ry="66" fill="#0F0C0B" opacity="0.62"/>
  <ellipse cx="753" cy="376" rx="18" ry="18" fill="#0F0C0B" opacity="0.62"/>
</svg>