<svg width="1200" height="780" viewBox="0 0 1200 780" fill="none" xmlns="http://www.w3.org/2000/svg">
  <defs>
    <linearGradient id="sky" x1="600" y1="0" x2="600" y2="780" gradientUnits="userSpaceOnUse">
      <stop stop-color="#100D0C"/>
      <stop offset="1" stop-color="#2C201B"/>
    </linearGradient>
    <linearGradient id="ground" x1="600" y1="460" x2="600" y2="780" gradientUnits="userSpaceOnUse">
      <stop stop-color="#221A16"/>
      <stop offset="1" stop-color="#090807"/>
    </linearGradient>
  </defs>
  <rect width="1200" height="780" fill="url(#sky)"/>
  <circle cx="869" cy="110" r="54" fill="#D2BC91" fill-opacity="0.08"/>
  <rect y="460" width="1200" height="320" fill="url(#ground)"/>
  <rect x="218" y="287" width="608" height="196" fill="#171210"/>
  <rect x="190" y="267" width="664" height="24" fill="#44302A"/>
  <rect x="252" y="315" width="112" height="59" fill="#332721" opacity="0.9"/><rect x="392" y="315" width="112" height="59" fill="#332721" opacity="0.9"/><rect x="532" y="315" width="112" height="59" fill="#332721" opacity="0.9"/><rect x="672" y="315" width="112" height="59" fill="#332721" opacity="0.9"/><rect x="252" y="395" width="112" height="59" fill="#332721" opacity="0.9"/><rect x="392" y="395" width="112" height="59" fill="#332721" opacity="0.9"/><rect x="532" y="395" width="112" height="59" fill="#332721" opacity="0.9"/><rect x="672" y="395" width="112" height="59" fill="#332721" opacity="0.9"/>
  <rect x="441" y="216" width="250" height="50" fill="#BCA173"/>
  <text x="566" y="250" text-anchor="middle" font-size="38" font-family="serif" fill="#17120F">きさらぎ駅</text>
  <rect x="0" y="512" width="1200" height="7" fill="#6F5D4F" fill-opacity="0.56"/>
  <rect x="0" y="562" width="1200" height="5" fill="#8A7562" fill-opacity="0.35"/>
  <rect x="206" y="525" width="16" height="189" fill="#151110" opacity="0.38"/><rect x="328" y="525" width="15" height="171" fill="#151110" opacity="0.38"/><rect x="485" y="525" width="18" height="172" fill="#151110" opacity="0.38"/><rect x="641" y="525" width="15" height="165" fill="#151110" opacity="0.38"/><rect x="794" y="525" width="12" height="183" fill="#151110" opacity="0.38"/><rect x="969" y="525" width="17" height="167" fill="#151110" opacity="0.38"/>
  <ellipse cx="492" cy="396" rx="28" ry="66" fill="#0F0C0B" opacity="0.62"/>
  <ellipse cx="490" cy="360" rx="18" ry="18" fill="#0F0C0B" opacity="0.62"/>
</svg>