<svg width="1200" height="780" viewBox="0 0 1200 780" fill="none" xmlns="http://www.w3.org/2000/svg">
  <defs>
    <linearGradient id="sky" x1="600" y1="0" x2="600" y2="780" gradientUnits="userSpaceOnUse">
      <stop stop-color="#100D0C"/>
      <stop offset="1" stop-color="#2C201B"/>
    </linearGradient>
    <linearGradient id="ground" x1="600" y1="460" x2="600" y2="780" gradientUnits="userSpaceOnUse">
      <stop stop-color="#221A16"/>
      <stop offset="1" stop-color="#090807"/>
    </linearGradient>
  </defs>
  <rect width="1200" height="780" fill="url(#sky)"/>
  <circle cx="905" cy="101" r="71" fill="#D2BC91" fill-opacity="0.08"/>
  <rect y="460" width="1200" height="320" fill="url(#ground)"/>
  <rect x="270" y="288" width="641" height="200" fill="#171210"/>
  <rect x="242" y="268" width="697" height="24" fill="#44302A"/>
  <rect x="304" y="316" width="103" height="46" fill="#332721" opacity="0.9"/><rect x="426" y="316" width="103" height="46" fill="#332721" opacity="0.9"/><rect x="548" y="316" width="103" height="46" fill="#332721" opacity="0.9"/><rect x="670" y="316" width="103" height="46" fill="#332721" opacity="0.9"/><rect x="304" y="378" width="103" height="46" fill="#332721" opacity="0.9"/><rect x="426" y="378" width="103" height="46" fill="#332721" opacity="0.9"/><rect x="548" y="378" width="103" height="46" fill="#332721" opacity="0.9"/><rect x="670" y="378" width="103" height="46" fill="#332721" opacity="0.9"/>
  <rect x="450" y="224" width="204" height="50" fill="#BCA173"/>
  <text x="552" y="258" text-anchor="middle" font-size="38" font-family="serif" fill="#17120F">きさらぎ駅</text>
  <rect x="0" y="512" width="1200" height="7" fill="#6F5D4F" fill-opacity="0.56"/>
  <rect x="0" y="562" width="1200" height="5" fill="#8A7562" fill-opacity="0.35"/>
  <rect x="224" y="525" width="12" height="168" fill="#151110" opacity="0.38"/><rect x="386" y="525" width="17" height="187" fill="#151110" opacity="0.38"/><rect x="537" y="525" width="18" height="175" fill="#151110" opacity="0.38"/><rect x="668" y="525" width="18" height="179" fill="#151110" opacity="0.38"/><rect x="810" y="525" width="18" height="176" fill="#151110" opacity="0.38"/><rect x="967" y="525" width="15" height="187" fill="#151110" opacity="0.38"/>
  <ellipse cx="943" cy="417" rx="28" ry="66" fill="#0F0C0B" opacity="0.62"/>
  <ellipse cx="941" cy="381" rx="18" ry="18" fill="#0F0C0B" opacity="0.62"/>
</svg>