<svg width="1200" height="780" viewBox="0 0 1200 780" fill="none" xmlns="http://www.w3.org/2000/svg">
  <defs>
    <linearGradient id="sky" x1="600" y1="0" x2="600" y2="780" gradientUnits="userSpaceOnUse">
      <stop stop-color="#100D0C"/>
      <stop offset="1" stop-color="#2C201B"/>
    </linearGradient>
    <linearGradient id="ground" x1="600" y1="460" x2="600" y2="780" gradientUnits="userSpaceOnUse">
      <stop stop-color="#1B1512"/>
      <stop offset="1" stop-color="#0B0908"/>
    </linearGradient>
  </defs>
  <rect width="1200" height="780" fill="url(#sky)"/>
  <circle cx="449" cy="145" r="74" fill="#D2BC91" fill-opacity="0.08"/>
  <rect y="460" width="1200" height="320" fill="url(#ground)"/>
  <rect x="265" y="307" width="611" height="178" fill="#171210"/>
  <rect x="237" y="287" width="667" height="24" fill="#44302A"/>
  <rect x="299" y="335" width="103" height="56" fill="#332721" opacity="0.9"/><rect x="422" y="335" width="103" height="56" fill="#332721" opacity="0.9"/><rect x="545" y="335" width="103" height="56" fill="#332721" opacity="0.9"/><rect x="668" y="335" width="103" height="56" fill="#332721" opacity="0.9"/><rect x="299" y="408" width="103" height="56" fill="#332721" opacity="0.9"/><rect x="422" y="408" width="103" height="56" fill="#332721" opacity="0.9"/><rect x="545" y="408" width="103" height="56" fill="#332721" opacity="0.9"/><rect x="668" y="408" width="103" height="56" fill="#332721" opacity="0.9"/>
  <rect x="442" y="243" width="211" height="50" fill="#BCA173"/>
  <text x="547" y="277" text-anchor="middle" font-size="38" font-family="serif" fill="#17120F">きさらぎ駅</text>
  <rect x="0" y="512" width="1200" height="7" fill="#6F5D4F" fill-opacity="0.56"/>
  <rect x="0" y="562" width="1200" height="5" fill="#8A7562" fill-opacity="0.35"/>
  <rect x="204" y="525" width="13" height="160" fill="#151110" opacity="0.38"/><rect x="346" y="525" width="14" height="158" fill="#151110" opacity="0.38"/><rect x="492" y="525" width="17" height="186" fill="#151110" opacity="0.38"/><rect x="654" y="525" width="17" height="189" fill="#151110" opacity="0.38"/><rect x="804" y="525" width="13" height="156" fill="#151110" opacity="0.38"/><rect x="969" y="525" width="18" height="180" fill="#151110" opacity="0.38"/>
  <ellipse cx="526" cy="400" rx="28" ry="66" fill="#0F0C0B" opacity="0.62"/>
  <ellipse cx="524" cy="364" rx="18" ry="18" fill="#0F0C0B" opacity="0.62"/>
</svg>