<svg width="1200" height="780" viewBox="0 0 1200 780" fill="none" xmlns="http://www.w3.org/2000/svg">
  <defs>
    <linearGradient id="sky" x1="600" y1="0" x2="600" y2="780" gradientUnits="userSpaceOnUse">
      <stop stop-color="#120E0C"/>
      <stop offset="1" stop-color="#2B201B"/>
    </linearGradient>
    <linearGradient id="ground" x1="600" y1="460" x2="600" y2="780" gradientUnits="userSpaceOnUse">
      <stop stop-color="#1E1713"/>
      <stop offset="1" stop-color="#080707"/>
    </linearGradient>
  </defs>
  <rect width="1200" height="780" fill="url(#sky)"/>
  <circle cx="617" cy="168" r="69" fill="#D2BC91" fill-opacity="0.08"/>
  <rect y="460" width="1200" height="320" fill="url(#ground)"/>
  <rect x="225" y="287" width="671" height="191" fill="#171210"/>
  <rect x="197" y="267" width="727" height="24" fill="#44302A"/>
  <rect x="259" y="315" width="100" height="53" fill="#332721" opacity="0.9"/><rect x="384" y="315" width="100" height="53" fill="#332721" opacity="0.9"/><rect x="509" y="315" width="100" height="53" fill="#332721" opacity="0.9"/><rect x="634" y="315" width="100" height="53" fill="#332721" opacity="0.9"/><rect x="259" y="387" width="100" height="53" fill="#332721" opacity="0.9"/><rect x="384" y="387" width="100" height="53" fill="#332721" opacity="0.9"/><rect x="509" y="387" width="100" height="53" fill="#332721" opacity="0.9"/><rect x="634" y="387" width="100" height="53" fill="#332721" opacity="0.9"/>
  <rect x="461" y="212" width="201" height="50" fill="#BCA173"/>
  <text x="561" y="246" text-anchor="middle" font-size="38" font-family="serif" fill="#17120F">きさらぎ駅</text>
  <rect x="0" y="512" width="1200" height="7" fill="#6F5D4F" fill-opacity="0.56"/>
  <rect x="0" y="562" width="1200" height="5" fill="#8A7562" fill-opacity="0.35"/>
  <rect x="245" y="525" width="16" height="162" fill="#151110" opacity="0.38"/><rect x="380" y="525" width="18" height="165" fill="#151110" opacity="0.38"/><rect x="511" y="525" width="14" height="159" fill="#151110" opacity="0.38"/><rect x="633" y="525" width="14" height="180" fill="#151110" opacity="0.38"/><rect x="797" y="525" width="15" height="152" fill="#151110" opacity="0.38"/><rect x="956" y="525" width="18" height="162" fill="#151110" opacity="0.38"/>
  <ellipse cx="384" cy="398" rx="28" ry="66" fill="#0F0C0B" opacity="0.62"/>
  <ellipse cx="382" cy="362" rx="18" ry="18" fill="#0F0C0B" opacity="0.62"/>
</svg>