<svg width="1200" height="780" viewBox="0 0 1200 780" fill="none" xmlns="http://www.w3.org/2000/svg">
  <defs>
    <linearGradient id="sky" x1="600" y1="0" x2="600" y2="780" gradientUnits="userSpaceOnUse">
      <stop stop-color="#18120F"/>
      <stop offset="1" stop-color="#2B201B"/>
    </linearGradient>
    <linearGradient id="ground" x1="600" y1="460" x2="600" y2="780" gradientUnits="userSpaceOnUse">
      <stop stop-color="#1E1713"/>
      <stop offset="1" stop-color="#0B0908"/>
    </linearGradient>
  </defs>
  <rect width="1200" height="780" fill="url(#sky)"/>
  <circle cx="241" cy="115" r="60" fill="#D2BC91" fill-opacity="0.08"/>
  <rect y="460" width="1200" height="320" fill="url(#ground)"/>
  <rect x="288" y="315" width="744" height="174" fill="#171210"/>
  <rect x="260" y="295" width="800" height="24" fill="#44302A"/>
  <rect x="322" y="343" width="109" height="50" fill="#332721" opacity="0.9"/><rect x="451" y="343" width="109" height="50" fill="#332721" opacity="0.9"/><rect x="580" y="343" width="109" height="50" fill="#332721" opacity="0.9"/><rect x="709" y="343" width="109" height="50" fill="#332721" opacity="0.9"/><rect x="322" y="414" width="109" height="50" fill="#332721" opacity="0.9"/><rect x="451" y="414" width="109" height="50" fill="#332721" opacity="0.9"/><rect x="580" y="414" width="109" height="50" fill="#332721" opacity="0.9"/><rect x="709" y="414" width="109" height="50" fill="#332721" opacity="0.9"/>
  <rect x="529" y="238" width="240" height="50" fill="#BCA173"/>
  <text x="649" y="272" text-anchor="middle" font-size="38" font-family="serif" fill="#17120F">きさらぎ駅</text>
  <rect x="0" y="512" width="1200" height="7" fill="#6F5D4F" fill-opacity="0.56"/>
  <rect x="0" y="562" width="1200" height="5" fill="#8A7562" fill-opacity="0.35"/>
  <rect x="191" y="525" width="17" height="171" fill="#151110" opacity="0.38"/><rect x="331" y="525" width="18" height="174" fill="#151110" opacity="0.38"/><rect x="457" y="525" width="17" height="160" fill="#151110" opacity="0.38"/><rect x="598" y="525" width="17" height="163" fill="#151110" opacity="0.38"/><rect x="747" y="525" width="14" height="178" fill="#151110" opacity="0.38"/><rect x="868" y="525" width="16" height="170" fill="#151110" opacity="0.38"/>
  <ellipse cx="434" cy="412" rx="28" ry="66" fill="#0F0C0B" opacity="0.62"/>
  <ellipse cx="432" cy="376" rx="18" ry="18" fill="#0F0C0B" opacity="0.62"/>
</svg>