<svg width="1200" height="780" viewBox="0 0 1200 780" fill="none" xmlns="http://www.w3.org/2000/svg">
  <defs>
    <linearGradient id="sky" x1="600" y1="0" x2="600" y2="780" gradientUnits="userSpaceOnUse">
      <stop stop-color="#120E0C"/>
      <stop offset="1" stop-color="#2B201B"/>
    </linearGradient>
    <linearGradient id="ground" x1="600" y1="460" x2="600" y2="780" gradientUnits="userSpaceOnUse">
      <stop stop-color="#1E1713"/>
      <stop offset="1" stop-color="#0B0908"/>
    </linearGradient>
  </defs>
  <rect width="1200" height="780" fill="url(#sky)"/>
  <circle cx="911" cy="132" r="74" fill="#D2BC91" fill-opacity="0.08"/>
  <rect y="460" width="1200" height="320" fill="url(#ground)"/>
  <rect x="210" y="307" width="704" height="183" fill="#171210"/>
  <rect x="182" y="287" width="760" height="24" fill="#44302A"/>
  <rect x="244" y="335" width="105" height="46" fill="#332721" opacity="0.9"/><rect x="369" y="335" width="105" height="46" fill="#332721" opacity="0.9"/><rect x="494" y="335" width="105" height="46" fill="#332721" opacity="0.9"/><rect x="619" y="335" width="105" height="46" fill="#332721" opacity="0.9"/><rect x="244" y="403" width="105" height="46" fill="#332721" opacity="0.9"/><rect x="369" y="403" width="105" height="46" fill="#332721" opacity="0.9"/><rect x="494" y="403" width="105" height="46" fill="#332721" opacity="0.9"/><rect x="619" y="403" width="105" height="46" fill="#332721" opacity="0.9"/>
  <rect x="426" y="236" width="223" height="50" fill="#BCA173"/>
  <text x="537" y="270" text-anchor="middle" font-size="38" font-family="serif" fill="#17120F">きさらぎ駅</text>
  <rect x="0" y="512" width="1200" height="7" fill="#6F5D4F" fill-opacity="0.56"/>
  <rect x="0" y="562" width="1200" height="5" fill="#8A7562" fill-opacity="0.35"/>
  <rect x="200" y="525" width="12" height="174" fill="#151110" opacity="0.38"/><rect x="349" y="525" width="16" height="164" fill="#151110" opacity="0.38"/><rect x="505" y="525" width="18" height="160" fill="#151110" opacity="0.38"/><rect x="652" y="525" width="17" height="177" fill="#151110" opacity="0.38"/><rect x="797" y="525" width="16" height="155" fill="#151110" opacity="0.38"/><rect x="949" y="525" width="18" height="173" fill="#151110" opacity="0.38"/>
  <ellipse cx="620" cy="410" rx="28" ry="66" fill="#0F0C0B" opacity="0.62"/>
  <ellipse cx="618" cy="374" rx="18" ry="18" fill="#0F0C0B" opacity="0.62"/>
</svg>