<svg width="1200" height="780" viewBox="0 0 1200 780" fill="none" xmlns="http://www.w3.org/2000/svg">
  <defs>
    <linearGradient id="sky" x1="600" y1="0" x2="600" y2="780" gradientUnits="userSpaceOnUse">
      <stop stop-color="#120E0C"/>
      <stop offset="1" stop-color="#352722"/>
    </linearGradient>
    <linearGradient id="ground" x1="600" y1="460" x2="600" y2="780" gradientUnits="userSpaceOnUse">
      <stop stop-color="#221A16"/>
      <stop offset="1" stop-color="#080707"/>
    </linearGradient>
  </defs>
  <rect width="1200" height="780" fill="url(#sky)"/>
  <circle cx="444" cy="101" r="44" fill="#D2BC91" fill-opacity="0.08"/>
  <rect y="460" width="1200" height="320" fill="url(#ground)"/>
  <rect x="287" y="290" width="603" height="174" fill="#171210"/>
  <rect x="259" y="270" width="659" height="24" fill="#44302A"/>
  <rect x="321" y="318" width="97" height="45" fill="#332721" opacity="0.9"/><rect x="441" y="318" width="97" height="45" fill="#332721" opacity="0.9"/><rect x="561" y="318" width="97" height="45" fill="#332721" opacity="0.9"/><rect x="681" y="318" width="97" height="45" fill="#332721" opacity="0.9"/><rect x="321" y="378" width="97" height="45" fill="#332721" opacity="0.9"/><rect x="441" y="378" width="97" height="45" fill="#332721" opacity="0.9"/><rect x="561" y="378" width="97" height="45" fill="#332721" opacity="0.9"/><rect x="681" y="378" width="97" height="45" fill="#332721" opacity="0.9"/>
  <rect x="478" y="214" width="245" height="50" fill="#BCA173"/>
  <text x="600" y="248" text-anchor="middle" font-size="38" font-family="serif" fill="#17120F">きさらぎ駅</text>
  <rect x="0" y="512" width="1200" height="7" fill="#6F5D4F" fill-opacity="0.56"/>
  <rect x="0" y="562" width="1200" height="5" fill="#8A7562" fill-opacity="0.35"/>
  <rect x="246" y="525" width="14" height="189" fill="#151110" opacity="0.38"/><rect x="388" y="525" width="12" height="186" fill="#151110" opacity="0.38"/><rect x="525" y="525" width="13" height="160" fill="#151110" opacity="0.38"/><rect x="698" y="525" width="17" height="163" fill="#151110" opacity="0.38"/><rect x="853" y="525" width="17" height="154" fill="#151110" opacity="0.38"/><rect x="1005" y="525" width="17" height="171" fill="#151110" opacity="0.38"/>
  <ellipse cx="653" cy="416" rx="28" ry="66" fill="#0F0C0B" opacity="0.62"/>
  <ellipse cx="651" cy="380" rx="18" ry="18" fill="#0F0C0B" opacity="0.62"/>
</svg>