<svg width="1200" height="780" viewBox="0 0 1200 780" fill="none" xmlns="http://www.w3.org/2000/svg">
  <defs>
    <linearGradient id="sky" x1="600" y1="0" x2="600" y2="780" gradientUnits="userSpaceOnUse">
      <stop stop-color="#140F0D"/>
      <stop offset="1" stop-color="#2C201B"/>
    </linearGradient>
    <linearGradient id="ground" x1="600" y1="460" x2="600" y2="780" gradientUnits="userSpaceOnUse">
      <stop stop-color="#221A16"/>
      <stop offset="1" stop-color="#0B0908"/>
    </linearGradient>
  </defs>
  <rect width="1200" height="780" fill="url(#sky)"/>
  <circle cx="916" cy="140" r="46" fill="#D2BC91" fill-opacity="0.08"/>
  <rect y="460" width="1200" height="320" fill="url(#ground)"/>
  <rect x="181" y="301" width="701" height="175" fill="#171210"/>
  <rect x="153" y="281" width="757" height="24" fill="#44302A"/>
  <rect x="215" y="329" width="115" height="60" fill="#332721" opacity="0.9"/><rect x="351" y="329" width="115" height="60" fill="#332721" opacity="0.9"/><rect x="487" y="329" width="115" height="60" fill="#332721" opacity="0.9"/><rect x="623" y="329" width="115" height="60" fill="#332721" opacity="0.9"/><rect x="215" y="410" width="115" height="60" fill="#332721" opacity="0.9"/><rect x="351" y="410" width="115" height="60" fill="#332721" opacity="0.9"/><rect x="487" y="410" width="115" height="60" fill="#332721" opacity="0.9"/><rect x="623" y="410" width="115" height="60" fill="#332721" opacity="0.9"/>
  <rect x="361" y="237" width="200" height="50" fill="#BCA173"/>
  <text x="461" y="271" text-anchor="middle" font-size="38" font-family="serif" fill="#17120F">きさらぎ駅</text>
  <rect x="0" y="512" width="1200" height="7" fill="#6F5D4F" fill-opacity="0.56"/>
  <rect x="0" y="562" width="1200" height="5" fill="#8A7562" fill-opacity="0.35"/>
  <rect x="229" y="525" width="18" height="156" fill="#151110" opacity="0.38"/><rect x="349" y="525" width="17" height="152" fill="#151110" opacity="0.38"/><rect x="489" y="525" width="17" height="190" fill="#151110" opacity="0.38"/><rect x="614" y="525" width="16" height="155" fill="#151110" opacity="0.38"/><rect x="784" y="525" width="12" height="182" fill="#151110" opacity="0.38"/><rect x="936" y="525" width="15" height="156" fill="#151110" opacity="0.38"/>
  <ellipse cx="800" cy="421" rx="28" ry="66" fill="#0F0C0B" opacity="0.62"/>
  <ellipse cx="798" cy="385" rx="18" ry="18" fill="#0F0C0B" opacity="0.62"/>
</svg>