<svg width="1200" height="780" viewBox="0 0 1200 780" fill="none" xmlns="http://www.w3.org/2000/svg">
  <defs>
    <linearGradient id="sky" x1="600" y1="0" x2="600" y2="780" gradientUnits="userSpaceOnUse">
      <stop stop-color="#18120F"/>
      <stop offset="1" stop-color="#352722"/>
    </linearGradient>
    <linearGradient id="ground" x1="600" y1="460" x2="600" y2="780" gradientUnits="userSpaceOnUse">
      <stop stop-color="#1E1713"/>
      <stop offset="1" stop-color="#0B0908"/>
    </linearGradient>
  </defs>
  <rect width="1200" height="780" fill="url(#sky)"/>
  <circle cx="660" cy="150" r="76" fill="#D2BC91" fill-opacity="0.08"/>
  <rect y="460" width="1200" height="320" fill="url(#ground)"/>
  <rect x="198" y="288" width="693" height="174" fill="#171210"/>
  <rect x="170" y="268" width="749" height="24" fill="#44302A"/>
  <rect x="232" y="316" width="110" height="49" fill="#332721" opacity="0.9"/><rect x="363" y="316" width="110" height="49" fill="#332721" opacity="0.9"/><rect x="494" y="316" width="110" height="49" fill="#332721" opacity="0.9"/><rect x="625" y="316" width="110" height="49" fill="#332721" opacity="0.9"/><rect x="232" y="382" width="110" height="49" fill="#332721" opacity="0.9"/><rect x="363" y="382" width="110" height="49" fill="#332721" opacity="0.9"/><rect x="494" y="382" width="110" height="49" fill="#332721" opacity="0.9"/><rect x="625" y="382" width="110" height="49" fill="#332721" opacity="0.9"/>
  <rect x="381" y="218" width="231" height="50" fill="#BCA173"/>
  <text x="496" y="252" text-anchor="middle" font-size="38" font-family="serif" fill="#17120F">きさらぎ駅</text>
  <rect x="0" y="512" width="1200" height="7" fill="#6F5D4F" fill-opacity="0.56"/>
  <rect x="0" y="562" width="1200" height="5" fill="#8A7562" fill-opacity="0.35"/>
  <rect x="226" y="525" width="12" height="162" fill="#151110" opacity="0.38"/><rect x="360" y="525" width="18" height="181" fill="#151110" opacity="0.38"/><rect x="538" y="525" width="14" height="179" fill="#151110" opacity="0.38"/><rect x="717" y="525" width="17" height="185" fill="#151110" opacity="0.38"/><rect x="876" y="525" width="12" height="179" fill="#151110" opacity="0.38"/><rect x="1038" y="525" width="13" height="161" fill="#151110" opacity="0.38"/>
  <ellipse cx="736" cy="421" rx="28" ry="66" fill="#0F0C0B" opacity="0.62"/>
  <ellipse cx="734" cy="385" rx="18" ry="18" fill="#0F0C0B" opacity="0.62"/>
</svg>