<svg width="1200" height="780" viewBox="0 0 1200 780" fill="none" xmlns="http://www.w3.org/2000/svg">
  <defs>
    <linearGradient id="sky" x1="600" y1="0" x2="600" y2="780" gradientUnits="userSpaceOnUse">
      <stop stop-color="#120E0C"/>
      <stop offset="1" stop-color="#2B201B"/>
    </linearGradient>
    <linearGradient id="ground" x1="600" y1="460" x2="600" y2="780" gradientUnits="userSpaceOnUse">
      <stop stop-color="#1B1512"/>
      <stop offset="1" stop-color="#0B0908"/>
    </linearGradient>
  </defs>
  <rect width="1200" height="780" fill="url(#sky)"/>
  <circle cx="662" cy="161" r="53" fill="#D2BC91" fill-opacity="0.08"/>
  <rect y="460" width="1200" height="320" fill="url(#ground)"/>
  <rect x="204" y="316" width="628" height="176" fill="#171210"/>
  <rect x="176" y="296" width="684" height="24" fill="#44302A"/>
  <rect x="238" y="344" width="95" height="56" fill="#332721" opacity="0.9"/><rect x="352" y="344" width="95" height="56" fill="#332721" opacity="0.9"/><rect x="466" y="344" width="95" height="56" fill="#332721" opacity="0.9"/><rect x="580" y="344" width="95" height="56" fill="#332721" opacity="0.9"/><rect x="238" y="421" width="95" height="56" fill="#332721" opacity="0.9"/><rect x="352" y="421" width="95" height="56" fill="#332721" opacity="0.9"/><rect x="466" y="421" width="95" height="56" fill="#332721" opacity="0.9"/><rect x="580" y="421" width="95" height="56" fill="#332721" opacity="0.9"/>
  <rect x="441" y="240" width="191" height="50" fill="#BCA173"/>
  <text x="536" y="274" text-anchor="middle" font-size="38" font-family="serif" fill="#17120F">きさらぎ駅</text>
  <rect x="0" y="512" width="1200" height="7" fill="#6F5D4F" fill-opacity="0.56"/>
  <rect x="0" y="562" width="1200" height="5" fill="#8A7562" fill-opacity="0.35"/>
  <rect x="218" y="525" width="13" height="175" fill="#151110" opacity="0.38"/><rect x="387" y="525" width="18" height="151" fill="#151110" opacity="0.38"/><rect x="507" y="525" width="16" height="160" fill="#151110" opacity="0.38"/><rect x="649" y="525" width="13" height="174" fill="#151110" opacity="0.38"/><rect x="812" y="525" width="17" height="170" fill="#151110" opacity="0.38"/><rect x="948" y="525" width="18" height="189" fill="#151110" opacity="0.38"/>
  <ellipse cx="462" cy="404" rx="28" ry="66" fill="#0F0C0B" opacity="0.62"/>
  <ellipse cx="460" cy="368" rx="18" ry="18" fill="#0F0C0B" opacity="0.62"/>
</svg>