<svg width="1200" height="780" viewBox="0 0 1200 780" fill="none" xmlns="http://www.w3.org/2000/svg">
  <defs>
    <linearGradient id="sky" x1="600" y1="0" x2="600" y2="780" gradientUnits="userSpaceOnUse">
      <stop stop-color="#120E0C"/>
      <stop offset="1" stop-color="#2B201B"/>
    </linearGradient>
    <linearGradient id="ground" x1="600" y1="460" x2="600" y2="780" gradientUnits="userSpaceOnUse">
      <stop stop-color="#1E1713"/>
      <stop offset="1" stop-color="#080707"/>
    </linearGradient>
  </defs>
  <rect width="1200" height="780" fill="url(#sky)"/>
  <circle cx="876" cy="141" r="69" fill="#D2BC91" fill-opacity="0.08"/>
  <rect y="460" width="1200" height="320" fill="url(#ground)"/>
  <rect x="241" y="293" width="718" height="205" fill="#171210"/>
  <rect x="213" y="273" width="774" height="24" fill="#44302A"/>
  <rect x="275" y="321" width="91" height="45" fill="#332721" opacity="0.9"/><rect x="386" y="321" width="91" height="45" fill="#332721" opacity="0.9"/><rect x="497" y="321" width="91" height="45" fill="#332721" opacity="0.9"/><rect x="608" y="321" width="91" height="45" fill="#332721" opacity="0.9"/><rect x="275" y="381" width="91" height="45" fill="#332721" opacity="0.9"/><rect x="386" y="381" width="91" height="45" fill="#332721" opacity="0.9"/><rect x="497" y="381" width="91" height="45" fill="#332721" opacity="0.9"/><rect x="608" y="381" width="91" height="45" fill="#332721" opacity="0.9"/>
  <rect x="449" y="222" width="242" height="50" fill="#BCA173"/>
  <text x="570" y="256" text-anchor="middle" font-size="38" font-family="serif" fill="#17120F">きさらぎ駅</text>
  <rect x="0" y="512" width="1200" height="7" fill="#6F5D4F" fill-opacity="0.56"/>
  <rect x="0" y="562" width="1200" height="5" fill="#8A7562" fill-opacity="0.35"/>
  <rect x="207" y="525" width="17" height="170" fill="#151110" opacity="0.38"/><rect x="365" y="525" width="12" height="153" fill="#151110" opacity="0.38"/><rect x="509" y="525" width="16" height="170" fill="#151110" opacity="0.38"/><rect x="688" y="525" width="12" height="157" fill="#151110" opacity="0.38"/><rect x="855" y="525" width="15" height="168" fill="#151110" opacity="0.38"/><rect x="1030" y="525" width="15" height="185" fill="#151110" opacity="0.38"/>
  <ellipse cx="971" cy="427" rx="28" ry="66" fill="#0F0C0B" opacity="0.62"/>
  <ellipse cx="969" cy="391" rx="18" ry="18" fill="#0F0C0B" opacity="0.62"/>
</svg>