<svg width="1200" height="780" viewBox="0 0 1200 780" fill="none" xmlns="http://www.w3.org/2000/svg">
  <defs>
    <linearGradient id="sky" x1="600" y1="0" x2="600" y2="780" gradientUnits="userSpaceOnUse">
      <stop stop-color="#100D0C"/>
      <stop offset="1" stop-color="#2B201B"/>
    </linearGradient>
    <linearGradient id="ground" x1="600" y1="460" x2="600" y2="780" gradientUnits="userSpaceOnUse">
      <stop stop-color="#221A16"/>
      <stop offset="1" stop-color="#090807"/>
    </linearGradient>
  </defs>
  <rect width="1200" height="780" fill="url(#sky)"/>
  <circle cx="249" cy="121" r="52" fill="#D2BC91" fill-opacity="0.08"/>
  <rect y="460" width="1200" height="320" fill="url(#ground)"/>
  <rect x="278" y="303" width="648" height="193" fill="#171210"/>
  <rect x="250" y="283" width="704" height="24" fill="#44302A"/>
  <rect x="312" y="331" width="122" height="51" fill="#332721" opacity="0.9"/><rect x="456" y="331" width="122" height="51" fill="#332721" opacity="0.9"/><rect x="600" y="331" width="122" height="51" fill="#332721" opacity="0.9"/><rect x="744" y="331" width="122" height="51" fill="#332721" opacity="0.9"/><rect x="312" y="400" width="122" height="51" fill="#332721" opacity="0.9"/><rect x="456" y="400" width="122" height="51" fill="#332721" opacity="0.9"/><rect x="600" y="400" width="122" height="51" fill="#332721" opacity="0.9"/><rect x="744" y="400" width="122" height="51" fill="#332721" opacity="0.9"/>
  <rect x="457" y="238" width="233" height="50" fill="#BCA173"/>
  <text x="573" y="272" text-anchor="middle" font-size="38" font-family="serif" fill="#17120F">きさらぎ駅</text>
  <rect x="0" y="512" width="1200" height="7" fill="#6F5D4F" fill-opacity="0.56"/>
  <rect x="0" y="562" width="1200" height="5" fill="#8A7562" fill-opacity="0.35"/>
  <rect x="197" y="525" width="14" height="166" fill="#151110" opacity="0.38"/><rect x="344" y="525" width="14" height="155" fill="#151110" opacity="0.38"/><rect x="512" y="525" width="16" height="181" fill="#151110" opacity="0.38"/><rect x="667" y="525" width="17" height="180" fill="#151110" opacity="0.38"/><rect x="838" y="525" width="12" height="166" fill="#151110" opacity="0.38"/><rect x="990" y="525" width="12" height="181" fill="#151110" opacity="0.38"/>
  <ellipse cx="739" cy="408" rx="28" ry="66" fill="#0F0C0B" opacity="0.62"/>
  <ellipse cx="737" cy="372" rx="18" ry="18" fill="#0F0C0B" opacity="0.62"/>
</svg>