<svg width="1200" height="780" viewBox="0 0 1200 780" fill="none" xmlns="http://www.w3.org/2000/svg">
  <defs>
    <linearGradient id="sky" x1="600" y1="0" x2="600" y2="780" gradientUnits="userSpaceOnUse">
      <stop stop-color="#100D0C"/>
      <stop offset="1" stop-color="#352722"/>
    </linearGradient>
    <linearGradient id="ground" x1="600" y1="460" x2="600" y2="780" gradientUnits="userSpaceOnUse">
      <stop stop-color="#1E1713"/>
      <stop offset="1" stop-color="#0B0908"/>
    </linearGradient>
  </defs>
  <rect width="1200" height="780" fill="url(#sky)"/>
  <circle cx="326" cy="107" r="54" fill="#D2BC91" fill-opacity="0.08"/>
  <rect y="460" width="1200" height="320" fill="url(#ground)"/>
  <rect x="207" y="287" width="683" height="210" fill="#171210"/>
  <rect x="179" y="267" width="739" height="24" fill="#44302A"/>
  <rect x="241" y="315" width="93" height="53" fill="#332721" opacity="0.9"/><rect x="359" y="315" width="93" height="53" fill="#332721" opacity="0.9"/><rect x="477" y="315" width="93" height="53" fill="#332721" opacity="0.9"/><rect x="595" y="315" width="93" height="53" fill="#332721" opacity="0.9"/><rect x="241" y="388" width="93" height="53" fill="#332721" opacity="0.9"/><rect x="359" y="388" width="93" height="53" fill="#332721" opacity="0.9"/><rect x="477" y="388" width="93" height="53" fill="#332721" opacity="0.9"/><rect x="595" y="388" width="93" height="53" fill="#332721" opacity="0.9"/>
  <rect x="421" y="216" width="249" height="50" fill="#BCA173"/>
  <text x="545" y="250" text-anchor="middle" font-size="38" font-family="serif" fill="#17120F">きさらぎ駅</text>
  <rect x="0" y="512" width="1200" height="7" fill="#6F5D4F" fill-opacity="0.56"/>
  <rect x="0" y="562" width="1200" height="5" fill="#8A7562" fill-opacity="0.35"/>
  <rect x="248" y="525" width="15" height="169" fill="#151110" opacity="0.38"/><rect x="384" y="525" width="16" height="159" fill="#151110" opacity="0.38"/><rect x="557" y="525" width="13" height="181" fill="#151110" opacity="0.38"/><rect x="725" y="525" width="14" height="156" fill="#151110" opacity="0.38"/><rect x="875" y="525" width="13" height="169" fill="#151110" opacity="0.38"/><rect x="1012" y="525" width="15" height="168" fill="#151110" opacity="0.38"/>
  <ellipse cx="341" cy="413" rx="28" ry="66" fill="#0F0C0B" opacity="0.62"/>
  <ellipse cx="339" cy="377" rx="18" ry="18" fill="#0F0C0B" opacity="0.62"/>
</svg>