<svg width="1200" height="780" viewBox="0 0 1200 780" fill="none" xmlns="http://www.w3.org/2000/svg">
  <defs>
    <linearGradient id="sky" x1="600" y1="0" x2="600" y2="780" gradientUnits="userSpaceOnUse">
      <stop stop-color="#18120F"/>
      <stop offset="1" stop-color="#2C201B"/>
    </linearGradient>
    <linearGradient id="ground" x1="600" y1="460" x2="600" y2="780" gradientUnits="userSpaceOnUse">
      <stop stop-color="#221A16"/>
      <stop offset="1" stop-color="#080707"/>
    </linearGradient>
  </defs>
  <rect width="1200" height="780" fill="url(#sky)"/>
  <circle cx="947" cy="159" r="53" fill="#D2BC91" fill-opacity="0.08"/>
  <rect y="460" width="1200" height="320" fill="url(#ground)"/>
  <rect x="285" y="307" width="664" height="196" fill="#171210"/>
  <rect x="257" y="287" width="720" height="24" fill="#44302A"/>
  <rect x="319" y="335" width="92" height="44" fill="#332721" opacity="0.9"/><rect x="430" y="335" width="92" height="44" fill="#332721" opacity="0.9"/><rect x="541" y="335" width="92" height="44" fill="#332721" opacity="0.9"/><rect x="652" y="335" width="92" height="44" fill="#332721" opacity="0.9"/><rect x="319" y="396" width="92" height="44" fill="#332721" opacity="0.9"/><rect x="430" y="396" width="92" height="44" fill="#332721" opacity="0.9"/><rect x="541" y="396" width="92" height="44" fill="#332721" opacity="0.9"/><rect x="652" y="396" width="92" height="44" fill="#332721" opacity="0.9"/>
  <rect x="464" y="244" width="226" height="50" fill="#BCA173"/>
  <text x="577" y="278" text-anchor="middle" font-size="38" font-family="serif" fill="#17120F">きさらぎ駅</text>
  <rect x="0" y="512" width="1200" height="7" fill="#6F5D4F" fill-opacity="0.56"/>
  <rect x="0" y="562" width="1200" height="5" fill="#8A7562" fill-opacity="0.35"/>
  <rect x="242" y="525" width="18" height="173" fill="#151110" opacity="0.38"/><rect x="408" y="525" width="13" height="170" fill="#151110" opacity="0.38"/><rect x="570" y="525" width="16" height="168" fill="#151110" opacity="0.38"/><rect x="696" y="525" width="17" height="153" fill="#151110" opacity="0.38"/><rect x="839" y="525" width="14" height="164" fill="#151110" opacity="0.38"/><rect x="967" y="525" width="18" height="164" fill="#151110" opacity="0.38"/>
  <ellipse cx="498" cy="412" rx="28" ry="66" fill="#0F0C0B" opacity="0.62"/>
  <ellipse cx="496" cy="376" rx="18" ry="18" fill="#0F0C0B" opacity="0.62"/>
</svg>