<svg width="1200" height="780" viewBox="0 0 1200 780" fill="none" xmlns="http://www.w3.org/2000/svg">
  <defs>
    <linearGradient id="sky" x1="600" y1="0" x2="600" y2="780" gradientUnits="userSpaceOnUse">
      <stop stop-color="#120E0C"/>
      <stop offset="1" stop-color="#30241F"/>
    </linearGradient>
    <linearGradient id="ground" x1="600" y1="460" x2="600" y2="780" gradientUnits="userSpaceOnUse">
      <stop stop-color="#1B1512"/>
      <stop offset="1" stop-color="#080707"/>
    </linearGradient>
  </defs>
  <rect width="1200" height="780" fill="url(#sky)"/>
  <circle cx="247" cy="142" r="46" fill="#D2BC91" fill-opacity="0.08"/>
  <rect y="460" width="1200" height="320" fill="url(#ground)"/>
  <rect x="203" y="293" width="607" height="207" fill="#171210"/>
  <rect x="175" y="273" width="663" height="24" fill="#44302A"/>
  <rect x="237" y="321" width="122" height="51" fill="#332721" opacity="0.9"/><rect x="382" y="321" width="122" height="51" fill="#332721" opacity="0.9"/><rect x="527" y="321" width="122" height="51" fill="#332721" opacity="0.9"/><rect x="672" y="321" width="122" height="51" fill="#332721" opacity="0.9"/><rect x="237" y="394" width="122" height="51" fill="#332721" opacity="0.9"/><rect x="382" y="394" width="122" height="51" fill="#332721" opacity="0.9"/><rect x="527" y="394" width="122" height="51" fill="#332721" opacity="0.9"/><rect x="672" y="394" width="122" height="51" fill="#332721" opacity="0.9"/>
  <rect x="436" y="217" width="230" height="50" fill="#BCA173"/>
  <text x="551" y="251" text-anchor="middle" font-size="38" font-family="serif" fill="#17120F">きさらぎ駅</text>
  <rect x="0" y="512" width="1200" height="7" fill="#6F5D4F" fill-opacity="0.56"/>
  <rect x="0" y="562" width="1200" height="5" fill="#8A7562" fill-opacity="0.35"/>
  <rect x="201" y="525" width="16" height="187" fill="#151110" opacity="0.38"/><rect x="367" y="525" width="15" height="171" fill="#151110" opacity="0.38"/><rect x="521" y="525" width="12" height="167" fill="#151110" opacity="0.38"/><rect x="688" y="525" width="16" height="165" fill="#151110" opacity="0.38"/><rect x="862" y="525" width="13" height="150" fill="#151110" opacity="0.38"/><rect x="1020" y="525" width="16" height="175" fill="#151110" opacity="0.38"/>
  <ellipse cx="273" cy="408" rx="28" ry="66" fill="#0F0C0B" opacity="0.62"/>
  <ellipse cx="271" cy="372" rx="18" ry="18" fill="#0F0C0B" opacity="0.62"/>
</svg>