<svg width="1200" height="780" viewBox="0 0 1200 780" fill="none" xmlns="http://www.w3.org/2000/svg">
  <defs>
    <linearGradient id="sky" x1="600" y1="0" x2="600" y2="780" gradientUnits="userSpaceOnUse">
      <stop stop-color="#18120F"/>
      <stop offset="1" stop-color="#2B201B"/>
    </linearGradient>
    <linearGradient id="ground" x1="600" y1="460" x2="600" y2="780" gradientUnits="userSpaceOnUse">
      <stop stop-color="#1E1713"/>
      <stop offset="1" stop-color="#0B0908"/>
    </linearGradient>
  </defs>
  <rect width="1200" height="780" fill="url(#sky)"/>
  <circle cx="845" cy="122" r="61" fill="#D2BC91" fill-opacity="0.08"/>
  <rect y="460" width="1200" height="320" fill="url(#ground)"/>
  <rect x="257" y="287" width="755" height="183" fill="#171210"/>
  <rect x="229" y="267" width="811" height="24" fill="#44302A"/>
  <rect x="291" y="315" width="114" height="44" fill="#332721" opacity="0.9"/><rect x="427" y="315" width="114" height="44" fill="#332721" opacity="0.9"/><rect x="563" y="315" width="114" height="44" fill="#332721" opacity="0.9"/><rect x="699" y="315" width="114" height="44" fill="#332721" opacity="0.9"/><rect x="291" y="378" width="114" height="44" fill="#332721" opacity="0.9"/><rect x="427" y="378" width="114" height="44" fill="#332721" opacity="0.9"/><rect x="563" y="378" width="114" height="44" fill="#332721" opacity="0.9"/><rect x="699" y="378" width="114" height="44" fill="#332721" opacity="0.9"/>
  <rect x="466" y="215" width="216" height="50" fill="#BCA173"/>
  <text x="574" y="249" text-anchor="middle" font-size="38" font-family="serif" fill="#17120F">きさらぎ駅</text>
  <rect x="0" y="512" width="1200" height="7" fill="#6F5D4F" fill-opacity="0.56"/>
  <rect x="0" y="562" width="1200" height="5" fill="#8A7562" fill-opacity="0.35"/>
  <rect x="195" y="525" width="17" height="153" fill="#151110" opacity="0.38"/><rect x="368" y="525" width="16" height="175" fill="#151110" opacity="0.38"/><rect x="490" y="525" width="17" height="152" fill="#151110" opacity="0.38"/><rect x="668" y="525" width="18" height="159" fill="#151110" opacity="0.38"/><rect x="801" y="525" width="13" height="186" fill="#151110" opacity="0.38"/><rect x="938" y="525" width="12" height="177" fill="#151110" opacity="0.38"/>
  <ellipse cx="533" cy="395" rx="28" ry="66" fill="#0F0C0B" opacity="0.62"/>
  <ellipse cx="531" cy="359" rx="18" ry="18" fill="#0F0C0B" opacity="0.62"/>
</svg>