<svg width="1200" height="780" viewBox="0 0 1200 780" fill="none" xmlns="http://www.w3.org/2000/svg">
  <defs>
    <linearGradient id="sky" x1="600" y1="0" x2="600" y2="780" gradientUnits="userSpaceOnUse">
      <stop stop-color="#120E0C"/>
      <stop offset="1" stop-color="#352722"/>
    </linearGradient>
    <linearGradient id="ground" x1="600" y1="460" x2="600" y2="780" gradientUnits="userSpaceOnUse">
      <stop stop-color="#1B1512"/>
      <stop offset="1" stop-color="#080707"/>
    </linearGradient>
  </defs>
  <rect width="1200" height="780" fill="url(#sky)"/>
  <circle cx="203" cy="128" r="68" fill="#D2BC91" fill-opacity="0.08"/>
  <rect y="460" width="1200" height="320" fill="url(#ground)"/>
  <rect x="300" y="307" width="691" height="208" fill="#171210"/>
  <rect x="272" y="287" width="747" height="24" fill="#44302A"/>
  <rect x="334" y="335" width="92" height="47" fill="#332721" opacity="0.9"/><rect x="454" y="335" width="92" height="47" fill="#332721" opacity="0.9"/><rect x="574" y="335" width="92" height="47" fill="#332721" opacity="0.9"/><rect x="694" y="335" width="92" height="47" fill="#332721" opacity="0.9"/><rect x="334" y="398" width="92" height="47" fill="#332721" opacity="0.9"/><rect x="454" y="398" width="92" height="47" fill="#332721" opacity="0.9"/><rect x="574" y="398" width="92" height="47" fill="#332721" opacity="0.9"/><rect x="694" y="398" width="92" height="47" fill="#332721" opacity="0.9"/>
  <rect x="479" y="243" width="244" height="50" fill="#BCA173"/>
  <text x="601" y="277" text-anchor="middle" font-size="38" font-family="serif" fill="#17120F">きさらぎ駅</text>
  <rect x="0" y="512" width="1200" height="7" fill="#6F5D4F" fill-opacity="0.56"/>
  <rect x="0" y="562" width="1200" height="5" fill="#8A7562" fill-opacity="0.35"/>
  <rect x="223" y="525" width="16" height="153" fill="#151110" opacity="0.38"/><rect x="397" y="525" width="13" height="169" fill="#151110" opacity="0.38"/><rect x="576" y="525" width="14" height="180" fill="#151110" opacity="0.38"/><rect x="711" y="525" width="18" height="186" fill="#151110" opacity="0.38"/><rect x="884" y="525" width="17" height="189" fill="#151110" opacity="0.38"/><rect x="1058" y="525" width="13" height="154" fill="#151110" opacity="0.38"/>
  <ellipse cx="661" cy="402" rx="28" ry="66" fill="#0F0C0B" opacity="0.62"/>
  <ellipse cx="659" cy="366" rx="18" ry="18" fill="#0F0C0B" opacity="0.62"/>
</svg>