<svg width="1200" height="780" viewBox="0 0 1200 780" fill="none" xmlns="http://www.w3.org/2000/svg">
  <defs>
    <linearGradient id="sky" x1="600" y1="0" x2="600" y2="780" gradientUnits="userSpaceOnUse">
      <stop stop-color="#18120F"/>
      <stop offset="1" stop-color="#352722"/>
    </linearGradient>
    <linearGradient id="ground" x1="600" y1="460" x2="600" y2="780" gradientUnits="userSpaceOnUse">
      <stop stop-color="#221A16"/>
      <stop offset="1" stop-color="#090807"/>
    </linearGradient>
  </defs>
  <rect width="1200" height="780" fill="url(#sky)"/>
  <circle cx="865" cy="139" r="57" fill="#D2BC91" fill-opacity="0.08"/>
  <rect y="460" width="1200" height="320" fill="url(#ground)"/>
  <rect x="232" y="311" width="747" height="199" fill="#171210"/>
  <rect x="204" y="291" width="803" height="24" fill="#44302A"/>
  <rect x="266" y="339" width="110" height="59" fill="#332721" opacity="0.9"/><rect x="402" y="339" width="110" height="59" fill="#332721" opacity="0.9"/><rect x="538" y="339" width="110" height="59" fill="#332721" opacity="0.9"/><rect x="674" y="339" width="110" height="59" fill="#332721" opacity="0.9"/><rect x="266" y="418" width="110" height="59" fill="#332721" opacity="0.9"/><rect x="402" y="418" width="110" height="59" fill="#332721" opacity="0.9"/><rect x="538" y="418" width="110" height="59" fill="#332721" opacity="0.9"/><rect x="674" y="418" width="110" height="59" fill="#332721" opacity="0.9"/>
  <rect x="447" y="241" width="234" height="50" fill="#BCA173"/>
  <text x="564" y="275" text-anchor="middle" font-size="38" font-family="serif" fill="#17120F">きさらぎ駅</text>
  <rect x="0" y="512" width="1200" height="7" fill="#6F5D4F" fill-opacity="0.56"/>
  <rect x="0" y="562" width="1200" height="5" fill="#8A7562" fill-opacity="0.35"/>
  <rect x="226" y="525" width="14" height="161" fill="#151110" opacity="0.38"/><rect x="402" y="525" width="15" height="179" fill="#151110" opacity="0.38"/><rect x="569" y="525" width="16" height="159" fill="#151110" opacity="0.38"/><rect x="696" y="525" width="18" height="183" fill="#151110" opacity="0.38"/><rect x="843" y="525" width="14" height="178" fill="#151110" opacity="0.38"/><rect x="1017" y="525" width="18" height="187" fill="#151110" opacity="0.38"/>
  <ellipse cx="541" cy="403" rx="28" ry="66" fill="#0F0C0B" opacity="0.62"/>
  <ellipse cx="539" cy="367" rx="18" ry="18" fill="#0F0C0B" opacity="0.62"/>
</svg>