<svg width="1200" height="780" viewBox="0 0 1200 780" fill="none" xmlns="http://www.w3.org/2000/svg">
  <defs>
    <linearGradient id="sky" x1="600" y1="0" x2="600" y2="780" gradientUnits="userSpaceOnUse">
      <stop stop-color="#18120F"/>
      <stop offset="1" stop-color="#352722"/>
    </linearGradient>
    <linearGradient id="ground" x1="600" y1="460" x2="600" y2="780" gradientUnits="userSpaceOnUse">
      <stop stop-color="#1B1512"/>
      <stop offset="1" stop-color="#080707"/>
    </linearGradient>
  </defs>
  <rect width="1200" height="780" fill="url(#sky)"/>
  <circle cx="1002" cy="150" r="53" fill="#D2BC91" fill-opacity="0.08"/>
  <rect y="460" width="1200" height="320" fill="url(#ground)"/>
  <rect x="285" y="289" width="668" height="171" fill="#171210"/>
  <rect x="257" y="269" width="724" height="24" fill="#44302A"/>
  <rect x="319" y="317" width="102" height="49" fill="#332721" opacity="0.9"/><rect x="439" y="317" width="102" height="49" fill="#332721" opacity="0.9"/><rect x="559" y="317" width="102" height="49" fill="#332721" opacity="0.9"/><rect x="679" y="317" width="102" height="49" fill="#332721" opacity="0.9"/><rect x="319" y="380" width="102" height="49" fill="#332721" opacity="0.9"/><rect x="439" y="380" width="102" height="49" fill="#332721" opacity="0.9"/><rect x="559" y="380" width="102" height="49" fill="#332721" opacity="0.9"/><rect x="679" y="380" width="102" height="49" fill="#332721" opacity="0.9"/>
  <rect x="465" y="224" width="221" height="50" fill="#BCA173"/>
  <text x="575" y="258" text-anchor="middle" font-size="38" font-family="serif" fill="#17120F">きさらぎ駅</text>
  <rect x="0" y="512" width="1200" height="7" fill="#6F5D4F" fill-opacity="0.56"/>
  <rect x="0" y="562" width="1200" height="5" fill="#8A7562" fill-opacity="0.35"/>
  <rect x="205" y="525" width="17" height="189" fill="#151110" opacity="0.38"/><rect x="376" y="525" width="18" height="186" fill="#151110" opacity="0.38"/><rect x="545" y="525" width="16" height="187" fill="#151110" opacity="0.38"/><rect x="685" y="525" width="12" height="172" fill="#151110" opacity="0.38"/><rect x="857" y="525" width="14" height="159" fill="#151110" opacity="0.38"/><rect x="1000" y="525" width="17" height="177" fill="#151110" opacity="0.38"/>
  <ellipse cx="365" cy="407" rx="28" ry="66" fill="#0F0C0B" opacity="0.62"/>
  <ellipse cx="363" cy="371" rx="18" ry="18" fill="#0F0C0B" opacity="0.62"/>
</svg>