<svg width="1200" height="780" viewBox="0 0 1200 780" fill="none" xmlns="http://www.w3.org/2000/svg">
  <defs>
    <linearGradient id="sky" x1="600" y1="0" x2="600" y2="780" gradientUnits="userSpaceOnUse">
      <stop stop-color="#120E0C"/>
      <stop offset="1" stop-color="#2B201B"/>
    </linearGradient>
    <linearGradient id="ground" x1="600" y1="460" x2="600" y2="780" gradientUnits="userSpaceOnUse">
      <stop stop-color="#1B1512"/>
      <stop offset="1" stop-color="#0B0908"/>
    </linearGradient>
  </defs>
  <rect width="1200" height="780" fill="url(#sky)"/>
  <circle cx="708" cy="110" r="65" fill="#D2BC91" fill-opacity="0.08"/>
  <rect y="460" width="1200" height="320" fill="url(#ground)"/>
  <rect x="204" y="310" width="673" height="170" fill="#171210"/>
  <rect x="176" y="290" width="729" height="24" fill="#44302A"/>
  <rect x="238" y="338" width="121" height="54" fill="#332721" opacity="0.9"/><rect x="379" y="338" width="121" height="54" fill="#332721" opacity="0.9"/><rect x="520" y="338" width="121" height="54" fill="#332721" opacity="0.9"/><rect x="661" y="338" width="121" height="54" fill="#332721" opacity="0.9"/><rect x="238" y="407" width="121" height="54" fill="#332721" opacity="0.9"/><rect x="379" y="407" width="121" height="54" fill="#332721" opacity="0.9"/><rect x="520" y="407" width="121" height="54" fill="#332721" opacity="0.9"/><rect x="661" y="407" width="121" height="54" fill="#332721" opacity="0.9"/>
  <rect x="448" y="233" width="229" height="50" fill="#BCA173"/>
  <text x="562" y="267" text-anchor="middle" font-size="38" font-family="serif" fill="#17120F">きさらぎ駅</text>
  <rect x="0" y="512" width="1200" height="7" fill="#6F5D4F" fill-opacity="0.56"/>
  <rect x="0" y="562" width="1200" height="5" fill="#8A7562" fill-opacity="0.35"/>
  <rect x="216" y="525" width="14" height="166" fill="#151110" opacity="0.38"/><rect x="395" y="525" width="14" height="168" fill="#151110" opacity="0.38"/><rect x="515" y="525" width="16" height="164" fill="#151110" opacity="0.38"/><rect x="680" y="525" width="17" height="171" fill="#151110" opacity="0.38"/><rect x="849" y="525" width="12" height="164" fill="#151110" opacity="0.38"/><rect x="1018" y="525" width="13" height="187" fill="#151110" opacity="0.38"/>
  <ellipse cx="709" cy="392" rx="28" ry="66" fill="#0F0C0B" opacity="0.62"/>
  <ellipse cx="707" cy="356" rx="18" ry="18" fill="#0F0C0B" opacity="0.62"/>
</svg>