<svg width="1200" height="780" viewBox="0 0 1200 780" fill="none" xmlns="http://www.w3.org/2000/svg">
  <defs>
    <linearGradient id="sky" x1="600" y1="0" x2="600" y2="780" gradientUnits="userSpaceOnUse">
      <stop stop-color="#18120F"/>
      <stop offset="1" stop-color="#30241F"/>
    </linearGradient>
    <linearGradient id="ground" x1="600" y1="460" x2="600" y2="780" gradientUnits="userSpaceOnUse">
      <stop stop-color="#221A16"/>
      <stop offset="1" stop-color="#090807"/>
    </linearGradient>
  </defs>
  <rect width="1200" height="780" fill="url(#sky)"/>
  <circle cx="286" cy="167" r="46" fill="#D2BC91" fill-opacity="0.08"/>
  <rect y="460" width="1200" height="320" fill="url(#ground)"/>
  <rect x="297" y="286" width="635" height="207" fill="#171210"/>
  <rect x="269" y="266" width="691" height="24" fill="#44302A"/>
  <rect x="331" y="314" width="112" height="52" fill="#332721" opacity="0.9"/><rect x="466" y="314" width="112" height="52" fill="#332721" opacity="0.9"/><rect x="601" y="314" width="112" height="52" fill="#332721" opacity="0.9"/><rect x="736" y="314" width="112" height="52" fill="#332721" opacity="0.9"/><rect x="331" y="382" width="112" height="52" fill="#332721" opacity="0.9"/><rect x="466" y="382" width="112" height="52" fill="#332721" opacity="0.9"/><rect x="601" y="382" width="112" height="52" fill="#332721" opacity="0.9"/><rect x="736" y="382" width="112" height="52" fill="#332721" opacity="0.9"/>
  <rect x="468" y="222" width="248" height="50" fill="#BCA173"/>
  <text x="592" y="256" text-anchor="middle" font-size="38" font-family="serif" fill="#17120F">きさらぎ駅</text>
  <rect x="0" y="512" width="1200" height="7" fill="#6F5D4F" fill-opacity="0.56"/>
  <rect x="0" y="562" width="1200" height="5" fill="#8A7562" fill-opacity="0.35"/>
  <rect x="218" y="525" width="13" height="159" fill="#151110" opacity="0.38"/><rect x="376" y="525" width="14" height="170" fill="#151110" opacity="0.38"/><rect x="532" y="525" width="18" height="165" fill="#151110" opacity="0.38"/><rect x="654" y="525" width="16" height="179" fill="#151110" opacity="0.38"/><rect x="823" y="525" width="14" height="162" fill="#151110" opacity="0.38"/><rect x="988" y="525" width="16" height="153" fill="#151110" opacity="0.38"/>
  <ellipse cx="275" cy="395" rx="28" ry="66" fill="#0F0C0B" opacity="0.62"/>
  <ellipse cx="273" cy="359" rx="18" ry="18" fill="#0F0C0B" opacity="0.62"/>
</svg>