<svg width="1200" height="780" viewBox="0 0 1200 780" fill="none" xmlns="http://www.w3.org/2000/svg">
  <defs>
    <linearGradient id="sky" x1="600" y1="0" x2="600" y2="780" gradientUnits="userSpaceOnUse">
      <stop stop-color="#140F0D"/>
      <stop offset="1" stop-color="#2C201B"/>
    </linearGradient>
    <linearGradient id="ground" x1="600" y1="460" x2="600" y2="780" gradientUnits="userSpaceOnUse">
      <stop stop-color="#1E1713"/>
      <stop offset="1" stop-color="#080707"/>
    </linearGradient>
  </defs>
  <rect width="1200" height="780" fill="url(#sky)"/>
  <circle cx="702" cy="160" r="62" fill="#D2BC91" fill-opacity="0.08"/>
  <rect y="460" width="1200" height="320" fill="url(#ground)"/>
  <rect x="264" y="291" width="611" height="187" fill="#171210"/>
  <rect x="236" y="271" width="667" height="24" fill="#44302A"/>
  <rect x="298" y="319" width="119" height="55" fill="#332721" opacity="0.9"/><rect x="436" y="319" width="119" height="55" fill="#332721" opacity="0.9"/><rect x="574" y="319" width="119" height="55" fill="#332721" opacity="0.9"/><rect x="712" y="319" width="119" height="55" fill="#332721" opacity="0.9"/><rect x="298" y="392" width="119" height="55" fill="#332721" opacity="0.9"/><rect x="436" y="392" width="119" height="55" fill="#332721" opacity="0.9"/><rect x="574" y="392" width="119" height="55" fill="#332721" opacity="0.9"/><rect x="712" y="392" width="119" height="55" fill="#332721" opacity="0.9"/>
  <rect x="473" y="221" width="210" height="50" fill="#BCA173"/>
  <text x="578" y="255" text-anchor="middle" font-size="38" font-family="serif" fill="#17120F">きさらぎ駅</text>
  <rect x="0" y="512" width="1200" height="7" fill="#6F5D4F" fill-opacity="0.56"/>
  <rect x="0" y="562" width="1200" height="5" fill="#8A7562" fill-opacity="0.35"/>
  <rect x="240" y="525" width="14" height="160" fill="#151110" opacity="0.38"/><rect x="371" y="525" width="15" height="190" fill="#151110" opacity="0.38"/><rect x="548" y="525" width="17" height="179" fill="#151110" opacity="0.38"/><rect x="697" y="525" width="18" height="173" fill="#151110" opacity="0.38"/><rect x="863" y="525" width="14" height="184" fill="#151110" opacity="0.38"/><rect x="1037" y="525" width="17" height="160" fill="#151110" opacity="0.38"/>
  <ellipse cx="291" cy="399" rx="28" ry="66" fill="#0F0C0B" opacity="0.62"/>
  <ellipse cx="289" cy="363" rx="18" ry="18" fill="#0F0C0B" opacity="0.62"/>
</svg>