<svg width="1200" height="780" viewBox="0 0 1200 780" fill="none" xmlns="http://www.w3.org/2000/svg">
  <defs>
    <linearGradient id="sky" x1="600" y1="0" x2="600" y2="780" gradientUnits="userSpaceOnUse">
      <stop stop-color="#140F0D"/>
      <stop offset="1" stop-color="#2B201B"/>
    </linearGradient>
    <linearGradient id="ground" x1="600" y1="460" x2="600" y2="780" gradientUnits="userSpaceOnUse">
      <stop stop-color="#221A16"/>
      <stop offset="1" stop-color="#0B0908"/>
    </linearGradient>
  </defs>
  <rect width="1200" height="780" fill="url(#sky)"/>
  <circle cx="959" cy="154" r="56" fill="#D2BC91" fill-opacity="0.08"/>
  <rect y="460" width="1200" height="320" fill="url(#ground)"/>
  <rect x="205" y="287" width="618" height="173" fill="#171210"/>
  <rect x="177" y="267" width="674" height="24" fill="#44302A"/>
  <rect x="239" y="315" width="110" height="48" fill="#332721" opacity="0.9"/><rect x="375" y="315" width="110" height="48" fill="#332721" opacity="0.9"/><rect x="511" y="315" width="110" height="48" fill="#332721" opacity="0.9"/><rect x="647" y="315" width="110" height="48" fill="#332721" opacity="0.9"/><rect x="239" y="382" width="110" height="48" fill="#332721" opacity="0.9"/><rect x="375" y="382" width="110" height="48" fill="#332721" opacity="0.9"/><rect x="511" y="382" width="110" height="48" fill="#332721" opacity="0.9"/><rect x="647" y="382" width="110" height="48" fill="#332721" opacity="0.9"/>
  <rect x="439" y="211" width="247" height="50" fill="#BCA173"/>
  <text x="562" y="245" text-anchor="middle" font-size="38" font-family="serif" fill="#17120F">きさらぎ駅</text>
  <rect x="0" y="512" width="1200" height="7" fill="#6F5D4F" fill-opacity="0.56"/>
  <rect x="0" y="562" width="1200" height="5" fill="#8A7562" fill-opacity="0.35"/>
  <rect x="207" y="525" width="18" height="190" fill="#151110" opacity="0.38"/><rect x="380" y="525" width="12" height="153" fill="#151110" opacity="0.38"/><rect x="556" y="525" width="15" height="177" fill="#151110" opacity="0.38"/><rect x="713" y="525" width="14" height="175" fill="#151110" opacity="0.38"/><rect x="884" y="525" width="15" height="184" fill="#151110" opacity="0.38"/><rect x="1019" y="525" width="18" height="177" fill="#151110" opacity="0.38"/>
  <ellipse cx="412" cy="427" rx="28" ry="66" fill="#0F0C0B" opacity="0.62"/>
  <ellipse cx="410" cy="391" rx="18" ry="18" fill="#0F0C0B" opacity="0.62"/>
</svg>