<svg width="1200" height="780" viewBox="0 0 1200 780" fill="none" xmlns="http://www.w3.org/2000/svg">
  <defs>
    <linearGradient id="sky" x1="600" y1="0" x2="600" y2="780" gradientUnits="userSpaceOnUse">
      <stop stop-color="#18120F"/>
      <stop offset="1" stop-color="#2C201B"/>
    </linearGradient>
    <linearGradient id="ground" x1="600" y1="460" x2="600" y2="780" gradientUnits="userSpaceOnUse">
      <stop stop-color="#221A16"/>
      <stop offset="1" stop-color="#0B0908"/>
    </linearGradient>
  </defs>
  <rect width="1200" height="780" fill="url(#sky)"/>
  <circle cx="204" cy="146" r="50" fill="#D2BC91" fill-opacity="0.08"/>
  <rect y="460" width="1200" height="320" fill="url(#ground)"/>
  <rect x="244" y="291" width="718" height="209" fill="#171210"/>
  <rect x="216" y="271" width="774" height="24" fill="#44302A"/>
  <rect x="278" y="319" width="95" height="50" fill="#332721" opacity="0.9"/><rect x="393" y="319" width="95" height="50" fill="#332721" opacity="0.9"/><rect x="508" y="319" width="95" height="50" fill="#332721" opacity="0.9"/><rect x="623" y="319" width="95" height="50" fill="#332721" opacity="0.9"/><rect x="278" y="387" width="95" height="50" fill="#332721" opacity="0.9"/><rect x="393" y="387" width="95" height="50" fill="#332721" opacity="0.9"/><rect x="508" y="387" width="95" height="50" fill="#332721" opacity="0.9"/><rect x="623" y="387" width="95" height="50" fill="#332721" opacity="0.9"/>
  <rect x="451" y="220" width="195" height="50" fill="#BCA173"/>
  <text x="548" y="254" text-anchor="middle" font-size="38" font-family="serif" fill="#17120F">きさらぎ駅</text>
  <rect x="0" y="512" width="1200" height="7" fill="#6F5D4F" fill-opacity="0.56"/>
  <rect x="0" y="562" width="1200" height="5" fill="#8A7562" fill-opacity="0.35"/>
  <rect x="203" y="525" width="16" height="188" fill="#151110" opacity="0.38"/><rect x="372" y="525" width="16" height="178" fill="#151110" opacity="0.38"/><rect x="533" y="525" width="18" height="157" fill="#151110" opacity="0.38"/><rect x="656" y="525" width="17" height="168" fill="#151110" opacity="0.38"/><rect x="829" y="525" width="14" height="175" fill="#151110" opacity="0.38"/><rect x="979" y="525" width="17" height="176" fill="#151110" opacity="0.38"/>
  <ellipse cx="319" cy="428" rx="28" ry="66" fill="#0F0C0B" opacity="0.62"/>
  <ellipse cx="317" cy="392" rx="18" ry="18" fill="#0F0C0B" opacity="0.62"/>
</svg>