<svg width="1200" height="780" viewBox="0 0 1200 780" fill="none" xmlns="http://www.w3.org/2000/svg">
  <defs>
    <linearGradient id="sky" x1="600" y1="0" x2="600" y2="780" gradientUnits="userSpaceOnUse">
      <stop stop-color="#120E0C"/>
      <stop offset="1" stop-color="#30241F"/>
    </linearGradient>
    <linearGradient id="ground" x1="600" y1="460" x2="600" y2="780" gradientUnits="userSpaceOnUse">
      <stop stop-color="#1E1713"/>
      <stop offset="1" stop-color="#0B0908"/>
    </linearGradient>
  </defs>
  <rect width="1200" height="780" fill="url(#sky)"/>
  <circle cx="990" cy="155" r="50" fill="#D2BC91" fill-opacity="0.08"/>
  <rect y="460" width="1200" height="320" fill="url(#ground)"/>
  <rect x="244" y="309" width="715" height="194" fill="#171210"/>
  <rect x="216" y="289" width="771" height="24" fill="#44302A"/>
  <rect x="278" y="337" width="119" height="45" fill="#332721" opacity="0.9"/><rect x="418" y="337" width="119" height="45" fill="#332721" opacity="0.9"/><rect x="558" y="337" width="119" height="45" fill="#332721" opacity="0.9"/><rect x="698" y="337" width="119" height="45" fill="#332721" opacity="0.9"/><rect x="278" y="404" width="119" height="45" fill="#332721" opacity="0.9"/><rect x="418" y="404" width="119" height="45" fill="#332721" opacity="0.9"/><rect x="558" y="404" width="119" height="45" fill="#332721" opacity="0.9"/><rect x="698" y="404" width="119" height="45" fill="#332721" opacity="0.9"/>
  <rect x="450" y="240" width="200" height="50" fill="#BCA173"/>
  <text x="550" y="274" text-anchor="middle" font-size="38" font-family="serif" fill="#17120F">きさらぎ駅</text>
  <rect x="0" y="512" width="1200" height="7" fill="#6F5D4F" fill-opacity="0.56"/>
  <rect x="0" y="562" width="1200" height="5" fill="#8A7562" fill-opacity="0.35"/>
  <rect x="240" y="525" width="18" height="172" fill="#151110" opacity="0.38"/><rect x="404" y="525" width="12" height="163" fill="#151110" opacity="0.38"/><rect x="558" y="525" width="18" height="178" fill="#151110" opacity="0.38"/><rect x="728" y="525" width="15" height="190" fill="#151110" opacity="0.38"/><rect x="872" y="525" width="13" height="180" fill="#151110" opacity="0.38"/><rect x="1008" y="525" width="18" height="163" fill="#151110" opacity="0.38"/>
  <ellipse cx="452" cy="392" rx="28" ry="66" fill="#0F0C0B" opacity="0.62"/>
  <ellipse cx="450" cy="356" rx="18" ry="18" fill="#0F0C0B" opacity="0.62"/>
</svg>