<svg width="1200" height="780" viewBox="0 0 1200 780" fill="none" xmlns="http://www.w3.org/2000/svg">
  <defs>
    <linearGradient id="sky" x1="600" y1="0" x2="600" y2="780" gradientUnits="userSpaceOnUse">
      <stop stop-color="#100D0C"/>
      <stop offset="1" stop-color="#352722"/>
    </linearGradient>
    <linearGradient id="ground" x1="600" y1="460" x2="600" y2="780" gradientUnits="userSpaceOnUse">
      <stop stop-color="#1B1512"/>
      <stop offset="1" stop-color="#0B0908"/>
    </linearGradient>
  </defs>
  <rect width="1200" height="780" fill="url(#sky)"/>
  <circle cx="441" cy="150" r="55" fill="#D2BC91" fill-opacity="0.08"/>
  <rect y="460" width="1200" height="320" fill="url(#ground)"/>
  <rect x="265" y="299" width="750" height="179" fill="#171210"/>
  <rect x="237" y="279" width="806" height="24" fill="#44302A"/>
  <rect x="299" y="327" width="121" height="48" fill="#332721" opacity="0.9"/><rect x="444" y="327" width="121" height="48" fill="#332721" opacity="0.9"/><rect x="589" y="327" width="121" height="48" fill="#332721" opacity="0.9"/><rect x="734" y="327" width="121" height="48" fill="#332721" opacity="0.9"/><rect x="299" y="391" width="121" height="48" fill="#332721" opacity="0.9"/><rect x="444" y="391" width="121" height="48" fill="#332721" opacity="0.9"/><rect x="589" y="391" width="121" height="48" fill="#332721" opacity="0.9"/><rect x="734" y="391" width="121" height="48" fill="#332721" opacity="0.9"/>
  <rect x="465" y="234" width="207" height="50" fill="#BCA173"/>
  <text x="568" y="268" text-anchor="middle" font-size="38" font-family="serif" fill="#17120F">きさらぎ駅</text>
  <rect x="0" y="512" width="1200" height="7" fill="#6F5D4F" fill-opacity="0.56"/>
  <rect x="0" y="562" width="1200" height="5" fill="#8A7562" fill-opacity="0.35"/>
  <rect x="227" y="525" width="15" height="157" fill="#151110" opacity="0.38"/><rect x="370" y="525" width="13" height="167" fill="#151110" opacity="0.38"/><rect x="540" y="525" width="18" height="150" fill="#151110" opacity="0.38"/><rect x="682" y="525" width="18" height="159" fill="#151110" opacity="0.38"/><rect x="826" y="525" width="17" height="186" fill="#151110" opacity="0.38"/><rect x="985" y="525" width="16" height="174" fill="#151110" opacity="0.38"/>
  <ellipse cx="956" cy="392" rx="28" ry="66" fill="#0F0C0B" opacity="0.62"/>
  <ellipse cx="954" cy="356" rx="18" ry="18" fill="#0F0C0B" opacity="0.62"/>
</svg>