<svg width="1200" height="780" viewBox="0 0 1200 780" fill="none" xmlns="http://www.w3.org/2000/svg">
  <defs>
    <linearGradient id="sky" x1="600" y1="0" x2="600" y2="780" gradientUnits="userSpaceOnUse">
      <stop stop-color="#18120F"/>
      <stop offset="1" stop-color="#352722"/>
    </linearGradient>
    <linearGradient id="ground" x1="600" y1="460" x2="600" y2="780" gradientUnits="userSpaceOnUse">
      <stop stop-color="#1E1713"/>
      <stop offset="1" stop-color="#0B0908"/>
    </linearGradient>
  </defs>
  <rect width="1200" height="780" fill="url(#sky)"/>
  <circle cx="949" cy="164" r="74" fill="#D2BC91" fill-opacity="0.08"/>
  <rect y="460" width="1200" height="320" fill="url(#ground)"/>
  <rect x="192" y="292" width="746" height="177" fill="#171210"/>
  <rect x="164" y="272" width="802" height="24" fill="#44302A"/>
  <rect x="226" y="320" width="92" height="53" fill="#332721" opacity="0.9"/><rect x="344" y="320" width="92" height="53" fill="#332721" opacity="0.9"/><rect x="462" y="320" width="92" height="53" fill="#332721" opacity="0.9"/><rect x="580" y="320" width="92" height="53" fill="#332721" opacity="0.9"/><rect x="226" y="388" width="92" height="53" fill="#332721" opacity="0.9"/><rect x="344" y="388" width="92" height="53" fill="#332721" opacity="0.9"/><rect x="462" y="388" width="92" height="53" fill="#332721" opacity="0.9"/><rect x="580" y="388" width="92" height="53" fill="#332721" opacity="0.9"/>
  <rect x="367" y="220" width="231" height="50" fill="#BCA173"/>
  <text x="482" y="254" text-anchor="middle" font-size="38" font-family="serif" fill="#17120F">きさらぎ駅</text>
  <rect x="0" y="512" width="1200" height="7" fill="#6F5D4F" fill-opacity="0.56"/>
  <rect x="0" y="562" width="1200" height="5" fill="#8A7562" fill-opacity="0.35"/>
  <rect x="240" y="525" width="12" height="162" fill="#151110" opacity="0.38"/><rect x="386" y="525" width="13" height="184" fill="#151110" opacity="0.38"/><rect x="526" y="525" width="15" height="186" fill="#151110" opacity="0.38"/><rect x="668" y="525" width="16" height="188" fill="#151110" opacity="0.38"/><rect x="819" y="525" width="12" height="169" fill="#151110" opacity="0.38"/><rect x="965" y="525" width="16" height="163" fill="#151110" opacity="0.38"/>
  <ellipse cx="701" cy="405" rx="28" ry="66" fill="#0F0C0B" opacity="0.62"/>
  <ellipse cx="699" cy="369" rx="18" ry="18" fill="#0F0C0B" opacity="0.62"/>
</svg>