<svg width="1200" height="780" viewBox="0 0 1200 780" fill="none" xmlns="http://www.w3.org/2000/svg">
  <defs>
    <linearGradient id="sky" x1="600" y1="0" x2="600" y2="780" gradientUnits="userSpaceOnUse">
      <stop stop-color="#18120F"/>
      <stop offset="1" stop-color="#2C201B"/>
    </linearGradient>
    <linearGradient id="ground" x1="600" y1="460" x2="600" y2="780" gradientUnits="userSpaceOnUse">
      <stop stop-color="#1B1512"/>
      <stop offset="1" stop-color="#090807"/>
    </linearGradient>
  </defs>
  <rect width="1200" height="780" fill="url(#sky)"/>
  <circle cx="320" cy="139" r="70" fill="#D2BC91" fill-opacity="0.08"/>
  <rect y="460" width="1200" height="320" fill="url(#ground)"/>
  <rect x="201" y="317" width="755" height="184" fill="#171210"/>
  <rect x="173" y="297" width="811" height="24" fill="#44302A"/>
  <rect x="235" y="345" width="88" height="50" fill="#332721" opacity="0.9"/><rect x="343" y="345" width="88" height="50" fill="#332721" opacity="0.9"/><rect x="451" y="345" width="88" height="50" fill="#332721" opacity="0.9"/><rect x="559" y="345" width="88" height="50" fill="#332721" opacity="0.9"/><rect x="235" y="415" width="88" height="50" fill="#332721" opacity="0.9"/><rect x="343" y="415" width="88" height="50" fill="#332721" opacity="0.9"/><rect x="451" y="415" width="88" height="50" fill="#332721" opacity="0.9"/><rect x="559" y="415" width="88" height="50" fill="#332721" opacity="0.9"/>
  <rect x="433" y="242" width="217" height="50" fill="#BCA173"/>
  <text x="541" y="276" text-anchor="middle" font-size="38" font-family="serif" fill="#17120F">きさらぎ駅</text>
  <rect x="0" y="512" width="1200" height="7" fill="#6F5D4F" fill-opacity="0.56"/>
  <rect x="0" y="562" width="1200" height="5" fill="#8A7562" fill-opacity="0.35"/>
  <rect x="231" y="525" width="15" height="168" fill="#151110" opacity="0.38"/><rect x="386" y="525" width="14" height="173" fill="#151110" opacity="0.38"/><rect x="510" y="525" width="17" height="178" fill="#151110" opacity="0.38"/><rect x="673" y="525" width="16" height="176" fill="#151110" opacity="0.38"/><rect x="820" y="525" width="18" height="162" fill="#151110" opacity="0.38"/><rect x="986" y="525" width="15" height="160" fill="#151110" opacity="0.38"/>
  <ellipse cx="266" cy="393" rx="28" ry="66" fill="#0F0C0B" opacity="0.62"/>
  <ellipse cx="264" cy="357" rx="18" ry="18" fill="#0F0C0B" opacity="0.62"/>
</svg>