<svg width="1200" height="780" viewBox="0 0 1200 780" fill="none" xmlns="http://www.w3.org/2000/svg">
  <defs>
    <linearGradient id="sky" x1="600" y1="0" x2="600" y2="780" gradientUnits="userSpaceOnUse">
      <stop stop-color="#120E0C"/>
      <stop offset="1" stop-color="#352722"/>
    </linearGradient>
    <linearGradient id="ground" x1="600" y1="460" x2="600" y2="780" gradientUnits="userSpaceOnUse">
      <stop stop-color="#221A16"/>
      <stop offset="1" stop-color="#090807"/>
    </linearGradient>
  </defs>
  <rect width="1200" height="780" fill="url(#sky)"/>
  <circle cx="906" cy="156" r="48" fill="#D2BC91" fill-opacity="0.08"/>
  <rect y="460" width="1200" height="320" fill="url(#ground)"/>
  <rect x="237" y="303" width="757" height="210" fill="#171210"/>
  <rect x="209" y="283" width="813" height="24" fill="#44302A"/>
  <rect x="271" y="331" width="102" height="44" fill="#332721" opacity="0.9"/><rect x="391" y="331" width="102" height="44" fill="#332721" opacity="0.9"/><rect x="511" y="331" width="102" height="44" fill="#332721" opacity="0.9"/><rect x="631" y="331" width="102" height="44" fill="#332721" opacity="0.9"/><rect x="271" y="394" width="102" height="44" fill="#332721" opacity="0.9"/><rect x="391" y="394" width="102" height="44" fill="#332721" opacity="0.9"/><rect x="511" y="394" width="102" height="44" fill="#332721" opacity="0.9"/><rect x="631" y="394" width="102" height="44" fill="#332721" opacity="0.9"/>
  <rect x="452" y="233" width="204" height="50" fill="#BCA173"/>
  <text x="554" y="267" text-anchor="middle" font-size="38" font-family="serif" fill="#17120F">きさらぎ駅</text>
  <rect x="0" y="512" width="1200" height="7" fill="#6F5D4F" fill-opacity="0.56"/>
  <rect x="0" y="562" width="1200" height="5" fill="#8A7562" fill-opacity="0.35"/>
  <rect x="228" y="525" width="15" height="182" fill="#151110" opacity="0.38"/><rect x="361" y="525" width="16" height="186" fill="#151110" opacity="0.38"/><rect x="506" y="525" width="13" height="156" fill="#151110" opacity="0.38"/><rect x="629" y="525" width="14" height="164" fill="#151110" opacity="0.38"/><rect x="780" y="525" width="14" height="178" fill="#151110" opacity="0.38"/><rect x="907" y="525" width="14" height="180" fill="#151110" opacity="0.38"/>
  <ellipse cx="769" cy="424" rx="28" ry="66" fill="#0F0C0B" opacity="0.62"/>
  <ellipse cx="767" cy="388" rx="18" ry="18" fill="#0F0C0B" opacity="0.62"/>
</svg>