<svg width="1200" height="780" viewBox="0 0 1200 780" fill="none" xmlns="http://www.w3.org/2000/svg">
  <defs>
    <linearGradient id="sky" x1="600" y1="0" x2="600" y2="780" gradientUnits="userSpaceOnUse">
      <stop stop-color="#120E0C"/>
      <stop offset="1" stop-color="#2C201B"/>
    </linearGradient>
    <linearGradient id="ground" x1="600" y1="460" x2="600" y2="780" gradientUnits="userSpaceOnUse">
      <stop stop-color="#221A16"/>
      <stop offset="1" stop-color="#0B0908"/>
    </linearGradient>
  </defs>
  <rect width="1200" height="780" fill="url(#sky)"/>
  <circle cx="874" cy="163" r="63" fill="#D2BC91" fill-opacity="0.08"/>
  <rect y="460" width="1200" height="320" fill="url(#ground)"/>
  <rect x="287" y="315" width="678" height="178" fill="#171210"/>
  <rect x="259" y="295" width="734" height="24" fill="#44302A"/>
  <rect x="321" y="343" width="91" height="46" fill="#332721" opacity="0.9"/><rect x="433" y="343" width="91" height="46" fill="#332721" opacity="0.9"/><rect x="545" y="343" width="91" height="46" fill="#332721" opacity="0.9"/><rect x="657" y="343" width="91" height="46" fill="#332721" opacity="0.9"/><rect x="321" y="409" width="91" height="46" fill="#332721" opacity="0.9"/><rect x="433" y="409" width="91" height="46" fill="#332721" opacity="0.9"/><rect x="545" y="409" width="91" height="46" fill="#332721" opacity="0.9"/><rect x="657" y="409" width="91" height="46" fill="#332721" opacity="0.9"/>
  <rect x="468" y="250" width="239" height="50" fill="#BCA173"/>
  <text x="587" y="284" text-anchor="middle" font-size="38" font-family="serif" fill="#17120F">きさらぎ駅</text>
  <rect x="0" y="512" width="1200" height="7" fill="#6F5D4F" fill-opacity="0.56"/>
  <rect x="0" y="562" width="1200" height="5" fill="#8A7562" fill-opacity="0.35"/>
  <rect x="211" y="525" width="12" height="151" fill="#151110" opacity="0.38"/><rect x="388" y="525" width="14" height="168" fill="#151110" opacity="0.38"/><rect x="518" y="525" width="12" height="157" fill="#151110" opacity="0.38"/><rect x="648" y="525" width="17" height="182" fill="#151110" opacity="0.38"/><rect x="818" y="525" width="16" height="152" fill="#151110" opacity="0.38"/><rect x="938" y="525" width="12" height="179" fill="#151110" opacity="0.38"/>
  <ellipse cx="504" cy="426" rx="28" ry="66" fill="#0F0C0B" opacity="0.62"/>
  <ellipse cx="502" cy="390" rx="18" ry="18" fill="#0F0C0B" opacity="0.62"/>
</svg>