<svg width="1200" height="780" viewBox="0 0 1200 780" fill="none" xmlns="http://www.w3.org/2000/svg">
  <defs>
    <linearGradient id="sky" x1="600" y1="0" x2="600" y2="780" gradientUnits="userSpaceOnUse">
      <stop stop-color="#120E0C"/>
      <stop offset="1" stop-color="#30241F"/>
    </linearGradient>
    <linearGradient id="ground" x1="600" y1="460" x2="600" y2="780" gradientUnits="userSpaceOnUse">
      <stop stop-color="#1E1713"/>
      <stop offset="1" stop-color="#080707"/>
    </linearGradient>
  </defs>
  <rect width="1200" height="780" fill="url(#sky)"/>
  <circle cx="206" cy="125" r="55" fill="#D2BC91" fill-opacity="0.08"/>
  <rect y="460" width="1200" height="320" fill="url(#ground)"/>
  <rect x="198" y="301" width="758" height="195" fill="#171210"/>
  <rect x="170" y="281" width="814" height="24" fill="#44302A"/>
  <rect x="232" y="329" width="94" height="49" fill="#332721" opacity="0.9"/><rect x="346" y="329" width="94" height="49" fill="#332721" opacity="0.9"/><rect x="460" y="329" width="94" height="49" fill="#332721" opacity="0.9"/><rect x="574" y="329" width="94" height="49" fill="#332721" opacity="0.9"/><rect x="232" y="392" width="94" height="49" fill="#332721" opacity="0.9"/><rect x="346" y="392" width="94" height="49" fill="#332721" opacity="0.9"/><rect x="460" y="392" width="94" height="49" fill="#332721" opacity="0.9"/><rect x="574" y="392" width="94" height="49" fill="#332721" opacity="0.9"/>
  <rect x="432" y="225" width="198" height="50" fill="#BCA173"/>
  <text x="531" y="259" text-anchor="middle" font-size="38" font-family="serif" fill="#17120F">きさらぎ駅</text>
  <rect x="0" y="512" width="1200" height="7" fill="#6F5D4F" fill-opacity="0.56"/>
  <rect x="0" y="562" width="1200" height="5" fill="#8A7562" fill-opacity="0.35"/>
  <rect x="199" y="525" width="15" height="167" fill="#151110" opacity="0.38"/><rect x="348" y="525" width="15" height="163" fill="#151110" opacity="0.38"/><rect x="523" y="525" width="15" height="170" fill="#151110" opacity="0.38"/><rect x="695" y="525" width="12" height="184" fill="#151110" opacity="0.38"/><rect x="865" y="525" width="13" height="150" fill="#151110" opacity="0.38"/><rect x="1009" y="525" width="13" height="182" fill="#151110" opacity="0.38"/>
  <ellipse cx="786" cy="429" rx="28" ry="66" fill="#0F0C0B" opacity="0.62"/>
  <ellipse cx="784" cy="393" rx="18" ry="18" fill="#0F0C0B" opacity="0.62"/>
</svg>