<svg width="1200" height="780" viewBox="0 0 1200 780" fill="none" xmlns="http://www.w3.org/2000/svg">
  <defs>
    <linearGradient id="sky" x1="600" y1="0" x2="600" y2="780" gradientUnits="userSpaceOnUse">
      <stop stop-color="#120E0C"/>
      <stop offset="1" stop-color="#30241F"/>
    </linearGradient>
    <linearGradient id="ground" x1="600" y1="460" x2="600" y2="780" gradientUnits="userSpaceOnUse">
      <stop stop-color="#221A16"/>
      <stop offset="1" stop-color="#090807"/>
    </linearGradient>
  </defs>
  <rect width="1200" height="780" fill="url(#sky)"/>
  <circle cx="956" cy="102" r="59" fill="#D2BC91" fill-opacity="0.08"/>
  <rect y="460" width="1200" height="320" fill="url(#ground)"/>
  <rect x="219" y="311" width="756" height="176" fill="#171210"/>
  <rect x="191" y="291" width="812" height="24" fill="#44302A"/>
  <rect x="253" y="339" width="108" height="48" fill="#332721" opacity="0.9"/><rect x="385" y="339" width="108" height="48" fill="#332721" opacity="0.9"/><rect x="517" y="339" width="108" height="48" fill="#332721" opacity="0.9"/><rect x="649" y="339" width="108" height="48" fill="#332721" opacity="0.9"/><rect x="253" y="404" width="108" height="48" fill="#332721" opacity="0.9"/><rect x="385" y="404" width="108" height="48" fill="#332721" opacity="0.9"/><rect x="517" y="404" width="108" height="48" fill="#332721" opacity="0.9"/><rect x="649" y="404" width="108" height="48" fill="#332721" opacity="0.9"/>
  <rect x="445" y="236" width="231" height="50" fill="#BCA173"/>
  <text x="560" y="270" text-anchor="middle" font-size="38" font-family="serif" fill="#17120F">きさらぎ駅</text>
  <rect x="0" y="512" width="1200" height="7" fill="#6F5D4F" fill-opacity="0.56"/>
  <rect x="0" y="562" width="1200" height="5" fill="#8A7562" fill-opacity="0.35"/>
  <rect x="227" y="525" width="16" height="162" fill="#151110" opacity="0.38"/><rect x="394" y="525" width="12" height="160" fill="#151110" opacity="0.38"/><rect x="519" y="525" width="13" height="165" fill="#151110" opacity="0.38"/><rect x="648" y="525" width="16" height="152" fill="#151110" opacity="0.38"/><rect x="814" y="525" width="16" height="180" fill="#151110" opacity="0.38"/><rect x="948" y="525" width="12" height="156" fill="#151110" opacity="0.38"/>
  <ellipse cx="461" cy="394" rx="28" ry="66" fill="#0F0C0B" opacity="0.62"/>
  <ellipse cx="459" cy="358" rx="18" ry="18" fill="#0F0C0B" opacity="0.62"/>
</svg>