<svg width="1200" height="780" viewBox="0 0 1200 780" fill="none" xmlns="http://www.w3.org/2000/svg">
  <defs>
    <linearGradient id="sky" x1="600" y1="0" x2="600" y2="780" gradientUnits="userSpaceOnUse">
      <stop stop-color="#100D0C"/>
      <stop offset="1" stop-color="#2B201B"/>
    </linearGradient>
    <linearGradient id="ground" x1="600" y1="460" x2="600" y2="780" gradientUnits="userSpaceOnUse">
      <stop stop-color="#221A16"/>
      <stop offset="1" stop-color="#080707"/>
    </linearGradient>
  </defs>
  <rect width="1200" height="780" fill="url(#sky)"/>
  <circle cx="192" cy="151" r="47" fill="#D2BC91" fill-opacity="0.08"/>
  <rect y="460" width="1200" height="320" fill="url(#ground)"/>
  <rect x="203" y="311" width="604" height="191" fill="#171210"/>
  <rect x="175" y="291" width="660" height="24" fill="#44302A"/>
  <rect x="237" y="339" width="111" height="46" fill="#332721" opacity="0.9"/><rect x="372" y="339" width="111" height="46" fill="#332721" opacity="0.9"/><rect x="507" y="339" width="111" height="46" fill="#332721" opacity="0.9"/><rect x="642" y="339" width="111" height="46" fill="#332721" opacity="0.9"/><rect x="237" y="402" width="111" height="46" fill="#332721" opacity="0.9"/><rect x="372" y="402" width="111" height="46" fill="#332721" opacity="0.9"/><rect x="507" y="402" width="111" height="46" fill="#332721" opacity="0.9"/><rect x="642" y="402" width="111" height="46" fill="#332721" opacity="0.9"/>
  <rect x="436" y="236" width="235" height="50" fill="#BCA173"/>
  <text x="553" y="270" text-anchor="middle" font-size="38" font-family="serif" fill="#17120F">きさらぎ駅</text>
  <rect x="0" y="512" width="1200" height="7" fill="#6F5D4F" fill-opacity="0.56"/>
  <rect x="0" y="562" width="1200" height="5" fill="#8A7562" fill-opacity="0.35"/>
  <rect x="237" y="525" width="17" height="171" fill="#151110" opacity="0.38"/><rect x="398" y="525" width="18" height="155" fill="#151110" opacity="0.38"/><rect x="545" y="525" width="12" height="188" fill="#151110" opacity="0.38"/><rect x="698" y="525" width="14" height="187" fill="#151110" opacity="0.38"/><rect x="843" y="525" width="13" height="155" fill="#151110" opacity="0.38"/><rect x="986" y="525" width="17" height="163" fill="#151110" opacity="0.38"/>
  <ellipse cx="405" cy="413" rx="28" ry="66" fill="#0F0C0B" opacity="0.62"/>
  <ellipse cx="403" cy="377" rx="18" ry="18" fill="#0F0C0B" opacity="0.62"/>
</svg>