<svg width="1200" height="780" viewBox="0 0 1200 780" fill="none" xmlns="http://www.w3.org/2000/svg">
  <defs>
    <linearGradient id="sky" x1="600" y1="0" x2="600" y2="780" gradientUnits="userSpaceOnUse">
      <stop stop-color="#18120F"/>
      <stop offset="1" stop-color="#30241F"/>
    </linearGradient>
    <linearGradient id="ground" x1="600" y1="460" x2="600" y2="780" gradientUnits="userSpaceOnUse">
      <stop stop-color="#1E1713"/>
      <stop offset="1" stop-color="#080707"/>
    </linearGradient>
  </defs>
  <rect width="1200" height="780" fill="url(#sky)"/>
  <circle cx="740" cy="122" r="65" fill="#D2BC91" fill-opacity="0.08"/>
  <rect y="460" width="1200" height="320" fill="url(#ground)"/>
  <rect x="220" y="313" width="619" height="204" fill="#171210"/>
  <rect x="192" y="293" width="675" height="24" fill="#44302A"/>
  <rect x="254" y="341" width="101" height="56" fill="#332721" opacity="0.9"/><rect x="375" y="341" width="101" height="56" fill="#332721" opacity="0.9"/><rect x="496" y="341" width="101" height="56" fill="#332721" opacity="0.9"/><rect x="617" y="341" width="101" height="56" fill="#332721" opacity="0.9"/><rect x="254" y="415" width="101" height="56" fill="#332721" opacity="0.9"/><rect x="375" y="415" width="101" height="56" fill="#332721" opacity="0.9"/><rect x="496" y="415" width="101" height="56" fill="#332721" opacity="0.9"/><rect x="617" y="415" width="101" height="56" fill="#332721" opacity="0.9"/>
  <rect x="444" y="242" width="207" height="50" fill="#BCA173"/>
  <text x="547" y="276" text-anchor="middle" font-size="38" font-family="serif" fill="#17120F">きさらぎ駅</text>
  <rect x="0" y="512" width="1200" height="7" fill="#6F5D4F" fill-opacity="0.56"/>
  <rect x="0" y="562" width="1200" height="5" fill="#8A7562" fill-opacity="0.35"/>
  <rect x="212" y="525" width="18" height="150" fill="#151110" opacity="0.38"/><rect x="340" y="525" width="12" height="153" fill="#151110" opacity="0.38"/><rect x="519" y="525" width="14" height="182" fill="#151110" opacity="0.38"/><rect x="665" y="525" width="13" height="176" fill="#151110" opacity="0.38"/><rect x="815" y="525" width="14" height="175" fill="#151110" opacity="0.38"/><rect x="967" y="525" width="12" height="169" fill="#151110" opacity="0.38"/>
  <ellipse cx="631" cy="415" rx="28" ry="66" fill="#0F0C0B" opacity="0.62"/>
  <ellipse cx="629" cy="379" rx="18" ry="18" fill="#0F0C0B" opacity="0.62"/>
</svg>