<svg width="1200" height="780" viewBox="0 0 1200 780" fill="none" xmlns="http://www.w3.org/2000/svg">
  <defs>
    <linearGradient id="sky" x1="600" y1="0" x2="600" y2="780" gradientUnits="userSpaceOnUse">
      <stop stop-color="#140F0D"/>
      <stop offset="1" stop-color="#30241F"/>
    </linearGradient>
    <linearGradient id="ground" x1="600" y1="460" x2="600" y2="780" gradientUnits="userSpaceOnUse">
      <stop stop-color="#1E1713"/>
      <stop offset="1" stop-color="#0B0908"/>
    </linearGradient>
  </defs>
  <rect width="1200" height="780" fill="url(#sky)"/>
  <circle cx="234" cy="133" r="71" fill="#D2BC91" fill-opacity="0.08"/>
  <rect y="460" width="1200" height="320" fill="url(#ground)"/>
  <rect x="284" y="295" width="661" height="184" fill="#171210"/>
  <rect x="256" y="275" width="717" height="24" fill="#44302A"/>
  <rect x="318" y="323" width="89" height="50" fill="#332721" opacity="0.9"/><rect x="425" y="323" width="89" height="50" fill="#332721" opacity="0.9"/><rect x="532" y="323" width="89" height="50" fill="#332721" opacity="0.9"/><rect x="639" y="323" width="89" height="50" fill="#332721" opacity="0.9"/><rect x="318" y="392" width="89" height="50" fill="#332721" opacity="0.9"/><rect x="425" y="392" width="89" height="50" fill="#332721" opacity="0.9"/><rect x="532" y="392" width="89" height="50" fill="#332721" opacity="0.9"/><rect x="639" y="392" width="89" height="50" fill="#332721" opacity="0.9"/>
  <rect x="481" y="222" width="228" height="50" fill="#BCA173"/>
  <text x="595" y="256" text-anchor="middle" font-size="38" font-family="serif" fill="#17120F">きさらぎ駅</text>
  <rect x="0" y="512" width="1200" height="7" fill="#6F5D4F" fill-opacity="0.56"/>
  <rect x="0" y="562" width="1200" height="5" fill="#8A7562" fill-opacity="0.35"/>
  <rect x="228" y="525" width="16" height="190" fill="#151110" opacity="0.38"/><rect x="385" y="525" width="15" height="188" fill="#151110" opacity="0.38"/><rect x="538" y="525" width="17" height="185" fill="#151110" opacity="0.38"/><rect x="695" y="525" width="15" height="161" fill="#151110" opacity="0.38"/><rect x="837" y="525" width="16" height="184" fill="#151110" opacity="0.38"/><rect x="965" y="525" width="16" height="189" fill="#151110" opacity="0.38"/>
  <ellipse cx="842" cy="404" rx="28" ry="66" fill="#0F0C0B" opacity="0.62"/>
  <ellipse cx="840" cy="368" rx="18" ry="18" fill="#0F0C0B" opacity="0.62"/>
</svg>