<svg width="1200" height="780" viewBox="0 0 1200 780" fill="none" xmlns="http://www.w3.org/2000/svg">
  <defs>
    <linearGradient id="sky" x1="600" y1="0" x2="600" y2="780" gradientUnits="userSpaceOnUse">
      <stop stop-color="#100D0C"/>
      <stop offset="1" stop-color="#352722"/>
    </linearGradient>
    <linearGradient id="ground" x1="600" y1="460" x2="600" y2="780" gradientUnits="userSpaceOnUse">
      <stop stop-color="#1B1512"/>
      <stop offset="1" stop-color="#080707"/>
    </linearGradient>
  </defs>
  <rect width="1200" height="780" fill="url(#sky)"/>
  <circle cx="362" cy="121" r="61" fill="#D2BC91" fill-opacity="0.08"/>
  <rect y="460" width="1200" height="320" fill="url(#ground)"/>
  <rect x="282" y="301" width="651" height="177" fill="#171210"/>
  <rect x="254" y="281" width="707" height="24" fill="#44302A"/>
  <rect x="316" y="329" width="100" height="53" fill="#332721" opacity="0.9"/><rect x="442" y="329" width="100" height="53" fill="#332721" opacity="0.9"/><rect x="568" y="329" width="100" height="53" fill="#332721" opacity="0.9"/><rect x="694" y="329" width="100" height="53" fill="#332721" opacity="0.9"/><rect x="316" y="396" width="100" height="53" fill="#332721" opacity="0.9"/><rect x="442" y="396" width="100" height="53" fill="#332721" opacity="0.9"/><rect x="568" y="396" width="100" height="53" fill="#332721" opacity="0.9"/><rect x="694" y="396" width="100" height="53" fill="#332721" opacity="0.9"/>
  <rect x="478" y="227" width="211" height="50" fill="#BCA173"/>
  <text x="583" y="261" text-anchor="middle" font-size="38" font-family="serif" fill="#17120F">きさらぎ駅</text>
  <rect x="0" y="512" width="1200" height="7" fill="#6F5D4F" fill-opacity="0.56"/>
  <rect x="0" y="562" width="1200" height="5" fill="#8A7562" fill-opacity="0.35"/>
  <rect x="222" y="525" width="14" height="187" fill="#151110" opacity="0.38"/><rect x="372" y="525" width="18" height="165" fill="#151110" opacity="0.38"/><rect x="503" y="525" width="15" height="175" fill="#151110" opacity="0.38"/><rect x="670" y="525" width="17" height="151" fill="#151110" opacity="0.38"/><rect x="815" y="525" width="15" height="150" fill="#151110" opacity="0.38"/><rect x="966" y="525" width="14" height="187" fill="#151110" opacity="0.38"/>
  <ellipse cx="703" cy="426" rx="28" ry="66" fill="#0F0C0B" opacity="0.62"/>
  <ellipse cx="701" cy="390" rx="18" ry="18" fill="#0F0C0B" opacity="0.62"/>
</svg>