<svg width="1200" height="780" viewBox="0 0 1200 780" fill="none" xmlns="http://www.w3.org/2000/svg">
  <defs>
    <linearGradient id="sky" x1="600" y1="0" x2="600" y2="780" gradientUnits="userSpaceOnUse">
      <stop stop-color="#140F0D"/>
      <stop offset="1" stop-color="#2C201B"/>
    </linearGradient>
    <linearGradient id="ground" x1="600" y1="460" x2="600" y2="780" gradientUnits="userSpaceOnUse">
      <stop stop-color="#221A16"/>
      <stop offset="1" stop-color="#090807"/>
    </linearGradient>
  </defs>
  <rect width="1200" height="780" fill="url(#sky)"/>
  <circle cx="334" cy="113" r="45" fill="#D2BC91" fill-opacity="0.08"/>
  <rect y="460" width="1200" height="320" fill="url(#ground)"/>
  <rect x="196" y="308" width="748" height="188" fill="#171210"/>
  <rect x="168" y="288" width="804" height="24" fill="#44302A"/>
  <rect x="230" y="336" width="106" height="53" fill="#332721" opacity="0.9"/><rect x="364" y="336" width="106" height="53" fill="#332721" opacity="0.9"/><rect x="498" y="336" width="106" height="53" fill="#332721" opacity="0.9"/><rect x="632" y="336" width="106" height="53" fill="#332721" opacity="0.9"/><rect x="230" y="406" width="106" height="53" fill="#332721" opacity="0.9"/><rect x="364" y="406" width="106" height="53" fill="#332721" opacity="0.9"/><rect x="498" y="406" width="106" height="53" fill="#332721" opacity="0.9"/><rect x="632" y="406" width="106" height="53" fill="#332721" opacity="0.9"/>
  <rect x="429" y="231" width="242" height="50" fill="#BCA173"/>
  <text x="550" y="265" text-anchor="middle" font-size="38" font-family="serif" fill="#17120F">きさらぎ駅</text>
  <rect x="0" y="512" width="1200" height="7" fill="#6F5D4F" fill-opacity="0.56"/>
  <rect x="0" y="562" width="1200" height="5" fill="#8A7562" fill-opacity="0.35"/>
  <rect x="192" y="525" width="13" height="164" fill="#151110" opacity="0.38"/><rect x="335" y="525" width="18" height="181" fill="#151110" opacity="0.38"/><rect x="488" y="525" width="12" height="160" fill="#151110" opacity="0.38"/><rect x="609" y="525" width="14" height="173" fill="#151110" opacity="0.38"/><rect x="782" y="525" width="18" height="157" fill="#151110" opacity="0.38"/><rect x="949" y="525" width="18" height="180" fill="#151110" opacity="0.38"/>
  <ellipse cx="647" cy="409" rx="28" ry="66" fill="#0F0C0B" opacity="0.62"/>
  <ellipse cx="645" cy="373" rx="18" ry="18" fill="#0F0C0B" opacity="0.62"/>
</svg>