<svg width="1200" height="780" viewBox="0 0 1200 780" fill="none" xmlns="http://www.w3.org/2000/svg">
  <defs>
    <linearGradient id="sky" x1="600" y1="0" x2="600" y2="780" gradientUnits="userSpaceOnUse">
      <stop stop-color="#100D0C"/>
      <stop offset="1" stop-color="#2C201B"/>
    </linearGradient>
    <linearGradient id="ground" x1="600" y1="460" x2="600" y2="780" gradientUnits="userSpaceOnUse">
      <stop stop-color="#1E1713"/>
      <stop offset="1" stop-color="#080707"/>
    </linearGradient>
  </defs>
  <rect width="1200" height="780" fill="url(#sky)"/>
  <circle cx="873" cy="144" r="49" fill="#D2BC91" fill-opacity="0.08"/>
  <rect y="460" width="1200" height="320" fill="url(#ground)"/>
  <rect x="222" y="299" width="651" height="177" fill="#171210"/>
  <rect x="194" y="279" width="707" height="24" fill="#44302A"/>
  <rect x="256" y="327" width="88" height="59" fill="#332721" opacity="0.9"/><rect x="362" y="327" width="88" height="59" fill="#332721" opacity="0.9"/><rect x="468" y="327" width="88" height="59" fill="#332721" opacity="0.9"/><rect x="574" y="327" width="88" height="59" fill="#332721" opacity="0.9"/><rect x="256" y="403" width="88" height="59" fill="#332721" opacity="0.9"/><rect x="362" y="403" width="88" height="59" fill="#332721" opacity="0.9"/><rect x="468" y="403" width="88" height="59" fill="#332721" opacity="0.9"/><rect x="574" y="403" width="88" height="59" fill="#332721" opacity="0.9"/>
  <rect x="456" y="224" width="227" height="50" fill="#BCA173"/>
  <text x="569" y="258" text-anchor="middle" font-size="38" font-family="serif" fill="#17120F">きさらぎ駅</text>
  <rect x="0" y="512" width="1200" height="7" fill="#6F5D4F" fill-opacity="0.56"/>
  <rect x="0" y="562" width="1200" height="5" fill="#8A7562" fill-opacity="0.35"/>
  <rect x="232" y="525" width="12" height="157" fill="#151110" opacity="0.38"/><rect x="354" y="525" width="18" height="159" fill="#151110" opacity="0.38"/><rect x="501" y="525" width="15" height="180" fill="#151110" opacity="0.38"/><rect x="643" y="525" width="18" height="159" fill="#151110" opacity="0.38"/><rect x="813" y="525" width="12" height="166" fill="#151110" opacity="0.38"/><rect x="957" y="525" width="15" height="157" fill="#151110" opacity="0.38"/>
  <ellipse cx="847" cy="400" rx="28" ry="66" fill="#0F0C0B" opacity="0.62"/>
  <ellipse cx="845" cy="364" rx="18" ry="18" fill="#0F0C0B" opacity="0.62"/>
</svg>