<svg width="1200" height="780" viewBox="0 0 1200 780" fill="none" xmlns="http://www.w3.org/2000/svg">
  <defs>
    <linearGradient id="sky" x1="600" y1="0" x2="600" y2="780" gradientUnits="userSpaceOnUse">
      <stop stop-color="#100D0C"/>
      <stop offset="1" stop-color="#2B201B"/>
    </linearGradient>
    <linearGradient id="ground" x1="600" y1="460" x2="600" y2="780" gradientUnits="userSpaceOnUse">
      <stop stop-color="#221A16"/>
      <stop offset="1" stop-color="#080707"/>
    </linearGradient>
  </defs>
  <rect width="1200" height="780" fill="url(#sky)"/>
  <circle cx="314" cy="108" r="67" fill="#D2BC91" fill-opacity="0.08"/>
  <rect y="460" width="1200" height="320" fill="url(#ground)"/>
  <rect x="261" y="298" width="692" height="201" fill="#171210"/>
  <rect x="233" y="278" width="748" height="24" fill="#44302A"/>
  <rect x="295" y="326" width="121" height="50" fill="#332721" opacity="0.9"/><rect x="435" y="326" width="121" height="50" fill="#332721" opacity="0.9"/><rect x="575" y="326" width="121" height="50" fill="#332721" opacity="0.9"/><rect x="715" y="326" width="121" height="50" fill="#332721" opacity="0.9"/><rect x="295" y="390" width="121" height="50" fill="#332721" opacity="0.9"/><rect x="435" y="390" width="121" height="50" fill="#332721" opacity="0.9"/><rect x="575" y="390" width="121" height="50" fill="#332721" opacity="0.9"/><rect x="715" y="390" width="121" height="50" fill="#332721" opacity="0.9"/>
  <rect x="458" y="230" width="197" height="50" fill="#BCA173"/>
  <text x="556" y="264" text-anchor="middle" font-size="38" font-family="serif" fill="#17120F">きさらぎ駅</text>
  <rect x="0" y="512" width="1200" height="7" fill="#6F5D4F" fill-opacity="0.56"/>
  <rect x="0" y="562" width="1200" height="5" fill="#8A7562" fill-opacity="0.35"/>
  <rect x="194" y="525" width="15" height="162" fill="#151110" opacity="0.38"/><rect x="362" y="525" width="16" height="155" fill="#151110" opacity="0.38"/><rect x="482" y="525" width="17" height="152" fill="#151110" opacity="0.38"/><rect x="629" y="525" width="16" height="178" fill="#151110" opacity="0.38"/><rect x="774" y="525" width="13" height="183" fill="#151110" opacity="0.38"/><rect x="945" y="525" width="13" height="174" fill="#151110" opacity="0.38"/>
  <ellipse cx="590" cy="400" rx="28" ry="66" fill="#0F0C0B" opacity="0.62"/>
  <ellipse cx="588" cy="364" rx="18" ry="18" fill="#0F0C0B" opacity="0.62"/>
</svg>