<svg width="1200" height="780" viewBox="0 0 1200 780" fill="none" xmlns="http://www.w3.org/2000/svg">
  <defs>
    <linearGradient id="sky" x1="600" y1="0" x2="600" y2="780" gradientUnits="userSpaceOnUse">
      <stop stop-color="#100D0C"/>
      <stop offset="1" stop-color="#2B201B"/>
    </linearGradient>
    <linearGradient id="ground" x1="600" y1="460" x2="600" y2="780" gradientUnits="userSpaceOnUse">
      <stop stop-color="#221A16"/>
      <stop offset="1" stop-color="#0B0908"/>
    </linearGradient>
  </defs>
  <rect width="1200" height="780" fill="url(#sky)"/>
  <circle cx="569" cy="105" r="74" fill="#D2BC91" fill-opacity="0.08"/>
  <rect y="460" width="1200" height="320" fill="url(#ground)"/>
  <rect x="183" y="300" width="631" height="200" fill="#171210"/>
  <rect x="155" y="280" width="687" height="24" fill="#44302A"/>
  <rect x="217" y="328" width="109" height="58" fill="#332721" opacity="0.9"/><rect x="350" y="328" width="109" height="58" fill="#332721" opacity="0.9"/><rect x="483" y="328" width="109" height="58" fill="#332721" opacity="0.9"/><rect x="616" y="328" width="109" height="58" fill="#332721" opacity="0.9"/><rect x="217" y="403" width="109" height="58" fill="#332721" opacity="0.9"/><rect x="350" y="403" width="109" height="58" fill="#332721" opacity="0.9"/><rect x="483" y="403" width="109" height="58" fill="#332721" opacity="0.9"/><rect x="616" y="403" width="109" height="58" fill="#332721" opacity="0.9"/>
  <rect x="432" y="238" width="219" height="50" fill="#BCA173"/>
  <text x="541" y="272" text-anchor="middle" font-size="38" font-family="serif" fill="#17120F">きさらぎ駅</text>
  <rect x="0" y="512" width="1200" height="7" fill="#6F5D4F" fill-opacity="0.56"/>
  <rect x="0" y="562" width="1200" height="5" fill="#8A7562" fill-opacity="0.35"/>
  <rect x="246" y="525" width="13" height="178" fill="#151110" opacity="0.38"/><rect x="420" y="525" width="18" height="164" fill="#151110" opacity="0.38"/><rect x="542" y="525" width="15" height="160" fill="#151110" opacity="0.38"/><rect x="722" y="525" width="18" height="183" fill="#151110" opacity="0.38"/><rect x="875" y="525" width="18" height="181" fill="#151110" opacity="0.38"/><rect x="1037" y="525" width="14" height="164" fill="#151110" opacity="0.38"/>
  <ellipse cx="586" cy="403" rx="28" ry="66" fill="#0F0C0B" opacity="0.62"/>
  <ellipse cx="584" cy="367" rx="18" ry="18" fill="#0F0C0B" opacity="0.62"/>
</svg>