<svg width="1200" height="780" viewBox="0 0 1200 780" fill="none" xmlns="http://www.w3.org/2000/svg">
  <defs>
    <linearGradient id="sky" x1="600" y1="0" x2="600" y2="780" gradientUnits="userSpaceOnUse">
      <stop stop-color="#120E0C"/>
      <stop offset="1" stop-color="#2C201B"/>
    </linearGradient>
    <linearGradient id="ground" x1="600" y1="460" x2="600" y2="780" gradientUnits="userSpaceOnUse">
      <stop stop-color="#1B1512"/>
      <stop offset="1" stop-color="#0B0908"/>
    </linearGradient>
  </defs>
  <rect width="1200" height="780" fill="url(#sky)"/>
  <circle cx="483" cy="113" r="48" fill="#D2BC91" fill-opacity="0.08"/>
  <rect y="460" width="1200" height="320" fill="url(#ground)"/>
  <rect x="265" y="296" width="692" height="205" fill="#171210"/>
  <rect x="237" y="276" width="748" height="24" fill="#44302A"/>
  <rect x="299" y="324" width="90" height="56" fill="#332721" opacity="0.9"/><rect x="408" y="324" width="90" height="56" fill="#332721" opacity="0.9"/><rect x="517" y="324" width="90" height="56" fill="#332721" opacity="0.9"/><rect x="626" y="324" width="90" height="56" fill="#332721" opacity="0.9"/><rect x="299" y="397" width="90" height="56" fill="#332721" opacity="0.9"/><rect x="408" y="397" width="90" height="56" fill="#332721" opacity="0.9"/><rect x="517" y="397" width="90" height="56" fill="#332721" opacity="0.9"/><rect x="626" y="397" width="90" height="56" fill="#332721" opacity="0.9"/>
  <rect x="460" y="228" width="211" height="50" fill="#BCA173"/>
  <text x="565" y="262" text-anchor="middle" font-size="38" font-family="serif" fill="#17120F">きさらぎ駅</text>
  <rect x="0" y="512" width="1200" height="7" fill="#6F5D4F" fill-opacity="0.56"/>
  <rect x="0" y="562" width="1200" height="5" fill="#8A7562" fill-opacity="0.35"/>
  <rect x="250" y="525" width="14" height="180" fill="#151110" opacity="0.38"/><rect x="429" y="525" width="13" height="180" fill="#151110" opacity="0.38"/><rect x="566" y="525" width="12" height="180" fill="#151110" opacity="0.38"/><rect x="719" y="525" width="15" height="190" fill="#151110" opacity="0.38"/><rect x="870" y="525" width="12" height="190" fill="#151110" opacity="0.38"/><rect x="1017" y="525" width="15" height="165" fill="#151110" opacity="0.38"/>
  <ellipse cx="678" cy="402" rx="28" ry="66" fill="#0F0C0B" opacity="0.62"/>
  <ellipse cx="676" cy="366" rx="18" ry="18" fill="#0F0C0B" opacity="0.62"/>
</svg>