<svg width="1200" height="780" viewBox="0 0 1200 780" fill="none" xmlns="http://www.w3.org/2000/svg">
  <defs>
    <linearGradient id="sky" x1="600" y1="0" x2="600" y2="780" gradientUnits="userSpaceOnUse">
      <stop stop-color="#100D0C"/>
      <stop offset="1" stop-color="#352722"/>
    </linearGradient>
    <linearGradient id="ground" x1="600" y1="460" x2="600" y2="780" gradientUnits="userSpaceOnUse">
      <stop stop-color="#1B1512"/>
      <stop offset="1" stop-color="#0B0908"/>
    </linearGradient>
  </defs>
  <rect width="1200" height="780" fill="url(#sky)"/>
  <circle cx="537" cy="126" r="46" fill="#D2BC91" fill-opacity="0.08"/>
  <rect y="460" width="1200" height="320" fill="url(#ground)"/>
  <rect x="247" y="301" width="633" height="180" fill="#171210"/>
  <rect x="219" y="281" width="689" height="24" fill="#44302A"/>
  <rect x="281" y="329" width="118" height="50" fill="#332721" opacity="0.9"/><rect x="420" y="329" width="118" height="50" fill="#332721" opacity="0.9"/><rect x="559" y="329" width="118" height="50" fill="#332721" opacity="0.9"/><rect x="698" y="329" width="118" height="50" fill="#332721" opacity="0.9"/><rect x="281" y="396" width="118" height="50" fill="#332721" opacity="0.9"/><rect x="420" y="396" width="118" height="50" fill="#332721" opacity="0.9"/><rect x="559" y="396" width="118" height="50" fill="#332721" opacity="0.9"/><rect x="698" y="396" width="118" height="50" fill="#332721" opacity="0.9"/>
  <rect x="465" y="230" width="212" height="50" fill="#BCA173"/>
  <text x="571" y="264" text-anchor="middle" font-size="38" font-family="serif" fill="#17120F">きさらぎ駅</text>
  <rect x="0" y="512" width="1200" height="7" fill="#6F5D4F" fill-opacity="0.56"/>
  <rect x="0" y="562" width="1200" height="5" fill="#8A7562" fill-opacity="0.35"/>
  <rect x="225" y="525" width="17" height="170" fill="#151110" opacity="0.38"/><rect x="351" y="525" width="18" height="158" fill="#151110" opacity="0.38"/><rect x="501" y="525" width="17" height="164" fill="#151110" opacity="0.38"/><rect x="673" y="525" width="16" height="185" fill="#151110" opacity="0.38"/><rect x="839" y="525" width="14" height="181" fill="#151110" opacity="0.38"/><rect x="977" y="525" width="15" height="190" fill="#151110" opacity="0.38"/>
  <ellipse cx="894" cy="390" rx="28" ry="66" fill="#0F0C0B" opacity="0.62"/>
  <ellipse cx="892" cy="354" rx="18" ry="18" fill="#0F0C0B" opacity="0.62"/>
</svg>