<svg width="1200" height="780" viewBox="0 0 1200 780" fill="none" xmlns="http://www.w3.org/2000/svg">
  <defs>
    <linearGradient id="sky" x1="600" y1="0" x2="600" y2="780" gradientUnits="userSpaceOnUse">
      <stop stop-color="#100D0C"/>
      <stop offset="1" stop-color="#2C201B"/>
    </linearGradient>
    <linearGradient id="ground" x1="600" y1="460" x2="600" y2="780" gradientUnits="userSpaceOnUse">
      <stop stop-color="#221A16"/>
      <stop offset="1" stop-color="#090807"/>
    </linearGradient>
  </defs>
  <rect width="1200" height="780" fill="url(#sky)"/>
  <circle cx="944" cy="133" r="71" fill="#D2BC91" fill-opacity="0.08"/>
  <rect y="460" width="1200" height="320" fill="url(#ground)"/>
  <rect x="252" y="306" width="684" height="193" fill="#171210"/>
  <rect x="224" y="286" width="740" height="24" fill="#44302A"/>
  <rect x="286" y="334" width="90" height="53" fill="#332721" opacity="0.9"/><rect x="400" y="334" width="90" height="53" fill="#332721" opacity="0.9"/><rect x="514" y="334" width="90" height="53" fill="#332721" opacity="0.9"/><rect x="628" y="334" width="90" height="53" fill="#332721" opacity="0.9"/><rect x="286" y="405" width="90" height="53" fill="#332721" opacity="0.9"/><rect x="400" y="405" width="90" height="53" fill="#332721" opacity="0.9"/><rect x="514" y="405" width="90" height="53" fill="#332721" opacity="0.9"/><rect x="628" y="405" width="90" height="53" fill="#332721" opacity="0.9"/>
  <rect x="473" y="241" width="211" height="50" fill="#BCA173"/>
  <text x="578" y="275" text-anchor="middle" font-size="38" font-family="serif" fill="#17120F">きさらぎ駅</text>
  <rect x="0" y="512" width="1200" height="7" fill="#6F5D4F" fill-opacity="0.56"/>
  <rect x="0" y="562" width="1200" height="5" fill="#8A7562" fill-opacity="0.35"/>
  <rect x="202" y="525" width="12" height="155" fill="#151110" opacity="0.38"/><rect x="361" y="525" width="14" height="166" fill="#151110" opacity="0.38"/><rect x="496" y="525" width="15" height="160" fill="#151110" opacity="0.38"/><rect x="622" y="525" width="16" height="150" fill="#151110" opacity="0.38"/><rect x="771" y="525" width="14" height="190" fill="#151110" opacity="0.38"/><rect x="922" y="525" width="14" height="177" fill="#151110" opacity="0.38"/>
  <ellipse cx="283" cy="412" rx="28" ry="66" fill="#0F0C0B" opacity="0.62"/>
  <ellipse cx="281" cy="376" rx="18" ry="18" fill="#0F0C0B" opacity="0.62"/>
</svg>