<svg width="1200" height="780" viewBox="0 0 1200 780" fill="none" xmlns="http://www.w3.org/2000/svg">
  <defs>
    <linearGradient id="sky" x1="600" y1="0" x2="600" y2="780" gradientUnits="userSpaceOnUse">
      <stop stop-color="#18120F"/>
      <stop offset="1" stop-color="#2B201B"/>
    </linearGradient>
    <linearGradient id="ground" x1="600" y1="460" x2="600" y2="780" gradientUnits="userSpaceOnUse">
      <stop stop-color="#1B1512"/>
      <stop offset="1" stop-color="#0B0908"/>
    </linearGradient>
  </defs>
  <rect width="1200" height="780" fill="url(#sky)"/>
  <circle cx="363" cy="154" r="47" fill="#D2BC91" fill-opacity="0.08"/>
  <rect y="460" width="1200" height="320" fill="url(#ground)"/>
  <rect x="226" y="303" width="671" height="183" fill="#171210"/>
  <rect x="198" y="283" width="727" height="24" fill="#44302A"/>
  <rect x="260" y="331" width="118" height="54" fill="#332721" opacity="0.9"/><rect x="404" y="331" width="118" height="54" fill="#332721" opacity="0.9"/><rect x="548" y="331" width="118" height="54" fill="#332721" opacity="0.9"/><rect x="692" y="331" width="118" height="54" fill="#332721" opacity="0.9"/><rect x="260" y="403" width="118" height="54" fill="#332721" opacity="0.9"/><rect x="404" y="403" width="118" height="54" fill="#332721" opacity="0.9"/><rect x="548" y="403" width="118" height="54" fill="#332721" opacity="0.9"/><rect x="692" y="403" width="118" height="54" fill="#332721" opacity="0.9"/>
  <rect x="431" y="233" width="203" height="50" fill="#BCA173"/>
  <text x="532" y="267" text-anchor="middle" font-size="38" font-family="serif" fill="#17120F">きさらぎ駅</text>
  <rect x="0" y="512" width="1200" height="7" fill="#6F5D4F" fill-opacity="0.56"/>
  <rect x="0" y="562" width="1200" height="5" fill="#8A7562" fill-opacity="0.35"/>
  <rect x="209" y="525" width="15" height="162" fill="#151110" opacity="0.38"/><rect x="356" y="525" width="16" height="174" fill="#151110" opacity="0.38"/><rect x="517" y="525" width="14" height="165" fill="#151110" opacity="0.38"/><rect x="652" y="525" width="13" height="155" fill="#151110" opacity="0.38"/><rect x="800" y="525" width="14" height="165" fill="#151110" opacity="0.38"/><rect x="950" y="525" width="12" height="181" fill="#151110" opacity="0.38"/>
  <ellipse cx="618" cy="399" rx="28" ry="66" fill="#0F0C0B" opacity="0.62"/>
  <ellipse cx="616" cy="363" rx="18" ry="18" fill="#0F0C0B" opacity="0.62"/>
</svg>