<svg width="1200" height="780" viewBox="0 0 1200 780" fill="none" xmlns="http://www.w3.org/2000/svg">
  <defs>
    <linearGradient id="sky" x1="600" y1="0" x2="600" y2="780" gradientUnits="userSpaceOnUse">
      <stop stop-color="#120E0C"/>
      <stop offset="1" stop-color="#2C201B"/>
    </linearGradient>
    <linearGradient id="ground" x1="600" y1="460" x2="600" y2="780" gradientUnits="userSpaceOnUse">
      <stop stop-color="#1B1512"/>
      <stop offset="1" stop-color="#0B0908"/>
    </linearGradient>
  </defs>
  <rect width="1200" height="780" fill="url(#sky)"/>
  <circle cx="487" cy="97" r="74" fill="#D2BC91" fill-opacity="0.08"/>
  <rect y="460" width="1200" height="320" fill="url(#ground)"/>
  <rect x="246" y="292" width="653" height="171" fill="#171210"/>
  <rect x="218" y="272" width="709" height="24" fill="#44302A"/>
  <rect x="280" y="320" width="90" height="46" fill="#332721" opacity="0.9"/><rect x="395" y="320" width="90" height="46" fill="#332721" opacity="0.9"/><rect x="510" y="320" width="90" height="46" fill="#332721" opacity="0.9"/><rect x="625" y="320" width="90" height="46" fill="#332721" opacity="0.9"/><rect x="280" y="385" width="90" height="46" fill="#332721" opacity="0.9"/><rect x="395" y="385" width="90" height="46" fill="#332721" opacity="0.9"/><rect x="510" y="385" width="90" height="46" fill="#332721" opacity="0.9"/><rect x="625" y="385" width="90" height="46" fill="#332721" opacity="0.9"/>
  <rect x="464" y="227" width="219" height="50" fill="#BCA173"/>
  <text x="573" y="261" text-anchor="middle" font-size="38" font-family="serif" fill="#17120F">きさらぎ駅</text>
  <rect x="0" y="512" width="1200" height="7" fill="#6F5D4F" fill-opacity="0.56"/>
  <rect x="0" y="562" width="1200" height="5" fill="#8A7562" fill-opacity="0.35"/>
  <rect x="244" y="525" width="14" height="188" fill="#151110" opacity="0.38"/><rect x="384" y="525" width="18" height="178" fill="#151110" opacity="0.38"/><rect x="513" y="525" width="15" height="171" fill="#151110" opacity="0.38"/><rect x="669" y="525" width="15" height="159" fill="#151110" opacity="0.38"/><rect x="825" y="525" width="16" height="170" fill="#151110" opacity="0.38"/><rect x="984" y="525" width="16" height="170" fill="#151110" opacity="0.38"/>
  <ellipse cx="607" cy="396" rx="28" ry="66" fill="#0F0C0B" opacity="0.62"/>
  <ellipse cx="605" cy="360" rx="18" ry="18" fill="#0F0C0B" opacity="0.62"/>
</svg>