<svg width="1200" height="780" viewBox="0 0 1200 780" fill="none" xmlns="http://www.w3.org/2000/svg">
  <defs>
    <linearGradient id="sky" x1="600" y1="0" x2="600" y2="780" gradientUnits="userSpaceOnUse">
      <stop stop-color="#100D0C"/>
      <stop offset="1" stop-color="#2C201B"/>
    </linearGradient>
    <linearGradient id="ground" x1="600" y1="460" x2="600" y2="780" gradientUnits="userSpaceOnUse">
      <stop stop-color="#1B1512"/>
      <stop offset="1" stop-color="#0B0908"/>
    </linearGradient>
  </defs>
  <rect width="1200" height="780" fill="url(#sky)"/>
  <circle cx="278" cy="162" r="54" fill="#D2BC91" fill-opacity="0.08"/>
  <rect y="460" width="1200" height="320" fill="url(#ground)"/>
  <rect x="186" y="299" width="732" height="188" fill="#171210"/>
  <rect x="158" y="279" width="788" height="24" fill="#44302A"/>
  <rect x="220" y="327" width="99" height="52" fill="#332721" opacity="0.9"/><rect x="340" y="327" width="99" height="52" fill="#332721" opacity="0.9"/><rect x="460" y="327" width="99" height="52" fill="#332721" opacity="0.9"/><rect x="580" y="327" width="99" height="52" fill="#332721" opacity="0.9"/><rect x="220" y="398" width="99" height="52" fill="#332721" opacity="0.9"/><rect x="340" y="398" width="99" height="52" fill="#332721" opacity="0.9"/><rect x="460" y="398" width="99" height="52" fill="#332721" opacity="0.9"/><rect x="580" y="398" width="99" height="52" fill="#332721" opacity="0.9"/>
  <rect x="419" y="224" width="194" height="50" fill="#BCA173"/>
  <text x="516" y="258" text-anchor="middle" font-size="38" font-family="serif" fill="#17120F">きさらぎ駅</text>
  <rect x="0" y="512" width="1200" height="7" fill="#6F5D4F" fill-opacity="0.56"/>
  <rect x="0" y="562" width="1200" height="5" fill="#8A7562" fill-opacity="0.35"/>
  <rect x="213" y="525" width="16" height="163" fill="#151110" opacity="0.38"/><rect x="364" y="525" width="12" height="189" fill="#151110" opacity="0.38"/><rect x="539" y="525" width="12" height="186" fill="#151110" opacity="0.38"/><rect x="708" y="525" width="16" height="162" fill="#151110" opacity="0.38"/><rect x="855" y="525" width="15" height="174" fill="#151110" opacity="0.38"/><rect x="989" y="525" width="13" height="183" fill="#151110" opacity="0.38"/>
  <ellipse cx="711" cy="399" rx="28" ry="66" fill="#0F0C0B" opacity="0.62"/>
  <ellipse cx="709" cy="363" rx="18" ry="18" fill="#0F0C0B" opacity="0.62"/>
</svg>