<svg width="1200" height="780" viewBox="0 0 1200 780" fill="none" xmlns="http://www.w3.org/2000/svg">
  <defs>
    <linearGradient id="sky" x1="600" y1="0" x2="600" y2="780" gradientUnits="userSpaceOnUse">
      <stop stop-color="#100D0C"/>
      <stop offset="1" stop-color="#30241F"/>
    </linearGradient>
    <linearGradient id="ground" x1="600" y1="460" x2="600" y2="780" gradientUnits="userSpaceOnUse">
      <stop stop-color="#1E1713"/>
      <stop offset="1" stop-color="#0B0908"/>
    </linearGradient>
  </defs>
  <rect width="1200" height="780" fill="url(#sky)"/>
  <circle cx="737" cy="151" r="67" fill="#D2BC91" fill-opacity="0.08"/>
  <rect y="460" width="1200" height="320" fill="url(#ground)"/>
  <rect x="234" y="305" width="758" height="206" fill="#171210"/>
  <rect x="206" y="285" width="814" height="24" fill="#44302A"/>
  <rect x="268" y="333" width="99" height="56" fill="#332721" opacity="0.9"/><rect x="386" y="333" width="99" height="56" fill="#332721" opacity="0.9"/><rect x="504" y="333" width="99" height="56" fill="#332721" opacity="0.9"/><rect x="622" y="333" width="99" height="56" fill="#332721" opacity="0.9"/><rect x="268" y="405" width="99" height="56" fill="#332721" opacity="0.9"/><rect x="386" y="405" width="99" height="56" fill="#332721" opacity="0.9"/><rect x="504" y="405" width="99" height="56" fill="#332721" opacity="0.9"/><rect x="622" y="405" width="99" height="56" fill="#332721" opacity="0.9"/>
  <rect x="450" y="235" width="191" height="50" fill="#BCA173"/>
  <text x="545" y="269" text-anchor="middle" font-size="38" font-family="serif" fill="#17120F">きさらぎ駅</text>
  <rect x="0" y="512" width="1200" height="7" fill="#6F5D4F" fill-opacity="0.56"/>
  <rect x="0" y="562" width="1200" height="5" fill="#8A7562" fill-opacity="0.35"/>
  <rect x="232" y="525" width="16" height="164" fill="#151110" opacity="0.38"/><rect x="354" y="525" width="12" height="161" fill="#151110" opacity="0.38"/><rect x="482" y="525" width="18" height="169" fill="#151110" opacity="0.38"/><rect x="660" y="525" width="16" height="152" fill="#151110" opacity="0.38"/><rect x="804" y="525" width="15" height="171" fill="#151110" opacity="0.38"/><rect x="955" y="525" width="13" height="189" fill="#151110" opacity="0.38"/>
  <ellipse cx="681" cy="423" rx="28" ry="66" fill="#0F0C0B" opacity="0.62"/>
  <ellipse cx="679" cy="387" rx="18" ry="18" fill="#0F0C0B" opacity="0.62"/>
</svg>