<svg width="1200" height="780" viewBox="0 0 1200 780" fill="none" xmlns="http://www.w3.org/2000/svg">
  <defs>
    <linearGradient id="sky" x1="600" y1="0" x2="600" y2="780" gradientUnits="userSpaceOnUse">
      <stop stop-color="#100D0C"/>
      <stop offset="1" stop-color="#2B201B"/>
    </linearGradient>
    <linearGradient id="ground" x1="600" y1="460" x2="600" y2="780" gradientUnits="userSpaceOnUse">
      <stop stop-color="#1E1713"/>
      <stop offset="1" stop-color="#0B0908"/>
    </linearGradient>
  </defs>
  <rect width="1200" height="780" fill="url(#sky)"/>
  <circle cx="575" cy="159" r="49" fill="#D2BC91" fill-opacity="0.08"/>
  <rect y="460" width="1200" height="320" fill="url(#ground)"/>
  <rect x="280" y="317" width="753" height="179" fill="#171210"/>
  <rect x="252" y="297" width="809" height="24" fill="#44302A"/>
  <rect x="314" y="345" width="91" height="47" fill="#332721" opacity="0.9"/><rect x="432" y="345" width="91" height="47" fill="#332721" opacity="0.9"/><rect x="550" y="345" width="91" height="47" fill="#332721" opacity="0.9"/><rect x="668" y="345" width="91" height="47" fill="#332721" opacity="0.9"/><rect x="314" y="410" width="91" height="47" fill="#332721" opacity="0.9"/><rect x="432" y="410" width="91" height="47" fill="#332721" opacity="0.9"/><rect x="550" y="410" width="91" height="47" fill="#332721" opacity="0.9"/><rect x="668" y="410" width="91" height="47" fill="#332721" opacity="0.9"/>
  <rect x="490" y="241" width="222" height="50" fill="#BCA173"/>
  <text x="601" y="275" text-anchor="middle" font-size="38" font-family="serif" fill="#17120F">きさらぎ駅</text>
  <rect x="0" y="512" width="1200" height="7" fill="#6F5D4F" fill-opacity="0.56"/>
  <rect x="0" y="562" width="1200" height="5" fill="#8A7562" fill-opacity="0.35"/>
  <rect x="230" y="525" width="14" height="164" fill="#151110" opacity="0.38"/><rect x="369" y="525" width="14" height="155" fill="#151110" opacity="0.38"/><rect x="501" y="525" width="18" height="158" fill="#151110" opacity="0.38"/><rect x="653" y="525" width="14" height="151" fill="#151110" opacity="0.38"/><rect x="810" y="525" width="13" height="188" fill="#151110" opacity="0.38"/><rect x="956" y="525" width="14" height="163" fill="#151110" opacity="0.38"/>
  <ellipse cx="829" cy="421" rx="28" ry="66" fill="#0F0C0B" opacity="0.62"/>
  <ellipse cx="827" cy="385" rx="18" ry="18" fill="#0F0C0B" opacity="0.62"/>
</svg>