<svg width="1200" height="780" viewBox="0 0 1200 780" fill="none" xmlns="http://www.w3.org/2000/svg">
  <defs>
    <linearGradient id="sky" x1="600" y1="0" x2="600" y2="780" gradientUnits="userSpaceOnUse">
      <stop stop-color="#120E0C"/>
      <stop offset="1" stop-color="#352722"/>
    </linearGradient>
    <linearGradient id="ground" x1="600" y1="460" x2="600" y2="780" gradientUnits="userSpaceOnUse">
      <stop stop-color="#221A16"/>
      <stop offset="1" stop-color="#090807"/>
    </linearGradient>
  </defs>
  <rect width="1200" height="780" fill="url(#sky)"/>
  <circle cx="954" cy="128" r="70" fill="#D2BC91" fill-opacity="0.08"/>
  <rect y="460" width="1200" height="320" fill="url(#ground)"/>
  <rect x="290" y="309" width="754" height="181" fill="#171210"/>
  <rect x="262" y="289" width="810" height="24" fill="#44302A"/>
  <rect x="324" y="337" width="97" height="47" fill="#332721" opacity="0.9"/><rect x="444" y="337" width="97" height="47" fill="#332721" opacity="0.9"/><rect x="564" y="337" width="97" height="47" fill="#332721" opacity="0.9"/><rect x="684" y="337" width="97" height="47" fill="#332721" opacity="0.9"/><rect x="324" y="401" width="97" height="47" fill="#332721" opacity="0.9"/><rect x="444" y="401" width="97" height="47" fill="#332721" opacity="0.9"/><rect x="564" y="401" width="97" height="47" fill="#332721" opacity="0.9"/><rect x="684" y="401" width="97" height="47" fill="#332721" opacity="0.9"/>
  <rect x="532" y="232" width="197" height="50" fill="#BCA173"/>
  <text x="630" y="266" text-anchor="middle" font-size="38" font-family="serif" fill="#17120F">きさらぎ駅</text>
  <rect x="0" y="512" width="1200" height="7" fill="#6F5D4F" fill-opacity="0.56"/>
  <rect x="0" y="562" width="1200" height="5" fill="#8A7562" fill-opacity="0.35"/>
  <rect x="197" y="525" width="12" height="173" fill="#151110" opacity="0.38"/><rect x="344" y="525" width="14" height="157" fill="#151110" opacity="0.38"/><rect x="493" y="525" width="12" height="170" fill="#151110" opacity="0.38"/><rect x="623" y="525" width="15" height="174" fill="#151110" opacity="0.38"/><rect x="769" y="525" width="15" height="171" fill="#151110" opacity="0.38"/><rect x="928" y="525" width="17" height="172" fill="#151110" opacity="0.38"/>
  <ellipse cx="573" cy="390" rx="28" ry="66" fill="#0F0C0B" opacity="0.62"/>
  <ellipse cx="571" cy="354" rx="18" ry="18" fill="#0F0C0B" opacity="0.62"/>
</svg>