<svg width="1200" height="780" viewBox="0 0 1200 780" fill="none" xmlns="http://www.w3.org/2000/svg">
  <defs>
    <linearGradient id="sky" x1="600" y1="0" x2="600" y2="780" gradientUnits="userSpaceOnUse">
      <stop stop-color="#100D0C"/>
      <stop offset="1" stop-color="#30241F"/>
    </linearGradient>
    <linearGradient id="ground" x1="600" y1="460" x2="600" y2="780" gradientUnits="userSpaceOnUse">
      <stop stop-color="#1B1512"/>
      <stop offset="1" stop-color="#090807"/>
    </linearGradient>
  </defs>
  <rect width="1200" height="780" fill="url(#sky)"/>
  <circle cx="917" cy="158" r="60" fill="#D2BC91" fill-opacity="0.08"/>
  <rect y="460" width="1200" height="320" fill="url(#ground)"/>
  <rect x="246" y="318" width="728" height="176" fill="#171210"/>
  <rect x="218" y="298" width="784" height="24" fill="#44302A"/>
  <rect x="280" y="346" width="118" height="47" fill="#332721" opacity="0.9"/><rect x="421" y="346" width="118" height="47" fill="#332721" opacity="0.9"/><rect x="562" y="346" width="118" height="47" fill="#332721" opacity="0.9"/><rect x="703" y="346" width="118" height="47" fill="#332721" opacity="0.9"/><rect x="280" y="408" width="118" height="47" fill="#332721" opacity="0.9"/><rect x="421" y="408" width="118" height="47" fill="#332721" opacity="0.9"/><rect x="562" y="408" width="118" height="47" fill="#332721" opacity="0.9"/><rect x="703" y="408" width="118" height="47" fill="#332721" opacity="0.9"/>
  <rect x="454" y="247" width="213" height="50" fill="#BCA173"/>
  <text x="560" y="281" text-anchor="middle" font-size="38" font-family="serif" fill="#17120F">きさらぎ駅</text>
  <rect x="0" y="512" width="1200" height="7" fill="#6F5D4F" fill-opacity="0.56"/>
  <rect x="0" y="562" width="1200" height="5" fill="#8A7562" fill-opacity="0.35"/>
  <rect x="209" y="525" width="18" height="150" fill="#151110" opacity="0.38"/><rect x="384" y="525" width="13" height="161" fill="#151110" opacity="0.38"/><rect x="506" y="525" width="13" height="167" fill="#151110" opacity="0.38"/><rect x="680" y="525" width="15" height="179" fill="#151110" opacity="0.38"/><rect x="851" y="525" width="15" height="168" fill="#151110" opacity="0.38"/><rect x="978" y="525" width="18" height="178" fill="#151110" opacity="0.38"/>
  <ellipse cx="458" cy="406" rx="28" ry="66" fill="#0F0C0B" opacity="0.62"/>
  <ellipse cx="456" cy="370" rx="18" ry="18" fill="#0F0C0B" opacity="0.62"/>
</svg>