<svg width="1200" height="780" viewBox="0 0 1200 780" fill="none" xmlns="http://www.w3.org/2000/svg">
  <defs>
    <linearGradient id="sky" x1="600" y1="0" x2="600" y2="780" gradientUnits="userSpaceOnUse">
      <stop stop-color="#100D0C"/>
      <stop offset="1" stop-color="#2C201B"/>
    </linearGradient>
    <linearGradient id="ground" x1="600" y1="460" x2="600" y2="780" gradientUnits="userSpaceOnUse">
      <stop stop-color="#1E1713"/>
      <stop offset="1" stop-color="#090807"/>
    </linearGradient>
  </defs>
  <rect width="1200" height="780" fill="url(#sky)"/>
  <circle cx="930" cy="113" r="54" fill="#D2BC91" fill-opacity="0.08"/>
  <rect y="460" width="1200" height="320" fill="url(#ground)"/>
  <rect x="296" y="291" width="694" height="179" fill="#171210"/>
  <rect x="268" y="271" width="750" height="24" fill="#44302A"/>
  <rect x="330" y="319" width="98" height="47" fill="#332721" opacity="0.9"/><rect x="456" y="319" width="98" height="47" fill="#332721" opacity="0.9"/><rect x="582" y="319" width="98" height="47" fill="#332721" opacity="0.9"/><rect x="708" y="319" width="98" height="47" fill="#332721" opacity="0.9"/><rect x="330" y="384" width="98" height="47" fill="#332721" opacity="0.9"/><rect x="456" y="384" width="98" height="47" fill="#332721" opacity="0.9"/><rect x="582" y="384" width="98" height="47" fill="#332721" opacity="0.9"/><rect x="708" y="384" width="98" height="47" fill="#332721" opacity="0.9"/>
  <rect x="477" y="225" width="225" height="50" fill="#BCA173"/>
  <text x="589" y="259" text-anchor="middle" font-size="38" font-family="serif" fill="#17120F">きさらぎ駅</text>
  <rect x="0" y="512" width="1200" height="7" fill="#6F5D4F" fill-opacity="0.56"/>
  <rect x="0" y="562" width="1200" height="5" fill="#8A7562" fill-opacity="0.35"/>
  <rect x="191" y="525" width="16" height="151" fill="#151110" opacity="0.38"/><rect x="360" y="525" width="14" height="160" fill="#151110" opacity="0.38"/><rect x="528" y="525" width="13" height="172" fill="#151110" opacity="0.38"/><rect x="672" y="525" width="15" height="152" fill="#151110" opacity="0.38"/><rect x="807" y="525" width="12" height="177" fill="#151110" opacity="0.38"/><rect x="960" y="525" width="18" height="176" fill="#151110" opacity="0.38"/>
  <ellipse cx="440" cy="396" rx="28" ry="66" fill="#0F0C0B" opacity="0.62"/>
  <ellipse cx="438" cy="360" rx="18" ry="18" fill="#0F0C0B" opacity="0.62"/>
</svg>