<svg width="1200" height="780" viewBox="0 0 1200 780" fill="none" xmlns="http://www.w3.org/2000/svg">
  <defs>
    <linearGradient id="sky" x1="600" y1="0" x2="600" y2="780" gradientUnits="userSpaceOnUse">
      <stop stop-color="#120E0C"/>
      <stop offset="1" stop-color="#2B201B"/>
    </linearGradient>
    <linearGradient id="ground" x1="600" y1="460" x2="600" y2="780" gradientUnits="userSpaceOnUse">
      <stop stop-color="#1E1713"/>
      <stop offset="1" stop-color="#080707"/>
    </linearGradient>
  </defs>
  <rect width="1200" height="780" fill="url(#sky)"/>
  <circle cx="569" cy="138" r="45" fill="#D2BC91" fill-opacity="0.08"/>
  <rect y="460" width="1200" height="320" fill="url(#ground)"/>
  <rect x="263" y="305" width="740" height="172" fill="#171210"/>
  <rect x="235" y="285" width="796" height="24" fill="#44302A"/>
  <rect x="297" y="333" width="97" height="52" fill="#332721" opacity="0.9"/><rect x="415" y="333" width="97" height="52" fill="#332721" opacity="0.9"/><rect x="533" y="333" width="97" height="52" fill="#332721" opacity="0.9"/><rect x="651" y="333" width="97" height="52" fill="#332721" opacity="0.9"/><rect x="297" y="404" width="97" height="52" fill="#332721" opacity="0.9"/><rect x="415" y="404" width="97" height="52" fill="#332721" opacity="0.9"/><rect x="533" y="404" width="97" height="52" fill="#332721" opacity="0.9"/><rect x="651" y="404" width="97" height="52" fill="#332721" opacity="0.9"/>
  <rect x="462" y="240" width="190" height="50" fill="#BCA173"/>
  <text x="557" y="274" text-anchor="middle" font-size="38" font-family="serif" fill="#17120F">きさらぎ駅</text>
  <rect x="0" y="512" width="1200" height="7" fill="#6F5D4F" fill-opacity="0.56"/>
  <rect x="0" y="562" width="1200" height="5" fill="#8A7562" fill-opacity="0.35"/>
  <rect x="221" y="525" width="14" height="154" fill="#151110" opacity="0.38"/><rect x="358" y="525" width="16" height="184" fill="#151110" opacity="0.38"/><rect x="506" y="525" width="15" height="181" fill="#151110" opacity="0.38"/><rect x="659" y="525" width="13" height="190" fill="#151110" opacity="0.38"/><rect x="806" y="525" width="16" height="152" fill="#151110" opacity="0.38"/><rect x="927" y="525" width="14" height="172" fill="#151110" opacity="0.38"/>
  <ellipse cx="817" cy="413" rx="28" ry="66" fill="#0F0C0B" opacity="0.62"/>
  <ellipse cx="815" cy="377" rx="18" ry="18" fill="#0F0C0B" opacity="0.62"/>
</svg>