<svg width="1200" height="780" viewBox="0 0 1200 780" fill="none" xmlns="http://www.w3.org/2000/svg">
  <defs>
    <linearGradient id="sky" x1="600" y1="0" x2="600" y2="780" gradientUnits="userSpaceOnUse">
      <stop stop-color="#100D0C"/>
      <stop offset="1" stop-color="#2B201B"/>
    </linearGradient>
    <linearGradient id="ground" x1="600" y1="460" x2="600" y2="780" gradientUnits="userSpaceOnUse">
      <stop stop-color="#221A16"/>
      <stop offset="1" stop-color="#090807"/>
    </linearGradient>
  </defs>
  <rect width="1200" height="780" fill="url(#sky)"/>
  <circle cx="371" cy="159" r="72" fill="#D2BC91" fill-opacity="0.08"/>
  <rect y="460" width="1200" height="320" fill="url(#ground)"/>
  <rect x="215" y="291" width="736" height="202" fill="#171210"/>
  <rect x="187" y="271" width="792" height="24" fill="#44302A"/>
  <rect x="249" y="319" width="96" height="54" fill="#332721" opacity="0.9"/><rect x="363" y="319" width="96" height="54" fill="#332721" opacity="0.9"/><rect x="477" y="319" width="96" height="54" fill="#332721" opacity="0.9"/><rect x="591" y="319" width="96" height="54" fill="#332721" opacity="0.9"/><rect x="249" y="388" width="96" height="54" fill="#332721" opacity="0.9"/><rect x="363" y="388" width="96" height="54" fill="#332721" opacity="0.9"/><rect x="477" y="388" width="96" height="54" fill="#332721" opacity="0.9"/><rect x="591" y="388" width="96" height="54" fill="#332721" opacity="0.9"/>
  <rect x="439" y="216" width="196" height="50" fill="#BCA173"/>
  <text x="537" y="250" text-anchor="middle" font-size="38" font-family="serif" fill="#17120F">きさらぎ駅</text>
  <rect x="0" y="512" width="1200" height="7" fill="#6F5D4F" fill-opacity="0.56"/>
  <rect x="0" y="562" width="1200" height="5" fill="#8A7562" fill-opacity="0.35"/>
  <rect x="214" y="525" width="12" height="157" fill="#151110" opacity="0.38"/><rect x="368" y="525" width="12" height="155" fill="#151110" opacity="0.38"/><rect x="509" y="525" width="14" height="186" fill="#151110" opacity="0.38"/><rect x="658" y="525" width="13" height="172" fill="#151110" opacity="0.38"/><rect x="829" y="525" width="13" height="153" fill="#151110" opacity="0.38"/><rect x="1009" y="525" width="15" height="152" fill="#151110" opacity="0.38"/>
  <ellipse cx="924" cy="396" rx="28" ry="66" fill="#0F0C0B" opacity="0.62"/>
  <ellipse cx="922" cy="360" rx="18" ry="18" fill="#0F0C0B" opacity="0.62"/>
</svg>