<svg width="1200" height="780" viewBox="0 0 1200 780" fill="none" xmlns="http://www.w3.org/2000/svg">
  <defs>
    <linearGradient id="sky" x1="600" y1="0" x2="600" y2="780" gradientUnits="userSpaceOnUse">
      <stop stop-color="#120E0C"/>
      <stop offset="1" stop-color="#352722"/>
    </linearGradient>
    <linearGradient id="ground" x1="600" y1="460" x2="600" y2="780" gradientUnits="userSpaceOnUse">
      <stop stop-color="#221A16"/>
      <stop offset="1" stop-color="#080707"/>
    </linearGradient>
  </defs>
  <rect width="1200" height="780" fill="url(#sky)"/>
  <circle cx="284" cy="111" r="57" fill="#D2BC91" fill-opacity="0.08"/>
  <rect y="460" width="1200" height="320" fill="url(#ground)"/>
  <rect x="247" y="318" width="633" height="171" fill="#171210"/>
  <rect x="219" y="298" width="689" height="24" fill="#44302A"/>
  <rect x="281" y="346" width="101" height="51" fill="#332721" opacity="0.9"/><rect x="404" y="346" width="101" height="51" fill="#332721" opacity="0.9"/><rect x="527" y="346" width="101" height="51" fill="#332721" opacity="0.9"/><rect x="650" y="346" width="101" height="51" fill="#332721" opacity="0.9"/><rect x="281" y="413" width="101" height="51" fill="#332721" opacity="0.9"/><rect x="404" y="413" width="101" height="51" fill="#332721" opacity="0.9"/><rect x="527" y="413" width="101" height="51" fill="#332721" opacity="0.9"/><rect x="650" y="413" width="101" height="51" fill="#332721" opacity="0.9"/>
  <rect x="434" y="253" width="214" height="50" fill="#BCA173"/>
  <text x="541" y="287" text-anchor="middle" font-size="38" font-family="serif" fill="#17120F">きさらぎ駅</text>
  <rect x="0" y="512" width="1200" height="7" fill="#6F5D4F" fill-opacity="0.56"/>
  <rect x="0" y="562" width="1200" height="5" fill="#8A7562" fill-opacity="0.35"/>
  <rect x="250" y="525" width="16" height="170" fill="#151110" opacity="0.38"/><rect x="388" y="525" width="17" height="167" fill="#151110" opacity="0.38"/><rect x="568" y="525" width="18" height="171" fill="#151110" opacity="0.38"/><rect x="692" y="525" width="16" height="160" fill="#151110" opacity="0.38"/><rect x="842" y="525" width="13" height="153" fill="#151110" opacity="0.38"/><rect x="971" y="525" width="15" height="169" fill="#151110" opacity="0.38"/>
  <ellipse cx="388" cy="392" rx="28" ry="66" fill="#0F0C0B" opacity="0.62"/>
  <ellipse cx="386" cy="356" rx="18" ry="18" fill="#0F0C0B" opacity="0.62"/>
</svg>