<svg width="1200" height="780" viewBox="0 0 1200 780" fill="none" xmlns="http://www.w3.org/2000/svg">
  <defs>
    <linearGradient id="sky" x1="600" y1="0" x2="600" y2="780" gradientUnits="userSpaceOnUse">
      <stop stop-color="#100D0C"/>
      <stop offset="1" stop-color="#352722"/>
    </linearGradient>
    <linearGradient id="ground" x1="600" y1="460" x2="600" y2="780" gradientUnits="userSpaceOnUse">
      <stop stop-color="#221A16"/>
      <stop offset="1" stop-color="#090807"/>
    </linearGradient>
  </defs>
  <rect width="1200" height="780" fill="url(#sky)"/>
  <circle cx="919" cy="137" r="65" fill="#D2BC91" fill-opacity="0.08"/>
  <rect y="460" width="1200" height="320" fill="url(#ground)"/>
  <rect x="200" y="295" width="608" height="202" fill="#171210"/>
  <rect x="172" y="275" width="664" height="24" fill="#44302A"/>
  <rect x="234" y="323" width="118" height="46" fill="#332721" opacity="0.9"/><rect x="375" y="323" width="118" height="46" fill="#332721" opacity="0.9"/><rect x="516" y="323" width="118" height="46" fill="#332721" opacity="0.9"/><rect x="657" y="323" width="118" height="46" fill="#332721" opacity="0.9"/><rect x="234" y="388" width="118" height="46" fill="#332721" opacity="0.9"/><rect x="375" y="388" width="118" height="46" fill="#332721" opacity="0.9"/><rect x="516" y="388" width="118" height="46" fill="#332721" opacity="0.9"/><rect x="657" y="388" width="118" height="46" fill="#332721" opacity="0.9"/>
  <rect x="435" y="219" width="216" height="50" fill="#BCA173"/>
  <text x="543" y="253" text-anchor="middle" font-size="38" font-family="serif" fill="#17120F">きさらぎ駅</text>
  <rect x="0" y="512" width="1200" height="7" fill="#6F5D4F" fill-opacity="0.56"/>
  <rect x="0" y="562" width="1200" height="5" fill="#8A7562" fill-opacity="0.35"/>
  <rect x="205" y="525" width="17" height="169" fill="#151110" opacity="0.38"/><rect x="361" y="525" width="18" height="186" fill="#151110" opacity="0.38"/><rect x="498" y="525" width="18" height="180" fill="#151110" opacity="0.38"/><rect x="660" y="525" width="17" height="153" fill="#151110" opacity="0.38"/><rect x="828" y="525" width="14" height="184" fill="#151110" opacity="0.38"/><rect x="949" y="525" width="15" height="184" fill="#151110" opacity="0.38"/>
  <ellipse cx="925" cy="407" rx="28" ry="66" fill="#0F0C0B" opacity="0.62"/>
  <ellipse cx="923" cy="371" rx="18" ry="18" fill="#0F0C0B" opacity="0.62"/>
</svg>