<svg width="1200" height="780" viewBox="0 0 1200 780" fill="none" xmlns="http://www.w3.org/2000/svg">
  <defs>
    <linearGradient id="sky" x1="600" y1="0" x2="600" y2="780" gradientUnits="userSpaceOnUse">
      <stop stop-color="#120E0C"/>
      <stop offset="1" stop-color="#30241F"/>
    </linearGradient>
    <linearGradient id="ground" x1="600" y1="460" x2="600" y2="780" gradientUnits="userSpaceOnUse">
      <stop stop-color="#1E1713"/>
      <stop offset="1" stop-color="#080707"/>
    </linearGradient>
  </defs>
  <rect width="1200" height="780" fill="url(#sky)"/>
  <circle cx="620" cy="165" r="56" fill="#D2BC91" fill-opacity="0.08"/>
  <rect y="460" width="1200" height="320" fill="url(#ground)"/>
  <rect x="245" y="313" width="739" height="178" fill="#171210"/>
  <rect x="217" y="293" width="795" height="24" fill="#44302A"/>
  <rect x="279" y="341" width="103" height="55" fill="#332721" opacity="0.9"/><rect x="409" y="341" width="103" height="55" fill="#332721" opacity="0.9"/><rect x="539" y="341" width="103" height="55" fill="#332721" opacity="0.9"/><rect x="669" y="341" width="103" height="55" fill="#332721" opacity="0.9"/><rect x="279" y="413" width="103" height="55" fill="#332721" opacity="0.9"/><rect x="409" y="413" width="103" height="55" fill="#332721" opacity="0.9"/><rect x="539" y="413" width="103" height="55" fill="#332721" opacity="0.9"/><rect x="669" y="413" width="103" height="55" fill="#332721" opacity="0.9"/>
  <rect x="455" y="243" width="217" height="50" fill="#BCA173"/>
  <text x="563" y="277" text-anchor="middle" font-size="38" font-family="serif" fill="#17120F">きさらぎ駅</text>
  <rect x="0" y="512" width="1200" height="7" fill="#6F5D4F" fill-opacity="0.56"/>
  <rect x="0" y="562" width="1200" height="5" fill="#8A7562" fill-opacity="0.35"/>
  <rect x="220" y="525" width="14" height="176" fill="#151110" opacity="0.38"/><rect x="391" y="525" width="12" height="158" fill="#151110" opacity="0.38"/><rect x="518" y="525" width="14" height="190" fill="#151110" opacity="0.38"/><rect x="676" y="525" width="15" height="177" fill="#151110" opacity="0.38"/><rect x="838" y="525" width="18" height="154" fill="#151110" opacity="0.38"/><rect x="967" y="525" width="18" height="189" fill="#151110" opacity="0.38"/>
  <ellipse cx="509" cy="424" rx="28" ry="66" fill="#0F0C0B" opacity="0.62"/>
  <ellipse cx="507" cy="388" rx="18" ry="18" fill="#0F0C0B" opacity="0.62"/>
</svg>