<svg width="1200" height="780" viewBox="0 0 1200 780" fill="none" xmlns="http://www.w3.org/2000/svg">
  <defs>
    <linearGradient id="sky2" x1="600" y1="0" x2="600" y2="780" gradientUnits="userSpaceOnUse">
      <stop stop-color="#16120F"/>
      <stop offset="1" stop-color="#2A1F1A"/>
    </linearGradient>
    <linearGradient id="platform2" x1="600" y1="470" x2="600" y2="780" gradientUnits="userSpaceOnUse">
      <stop stop-color="#1F1814"/>
      <stop offset="1" stop-color="#080707"/>
    </linearGradient>
  </defs>
  <rect width="1200" height="780" fill="url(#sky2)"/>
  <ellipse cx="300" cy="130" rx="95" ry="45" fill="#CBAE7A" fill-opacity="0.08"/>
  <rect y="470" width="1200" height="310" fill="url(#platform2)"/>

  <rect x="120" y="300" width="430" height="190" fill="#171210"/>
  <rect x="150" y="330" width="130" height="66" fill="#32251F"/>
  <rect x="300" y="330" width="130" height="66" fill="#32251F"/>
  <rect x="460" y="330" width="60" height="130" fill="#261D18"/>
  <rect x="98" y="282" width="470" height="28" fill="#463029"/>

  <rect x="640" y="322" width="360" height="170" fill="#191311"/>
  <rect x="660" y="346" width="96" height="54" fill="#2F241F"/>
  <rect x="770" y="346" width="96" height="54" fill="#2F241F"/>
  <rect x="880" y="346" width="96" height="126" fill="#231B16"/>

  <rect x="210" y="244" width="240" height="50" fill="#B89B6D"/>
  <text x="330" y="277" text-anchor="middle" font-size="40" font-family="serif" fill="#191410">きさらぎ駅</text>

  <rect x="0" y="520" width="1200" height="6" fill="#726254" fill-opacity="0.6"/>
  <rect x="0" y="566" width="1200" height="4" fill="#857160" fill-opacity="0.42"/>

  <g opacity="0.42">
    <rect x="72" y="530" width="16" height="170" fill="#151110"/>
    <rect x="214" y="530" width="16" height="170" fill="#151110"/>
    <rect x="356" y="530" width="16" height="170" fill="#151110"/>
    <rect x="1000" y="530" width="16" height="170" fill="#151110"/>
  </g>

  <g opacity="0.7">
    <ellipse cx="910" cy="410" rx="28" ry="70" fill="#100D0C"/>
    <ellipse cx="908" cy="372" rx="18" ry="18" fill="#100D0C"/>
  </g>

  <g opacity="0.15">
    <circle cx="980" cy="120" r="1.6" fill="#F3E5CA"/>
    <circle cx="1040" cy="188" r="1.1" fill="#F3E5CA"/>
    <circle cx="820" cy="76" r="1.4" fill="#F3E5CA"/>
  </g>
</svg>
