<svg width="1200" height="780" viewBox="0 0 1200 780" fill="none" xmlns="http://www.w3.org/2000/svg">
  <defs>
    <linearGradient id="sky" x1="600" y1="0" x2="600" y2="780" gradientUnits="userSpaceOnUse">
      <stop stop-color="#120F0D"/>
      <stop offset="1" stop-color="#342722"/>
    </linearGradient>
    <linearGradient id="ground" x1="600" y1="450" x2="600" y2="780" gradientUnits="userSpaceOnUse">
      <stop stop-color="#211915"/>
      <stop offset="1" stop-color="#090807"/>
    </linearGradient>
    <filter id="blurred" x="0" y="0" width="1200" height="780" filterUnits="userSpaceOnUse" color-interpolation-filters="sRGB">
      <feGaussianBlur stdDeviation="1.2"/>
    </filter>
  </defs>
  <rect width="1200" height="780" fill="url(#sky)"/>
  <circle cx="912" cy="138" r="56" fill="#D3BA8B" fill-opacity="0.08"/>
  <rect y="460" width="1200" height="320" fill="url(#ground)"/>
  <g opacity="0.65">
    <rect x="140" y="320" width="290" height="170" fill="#15100E"/>
    <rect x="170" y="350" width="86" height="52" fill="#271D18"/>
    <rect x="270" y="350" width="86" height="52" fill="#271D18"/>
    <rect x="170" y="414" width="186" height="48" fill="#1E1713"/>
    <rect x="124" y="304" width="322" height="22" fill="#2F231E"/>
  </g>
  <g opacity="0.9">
    <rect x="530" y="300" width="430" height="190" fill="#18120F"/>
    <rect x="560" y="330" width="124" height="66" fill="#352721"/>
    <rect x="705" y="330" width="124" height="66" fill="#352721"/>
    <rect x="850" y="330" width="80" height="132" fill="#241C17"/>
    <rect x="502" y="282" width="482" height="28" fill="#44302A"/>
    <rect x="612" y="242" width="230" height="52" fill="#BEA57A"/>
    <text x="727" y="277" text-anchor="middle" font-size="42" font-family="serif" fill="#17120F">きさらぎ駅</text>
  </g>
  <rect x="0" y="494" width="1200" height="7" fill="#6C5B4E" fill-opacity="0.55"/>
  <rect x="0" y="548" width="1200" height="5" fill="#8A7665" fill-opacity="0.4"/>
  <g opacity="0.45">
    <rect x="60" y="508" width="18" height="182" fill="#161110"/>
    <rect x="208" y="508" width="18" height="182" fill="#161110"/>
    <rect x="960" y="508" width="18" height="182" fill="#161110"/>
    <rect x="1100" y="508" width="18" height="182" fill="#161110"/>
  </g>
  <g filter="url(#blurred)" opacity="0.75">
    <ellipse cx="790" cy="384" rx="36" ry="82" fill="#110E0D"/>
    <ellipse cx="790" cy="342" rx="22" ry="22" fill="#110E0D"/>
  </g>
  <g opacity="0.18">
    <path d="M0 0H1200V780H0V0Z" fill="url(#ground)"/>
    <path d="M0 60C170 96 306 20 470 58C646 98 812 34 988 48C1070 56 1134 76 1200 68V780H0V60Z" fill="#5E4037"/>
  </g>
  <g opacity="0.15">
    <circle cx="186" cy="96" r="1.5" fill="#F4E8CF"/>
    <circle cx="372" cy="186" r="1.2" fill="#F4E8CF"/>
    <circle cx="1040" cy="96" r="1.8" fill="#F4E8CF"/>
    <circle cx="980" cy="210" r="1.1" fill="#F4E8CF"/>
  </g>
</svg>
